G04 #@! TF.GenerationSoftware,KiCad,Pcbnew,5.1.6-c6e7f7d~86~ubuntu18.04.1*
G04 #@! TF.CreationDate,2020-06-12T21:41:03+02:00*
G04 #@! TF.ProjectId,printplaat,7072696e-7470-46c6-9161-742e6b696361,rev?*
G04 #@! TF.SameCoordinates,Original*
G04 #@! TF.FileFunction,Soldermask,Bot*
G04 #@! TF.FilePolarity,Negative*
%FSLAX46Y46*%
G04 Gerber Fmt 4.6, Leading zero omitted, Abs format (unit mm)*
G04 Created by KiCad (PCBNEW 5.1.6-c6e7f7d~86~ubuntu18.04.1) date 2020-06-12 21:41:03*
%MOMM*%
%LPD*%
G01*
G04 APERTURE LIST*
%ADD10C,0.100000*%
G04 APERTURE END LIST*
D10*
G36*
X106928228Y-166821703D02*
G01*
X107083100Y-166885853D01*
X107222481Y-166978985D01*
X107341015Y-167097519D01*
X107434147Y-167236900D01*
X107498297Y-167391772D01*
X107531000Y-167556184D01*
X107531000Y-167723816D01*
X107498297Y-167888228D01*
X107434147Y-168043100D01*
X107341015Y-168182481D01*
X107222481Y-168301015D01*
X107083100Y-168394147D01*
X106928228Y-168458297D01*
X106763816Y-168491000D01*
X106596184Y-168491000D01*
X106431772Y-168458297D01*
X106276900Y-168394147D01*
X106137519Y-168301015D01*
X106018985Y-168182481D01*
X105925853Y-168043100D01*
X105861703Y-167888228D01*
X105829000Y-167723816D01*
X105829000Y-167556184D01*
X105861703Y-167391772D01*
X105925853Y-167236900D01*
X106018985Y-167097519D01*
X106137519Y-166978985D01*
X106276900Y-166885853D01*
X106431772Y-166821703D01*
X106596184Y-166789000D01*
X106763816Y-166789000D01*
X106928228Y-166821703D01*
G37*
G36*
X99308228Y-166821703D02*
G01*
X99463100Y-166885853D01*
X99602481Y-166978985D01*
X99721015Y-167097519D01*
X99814147Y-167236900D01*
X99878297Y-167391772D01*
X99911000Y-167556184D01*
X99911000Y-167723816D01*
X99878297Y-167888228D01*
X99814147Y-168043100D01*
X99721015Y-168182481D01*
X99602481Y-168301015D01*
X99463100Y-168394147D01*
X99308228Y-168458297D01*
X99143816Y-168491000D01*
X98976184Y-168491000D01*
X98811772Y-168458297D01*
X98656900Y-168394147D01*
X98517519Y-168301015D01*
X98398985Y-168182481D01*
X98305853Y-168043100D01*
X98241703Y-167888228D01*
X98209000Y-167723816D01*
X98209000Y-167556184D01*
X98241703Y-167391772D01*
X98305853Y-167236900D01*
X98398985Y-167097519D01*
X98517519Y-166978985D01*
X98656900Y-166885853D01*
X98811772Y-166821703D01*
X98976184Y-166789000D01*
X99143816Y-166789000D01*
X99308228Y-166821703D01*
G37*
G36*
X146671512Y-165219927D02*
G01*
X146820812Y-165249624D01*
X146984784Y-165317544D01*
X147132354Y-165416147D01*
X147257853Y-165541646D01*
X147356456Y-165689216D01*
X147424376Y-165853188D01*
X147459000Y-166027259D01*
X147459000Y-166204741D01*
X147424376Y-166378812D01*
X147356456Y-166542784D01*
X147257853Y-166690354D01*
X147132354Y-166815853D01*
X146984784Y-166914456D01*
X146820812Y-166982376D01*
X146671512Y-167012073D01*
X146646742Y-167017000D01*
X146469258Y-167017000D01*
X146444488Y-167012073D01*
X146295188Y-166982376D01*
X146131216Y-166914456D01*
X145983646Y-166815853D01*
X145858147Y-166690354D01*
X145759544Y-166542784D01*
X145691624Y-166378812D01*
X145657000Y-166204741D01*
X145657000Y-166027259D01*
X145691624Y-165853188D01*
X145759544Y-165689216D01*
X145858147Y-165541646D01*
X145983646Y-165416147D01*
X146131216Y-165317544D01*
X146295188Y-165249624D01*
X146444488Y-165219927D01*
X146469258Y-165215000D01*
X146646742Y-165215000D01*
X146671512Y-165219927D01*
G37*
G36*
X144131512Y-165219927D02*
G01*
X144280812Y-165249624D01*
X144444784Y-165317544D01*
X144592354Y-165416147D01*
X144717853Y-165541646D01*
X144816456Y-165689216D01*
X144884376Y-165853188D01*
X144919000Y-166027259D01*
X144919000Y-166204741D01*
X144884376Y-166378812D01*
X144816456Y-166542784D01*
X144717853Y-166690354D01*
X144592354Y-166815853D01*
X144444784Y-166914456D01*
X144280812Y-166982376D01*
X144131512Y-167012073D01*
X144106742Y-167017000D01*
X143929258Y-167017000D01*
X143904488Y-167012073D01*
X143755188Y-166982376D01*
X143591216Y-166914456D01*
X143443646Y-166815853D01*
X143318147Y-166690354D01*
X143219544Y-166542784D01*
X143151624Y-166378812D01*
X143117000Y-166204741D01*
X143117000Y-166027259D01*
X143151624Y-165853188D01*
X143219544Y-165689216D01*
X143318147Y-165541646D01*
X143443646Y-165416147D01*
X143591216Y-165317544D01*
X143755188Y-165249624D01*
X143904488Y-165219927D01*
X143929258Y-165215000D01*
X144106742Y-165215000D01*
X144131512Y-165219927D01*
G37*
G36*
X99308228Y-164281703D02*
G01*
X99463100Y-164345853D01*
X99602481Y-164438985D01*
X99721015Y-164557519D01*
X99814147Y-164696900D01*
X99878297Y-164851772D01*
X99911000Y-165016184D01*
X99911000Y-165183816D01*
X99878297Y-165348228D01*
X99814147Y-165503100D01*
X99721015Y-165642481D01*
X99602481Y-165761015D01*
X99463100Y-165854147D01*
X99308228Y-165918297D01*
X99143816Y-165951000D01*
X98976184Y-165951000D01*
X98811772Y-165918297D01*
X98656900Y-165854147D01*
X98517519Y-165761015D01*
X98398985Y-165642481D01*
X98305853Y-165503100D01*
X98241703Y-165348228D01*
X98209000Y-165183816D01*
X98209000Y-165016184D01*
X98241703Y-164851772D01*
X98305853Y-164696900D01*
X98398985Y-164557519D01*
X98517519Y-164438985D01*
X98656900Y-164345853D01*
X98811772Y-164281703D01*
X98976184Y-164249000D01*
X99143816Y-164249000D01*
X99308228Y-164281703D01*
G37*
G36*
X106928228Y-164281703D02*
G01*
X107083100Y-164345853D01*
X107222481Y-164438985D01*
X107341015Y-164557519D01*
X107434147Y-164696900D01*
X107498297Y-164851772D01*
X107531000Y-165016184D01*
X107531000Y-165183816D01*
X107498297Y-165348228D01*
X107434147Y-165503100D01*
X107341015Y-165642481D01*
X107222481Y-165761015D01*
X107083100Y-165854147D01*
X106928228Y-165918297D01*
X106763816Y-165951000D01*
X106596184Y-165951000D01*
X106431772Y-165918297D01*
X106276900Y-165854147D01*
X106137519Y-165761015D01*
X106018985Y-165642481D01*
X105925853Y-165503100D01*
X105861703Y-165348228D01*
X105829000Y-165183816D01*
X105829000Y-165016184D01*
X105861703Y-164851772D01*
X105925853Y-164696900D01*
X106018985Y-164557519D01*
X106137519Y-164438985D01*
X106276900Y-164345853D01*
X106431772Y-164281703D01*
X106596184Y-164249000D01*
X106763816Y-164249000D01*
X106928228Y-164281703D01*
G37*
G36*
X117715331Y-161728211D02*
G01*
X118043092Y-161863974D01*
X118338070Y-162061072D01*
X118588928Y-162311930D01*
X118786026Y-162606908D01*
X118921789Y-162934669D01*
X118991000Y-163282616D01*
X118991000Y-163637384D01*
X118921789Y-163985331D01*
X118786026Y-164313092D01*
X118588928Y-164608070D01*
X118338070Y-164858928D01*
X118043092Y-165056026D01*
X117715331Y-165191789D01*
X117367384Y-165261000D01*
X117012616Y-165261000D01*
X116664669Y-165191789D01*
X116336908Y-165056026D01*
X116041930Y-164858928D01*
X115791072Y-164608070D01*
X115593974Y-164313092D01*
X115458211Y-163985331D01*
X115389000Y-163637384D01*
X115389000Y-163282616D01*
X115458211Y-162934669D01*
X115593974Y-162606908D01*
X115791072Y-162311930D01*
X116041930Y-162061072D01*
X116336908Y-161863974D01*
X116664669Y-161728211D01*
X117012616Y-161659000D01*
X117367384Y-161659000D01*
X117715331Y-161728211D01*
G37*
G36*
X129755331Y-161728211D02*
G01*
X130083092Y-161863974D01*
X130378070Y-162061072D01*
X130628928Y-162311930D01*
X130826026Y-162606908D01*
X130961789Y-162934669D01*
X131031000Y-163282616D01*
X131031000Y-163637384D01*
X130961789Y-163985331D01*
X130826026Y-164313092D01*
X130628928Y-164608070D01*
X130378070Y-164858928D01*
X130083092Y-165056026D01*
X129755331Y-165191789D01*
X129407384Y-165261000D01*
X129052616Y-165261000D01*
X128704669Y-165191789D01*
X128376908Y-165056026D01*
X128081930Y-164858928D01*
X127831072Y-164608070D01*
X127633974Y-164313092D01*
X127498211Y-163985331D01*
X127429000Y-163637384D01*
X127429000Y-163282616D01*
X127498211Y-162934669D01*
X127633974Y-162606908D01*
X127831072Y-162311930D01*
X128081930Y-162061072D01*
X128376908Y-161863974D01*
X128704669Y-161728211D01*
X129052616Y-161659000D01*
X129407384Y-161659000D01*
X129755331Y-161728211D01*
G37*
G36*
X146671512Y-162679927D02*
G01*
X146820812Y-162709624D01*
X146984784Y-162777544D01*
X147132354Y-162876147D01*
X147257853Y-163001646D01*
X147356456Y-163149216D01*
X147424376Y-163313188D01*
X147459000Y-163487259D01*
X147459000Y-163664741D01*
X147424376Y-163838812D01*
X147356456Y-164002784D01*
X147257853Y-164150354D01*
X147132354Y-164275853D01*
X146984784Y-164374456D01*
X146820812Y-164442376D01*
X146671512Y-164472073D01*
X146646742Y-164477000D01*
X146469258Y-164477000D01*
X146444488Y-164472073D01*
X146295188Y-164442376D01*
X146131216Y-164374456D01*
X145983646Y-164275853D01*
X145858147Y-164150354D01*
X145759544Y-164002784D01*
X145691624Y-163838812D01*
X145657000Y-163664741D01*
X145657000Y-163487259D01*
X145691624Y-163313188D01*
X145759544Y-163149216D01*
X145858147Y-163001646D01*
X145983646Y-162876147D01*
X146131216Y-162777544D01*
X146295188Y-162709624D01*
X146444488Y-162679927D01*
X146469258Y-162675000D01*
X146646742Y-162675000D01*
X146671512Y-162679927D01*
G37*
G36*
X144131512Y-162679927D02*
G01*
X144280812Y-162709624D01*
X144444784Y-162777544D01*
X144592354Y-162876147D01*
X144717853Y-163001646D01*
X144816456Y-163149216D01*
X144884376Y-163313188D01*
X144919000Y-163487259D01*
X144919000Y-163664741D01*
X144884376Y-163838812D01*
X144816456Y-164002784D01*
X144717853Y-164150354D01*
X144592354Y-164275853D01*
X144444784Y-164374456D01*
X144280812Y-164442376D01*
X144131512Y-164472073D01*
X144106742Y-164477000D01*
X143929258Y-164477000D01*
X143904488Y-164472073D01*
X143755188Y-164442376D01*
X143591216Y-164374456D01*
X143443646Y-164275853D01*
X143318147Y-164150354D01*
X143219544Y-164002784D01*
X143151624Y-163838812D01*
X143117000Y-163664741D01*
X143117000Y-163487259D01*
X143151624Y-163313188D01*
X143219544Y-163149216D01*
X143318147Y-163001646D01*
X143443646Y-162876147D01*
X143591216Y-162777544D01*
X143755188Y-162709624D01*
X143904488Y-162679927D01*
X143929258Y-162675000D01*
X144106742Y-162675000D01*
X144131512Y-162679927D01*
G37*
G36*
X99308228Y-161741703D02*
G01*
X99463100Y-161805853D01*
X99602481Y-161898985D01*
X99721015Y-162017519D01*
X99814147Y-162156900D01*
X99878297Y-162311772D01*
X99911000Y-162476184D01*
X99911000Y-162643816D01*
X99878297Y-162808228D01*
X99814147Y-162963100D01*
X99721015Y-163102481D01*
X99602481Y-163221015D01*
X99463100Y-163314147D01*
X99308228Y-163378297D01*
X99143816Y-163411000D01*
X98976184Y-163411000D01*
X98811772Y-163378297D01*
X98656900Y-163314147D01*
X98517519Y-163221015D01*
X98398985Y-163102481D01*
X98305853Y-162963100D01*
X98241703Y-162808228D01*
X98209000Y-162643816D01*
X98209000Y-162476184D01*
X98241703Y-162311772D01*
X98305853Y-162156900D01*
X98398985Y-162017519D01*
X98517519Y-161898985D01*
X98656900Y-161805853D01*
X98811772Y-161741703D01*
X98976184Y-161709000D01*
X99143816Y-161709000D01*
X99308228Y-161741703D01*
G37*
G36*
X106928228Y-161741703D02*
G01*
X107083100Y-161805853D01*
X107222481Y-161898985D01*
X107341015Y-162017519D01*
X107434147Y-162156900D01*
X107498297Y-162311772D01*
X107531000Y-162476184D01*
X107531000Y-162643816D01*
X107498297Y-162808228D01*
X107434147Y-162963100D01*
X107341015Y-163102481D01*
X107222481Y-163221015D01*
X107083100Y-163314147D01*
X106928228Y-163378297D01*
X106763816Y-163411000D01*
X106596184Y-163411000D01*
X106431772Y-163378297D01*
X106276900Y-163314147D01*
X106137519Y-163221015D01*
X106018985Y-163102481D01*
X105925853Y-162963100D01*
X105861703Y-162808228D01*
X105829000Y-162643816D01*
X105829000Y-162476184D01*
X105861703Y-162311772D01*
X105925853Y-162156900D01*
X106018985Y-162017519D01*
X106137519Y-161898985D01*
X106276900Y-161805853D01*
X106431772Y-161741703D01*
X106596184Y-161709000D01*
X106763816Y-161709000D01*
X106928228Y-161741703D01*
G37*
G36*
X144919000Y-161937000D02*
G01*
X143117000Y-161937000D01*
X143117000Y-160135000D01*
X144919000Y-160135000D01*
X144919000Y-161937000D01*
G37*
G36*
X146671512Y-160139927D02*
G01*
X146820812Y-160169624D01*
X146984784Y-160237544D01*
X147132354Y-160336147D01*
X147257853Y-160461646D01*
X147356456Y-160609216D01*
X147424376Y-160773188D01*
X147459000Y-160947259D01*
X147459000Y-161124741D01*
X147424376Y-161298812D01*
X147356456Y-161462784D01*
X147257853Y-161610354D01*
X147132354Y-161735853D01*
X146984784Y-161834456D01*
X146820812Y-161902376D01*
X146671512Y-161932073D01*
X146646742Y-161937000D01*
X146469258Y-161937000D01*
X146444488Y-161932073D01*
X146295188Y-161902376D01*
X146131216Y-161834456D01*
X145983646Y-161735853D01*
X145858147Y-161610354D01*
X145759544Y-161462784D01*
X145691624Y-161298812D01*
X145657000Y-161124741D01*
X145657000Y-160947259D01*
X145691624Y-160773188D01*
X145759544Y-160609216D01*
X145858147Y-160461646D01*
X145983646Y-160336147D01*
X146131216Y-160237544D01*
X146295188Y-160169624D01*
X146444488Y-160139927D01*
X146469258Y-160135000D01*
X146646742Y-160135000D01*
X146671512Y-160139927D01*
G37*
G36*
X122073512Y-157853927D02*
G01*
X122222812Y-157883624D01*
X122386784Y-157951544D01*
X122534354Y-158050147D01*
X122659853Y-158175646D01*
X122758456Y-158323216D01*
X122826376Y-158487188D01*
X122861000Y-158661259D01*
X122861000Y-158838741D01*
X122826376Y-159012812D01*
X122758456Y-159176784D01*
X122659853Y-159324354D01*
X122534354Y-159449853D01*
X122386784Y-159548456D01*
X122222812Y-159616376D01*
X122167362Y-159627405D01*
X122143922Y-159634516D01*
X122122311Y-159646067D01*
X122103369Y-159661613D01*
X122087824Y-159680555D01*
X122076273Y-159702165D01*
X122069160Y-159725614D01*
X122066758Y-159750000D01*
X122069160Y-159774387D01*
X122076273Y-159797835D01*
X122087824Y-159819446D01*
X122103370Y-159838388D01*
X122122312Y-159853933D01*
X122143922Y-159865484D01*
X122167362Y-159872595D01*
X122222812Y-159883624D01*
X122386784Y-159951544D01*
X122534354Y-160050147D01*
X122659853Y-160175646D01*
X122758456Y-160323216D01*
X122826376Y-160487188D01*
X122861000Y-160661259D01*
X122861000Y-160838741D01*
X122826376Y-161012812D01*
X122758456Y-161176784D01*
X122659853Y-161324354D01*
X122534354Y-161449853D01*
X122386784Y-161548456D01*
X122222812Y-161616376D01*
X122073512Y-161646073D01*
X122048742Y-161651000D01*
X121871258Y-161651000D01*
X121846488Y-161646073D01*
X121697188Y-161616376D01*
X121533216Y-161548456D01*
X121385646Y-161449853D01*
X121260147Y-161324354D01*
X121161544Y-161176784D01*
X121093624Y-161012812D01*
X121059000Y-160838741D01*
X121059000Y-160661259D01*
X121093624Y-160487188D01*
X121161544Y-160323216D01*
X121260147Y-160175646D01*
X121385646Y-160050147D01*
X121533216Y-159951544D01*
X121697188Y-159883624D01*
X121752638Y-159872595D01*
X121776078Y-159865484D01*
X121797689Y-159853933D01*
X121816631Y-159838387D01*
X121832176Y-159819445D01*
X121843727Y-159797835D01*
X121850840Y-159774386D01*
X121853242Y-159750000D01*
X121850840Y-159725613D01*
X121843727Y-159702165D01*
X121832176Y-159680554D01*
X121816630Y-159661612D01*
X121797688Y-159646067D01*
X121776078Y-159634516D01*
X121752638Y-159627405D01*
X121697188Y-159616376D01*
X121533216Y-159548456D01*
X121385646Y-159449853D01*
X121260147Y-159324354D01*
X121161544Y-159176784D01*
X121093624Y-159012812D01*
X121059000Y-158838741D01*
X121059000Y-158661259D01*
X121093624Y-158487188D01*
X121161544Y-158323216D01*
X121260147Y-158175646D01*
X121385646Y-158050147D01*
X121533216Y-157951544D01*
X121697188Y-157883624D01*
X121846488Y-157853927D01*
X121871258Y-157849000D01*
X122048742Y-157849000D01*
X122073512Y-157853927D01*
G37*
G36*
X125361000Y-159651000D02*
G01*
X124789617Y-159651000D01*
X124765231Y-159653402D01*
X124741782Y-159660515D01*
X124720171Y-159672066D01*
X124701229Y-159687611D01*
X124685684Y-159706553D01*
X124674133Y-159728164D01*
X124667020Y-159751613D01*
X124664618Y-159775999D01*
X124667020Y-159800385D01*
X124674133Y-159823834D01*
X124685684Y-159845445D01*
X124701229Y-159864387D01*
X124720171Y-159879932D01*
X124741771Y-159891477D01*
X124886784Y-159951544D01*
X125034354Y-160050147D01*
X125159853Y-160175646D01*
X125258456Y-160323216D01*
X125326376Y-160487188D01*
X125361000Y-160661259D01*
X125361000Y-160838741D01*
X125326376Y-161012812D01*
X125258456Y-161176784D01*
X125159853Y-161324354D01*
X125034354Y-161449853D01*
X124886784Y-161548456D01*
X124722812Y-161616376D01*
X124573512Y-161646073D01*
X124548742Y-161651000D01*
X124371258Y-161651000D01*
X124346488Y-161646073D01*
X124197188Y-161616376D01*
X124033216Y-161548456D01*
X123885646Y-161449853D01*
X123760147Y-161324354D01*
X123661544Y-161176784D01*
X123593624Y-161012812D01*
X123559000Y-160838741D01*
X123559000Y-160661259D01*
X123593624Y-160487188D01*
X123661544Y-160323216D01*
X123760147Y-160175646D01*
X123885646Y-160050147D01*
X124033216Y-159951544D01*
X124178229Y-159891477D01*
X124199829Y-159879932D01*
X124218771Y-159864387D01*
X124234316Y-159845445D01*
X124245867Y-159823834D01*
X124252980Y-159800385D01*
X124255382Y-159775999D01*
X124252980Y-159751613D01*
X124245867Y-159728164D01*
X124234316Y-159706553D01*
X124218771Y-159687611D01*
X124199829Y-159672066D01*
X124178218Y-159660515D01*
X124154769Y-159653402D01*
X124130383Y-159651000D01*
X123559000Y-159651000D01*
X123559000Y-157849000D01*
X125361000Y-157849000D01*
X125361000Y-159651000D01*
G37*
G36*
X99911000Y-160871000D02*
G01*
X98209000Y-160871000D01*
X98209000Y-159169000D01*
X99911000Y-159169000D01*
X99911000Y-160871000D01*
G37*
G36*
X106928228Y-159201703D02*
G01*
X107083100Y-159265853D01*
X107222481Y-159358985D01*
X107341015Y-159477519D01*
X107434147Y-159616900D01*
X107498297Y-159771772D01*
X107531000Y-159936184D01*
X107531000Y-160103816D01*
X107498297Y-160268228D01*
X107434147Y-160423100D01*
X107341015Y-160562481D01*
X107222481Y-160681015D01*
X107083100Y-160774147D01*
X106928228Y-160838297D01*
X106763816Y-160871000D01*
X106596184Y-160871000D01*
X106431772Y-160838297D01*
X106276900Y-160774147D01*
X106137519Y-160681015D01*
X106018985Y-160562481D01*
X105925853Y-160423100D01*
X105861703Y-160268228D01*
X105829000Y-160103816D01*
X105829000Y-159936184D01*
X105861703Y-159771772D01*
X105925853Y-159616900D01*
X106018985Y-159477519D01*
X106137519Y-159358985D01*
X106276900Y-159265853D01*
X106431772Y-159201703D01*
X106596184Y-159169000D01*
X106763816Y-159169000D01*
X106928228Y-159201703D01*
G37*
G36*
X100607395Y-142468546D02*
G01*
X100780466Y-142540234D01*
X100780467Y-142540235D01*
X100936227Y-142644310D01*
X101068690Y-142776773D01*
X101068691Y-142776775D01*
X101172766Y-142932534D01*
X101244454Y-143105605D01*
X101281000Y-143289333D01*
X101281000Y-143476667D01*
X101244454Y-143660395D01*
X101172766Y-143833466D01*
X101172765Y-143833467D01*
X101068690Y-143989227D01*
X100936227Y-144121690D01*
X100857818Y-144174081D01*
X100780466Y-144225766D01*
X100607395Y-144297454D01*
X100423667Y-144334000D01*
X100236333Y-144334000D01*
X100052605Y-144297454D01*
X99879534Y-144225766D01*
X99802182Y-144174081D01*
X99723773Y-144121690D01*
X99591310Y-143989227D01*
X99487235Y-143833467D01*
X99487234Y-143833466D01*
X99415546Y-143660395D01*
X99379000Y-143476667D01*
X99379000Y-143289333D01*
X99415546Y-143105605D01*
X99487234Y-142932534D01*
X99591309Y-142776775D01*
X99591310Y-142776773D01*
X99723773Y-142644310D01*
X99879533Y-142540235D01*
X99879534Y-142540234D01*
X100052605Y-142468546D01*
X100236333Y-142432000D01*
X100423667Y-142432000D01*
X100607395Y-142468546D01*
G37*
G36*
X145250000Y-142329000D02*
G01*
X143548000Y-142329000D01*
X143548000Y-140627000D01*
X145250000Y-140627000D01*
X145250000Y-142329000D01*
G37*
G36*
X147147228Y-140659703D02*
G01*
X147302100Y-140723853D01*
X147441481Y-140816985D01*
X147560015Y-140935519D01*
X147653147Y-141074900D01*
X147717297Y-141229772D01*
X147750000Y-141394184D01*
X147750000Y-141561816D01*
X147717297Y-141726228D01*
X147653147Y-141881100D01*
X147560015Y-142020481D01*
X147441481Y-142139015D01*
X147302100Y-142232147D01*
X147147228Y-142296297D01*
X146982816Y-142329000D01*
X146815184Y-142329000D01*
X146650772Y-142296297D01*
X146495900Y-142232147D01*
X146356519Y-142139015D01*
X146237985Y-142020481D01*
X146144853Y-141881100D01*
X146080703Y-141726228D01*
X146048000Y-141561816D01*
X146048000Y-141394184D01*
X146080703Y-141229772D01*
X146144853Y-141074900D01*
X146237985Y-140935519D01*
X146356519Y-140816985D01*
X146495900Y-140723853D01*
X146650772Y-140659703D01*
X146815184Y-140627000D01*
X146982816Y-140627000D01*
X147147228Y-140659703D01*
G37*
G36*
X101281000Y-141794000D02*
G01*
X99379000Y-141794000D01*
X99379000Y-139892000D01*
X101281000Y-139892000D01*
X101281000Y-141794000D01*
G37*
G36*
X145250000Y-136487000D02*
G01*
X143548000Y-136487000D01*
X143548000Y-134785000D01*
X145250000Y-134785000D01*
X145250000Y-136487000D01*
G37*
G36*
X147147228Y-134817703D02*
G01*
X147302100Y-134881853D01*
X147441481Y-134974985D01*
X147560015Y-135093519D01*
X147653147Y-135232900D01*
X147717297Y-135387772D01*
X147750000Y-135552184D01*
X147750000Y-135719816D01*
X147717297Y-135884228D01*
X147653147Y-136039100D01*
X147560015Y-136178481D01*
X147441481Y-136297015D01*
X147302100Y-136390147D01*
X147147228Y-136454297D01*
X146982816Y-136487000D01*
X146815184Y-136487000D01*
X146650772Y-136454297D01*
X146495900Y-136390147D01*
X146356519Y-136297015D01*
X146237985Y-136178481D01*
X146144853Y-136039100D01*
X146080703Y-135884228D01*
X146048000Y-135719816D01*
X146048000Y-135552184D01*
X146080703Y-135387772D01*
X146144853Y-135232900D01*
X146237985Y-135093519D01*
X146356519Y-134974985D01*
X146495900Y-134881853D01*
X146650772Y-134817703D01*
X146815184Y-134785000D01*
X146982816Y-134785000D01*
X147147228Y-134817703D01*
G37*
G36*
X126385187Y-132446123D02*
G01*
X126556255Y-132516982D01*
X126556257Y-132516983D01*
X126633758Y-132568768D01*
X126710214Y-132619854D01*
X126841146Y-132750786D01*
X126944018Y-132904745D01*
X127014877Y-133075813D01*
X127051000Y-133257417D01*
X127051000Y-133442583D01*
X127014877Y-133624187D01*
X126944018Y-133795255D01*
X126944017Y-133795257D01*
X126841145Y-133949215D01*
X126710215Y-134080145D01*
X126556257Y-134183017D01*
X126556256Y-134183018D01*
X126556255Y-134183018D01*
X126385187Y-134253877D01*
X126203583Y-134290000D01*
X126018417Y-134290000D01*
X125836813Y-134253877D01*
X125665745Y-134183018D01*
X125665744Y-134183018D01*
X125665743Y-134183017D01*
X125511785Y-134080145D01*
X125380855Y-133949215D01*
X125277983Y-133795257D01*
X125277982Y-133795255D01*
X125207123Y-133624187D01*
X125171000Y-133442583D01*
X125171000Y-133257417D01*
X125207123Y-133075813D01*
X125277982Y-132904745D01*
X125380854Y-132750786D01*
X125511786Y-132619854D01*
X125588242Y-132568768D01*
X125665743Y-132516983D01*
X125665745Y-132516982D01*
X125836813Y-132446123D01*
X126018417Y-132410000D01*
X126203583Y-132410000D01*
X126385187Y-132446123D01*
G37*
G36*
X113685187Y-132446123D02*
G01*
X113856255Y-132516982D01*
X113856257Y-132516983D01*
X113933758Y-132568768D01*
X114010214Y-132619854D01*
X114141146Y-132750786D01*
X114244018Y-132904745D01*
X114314877Y-133075813D01*
X114351000Y-133257417D01*
X114351000Y-133442583D01*
X114314877Y-133624187D01*
X114244018Y-133795255D01*
X114244017Y-133795257D01*
X114141145Y-133949215D01*
X114010215Y-134080145D01*
X113856257Y-134183017D01*
X113856256Y-134183018D01*
X113856255Y-134183018D01*
X113685187Y-134253877D01*
X113503583Y-134290000D01*
X113318417Y-134290000D01*
X113136813Y-134253877D01*
X112965745Y-134183018D01*
X112965744Y-134183018D01*
X112965743Y-134183017D01*
X112811785Y-134080145D01*
X112680855Y-133949215D01*
X112577983Y-133795257D01*
X112577982Y-133795255D01*
X112507123Y-133624187D01*
X112471000Y-133442583D01*
X112471000Y-133257417D01*
X112507123Y-133075813D01*
X112577982Y-132904745D01*
X112680854Y-132750786D01*
X112811786Y-132619854D01*
X112888242Y-132568768D01*
X112965743Y-132516983D01*
X112965745Y-132516982D01*
X113136813Y-132446123D01*
X113318417Y-132410000D01*
X113503583Y-132410000D01*
X113685187Y-132446123D01*
G37*
G36*
X128925187Y-132446123D02*
G01*
X129096255Y-132516982D01*
X129096257Y-132516983D01*
X129173758Y-132568768D01*
X129250214Y-132619854D01*
X129381146Y-132750786D01*
X129484018Y-132904745D01*
X129554877Y-133075813D01*
X129591000Y-133257417D01*
X129591000Y-133442583D01*
X129554877Y-133624187D01*
X129484018Y-133795255D01*
X129484017Y-133795257D01*
X129381145Y-133949215D01*
X129250215Y-134080145D01*
X129096257Y-134183017D01*
X129096256Y-134183018D01*
X129096255Y-134183018D01*
X128925187Y-134253877D01*
X128743583Y-134290000D01*
X128558417Y-134290000D01*
X128376813Y-134253877D01*
X128205745Y-134183018D01*
X128205744Y-134183018D01*
X128205743Y-134183017D01*
X128051785Y-134080145D01*
X127920855Y-133949215D01*
X127817983Y-133795257D01*
X127817982Y-133795255D01*
X127747123Y-133624187D01*
X127711000Y-133442583D01*
X127711000Y-133257417D01*
X127747123Y-133075813D01*
X127817982Y-132904745D01*
X127920854Y-132750786D01*
X128051786Y-132619854D01*
X128128242Y-132568768D01*
X128205743Y-132516983D01*
X128205745Y-132516982D01*
X128376813Y-132446123D01*
X128558417Y-132410000D01*
X128743583Y-132410000D01*
X128925187Y-132446123D01*
G37*
G36*
X123845187Y-132446123D02*
G01*
X124016255Y-132516982D01*
X124016257Y-132516983D01*
X124093758Y-132568768D01*
X124170214Y-132619854D01*
X124301146Y-132750786D01*
X124404018Y-132904745D01*
X124474877Y-133075813D01*
X124511000Y-133257417D01*
X124511000Y-133442583D01*
X124474877Y-133624187D01*
X124404018Y-133795255D01*
X124404017Y-133795257D01*
X124301145Y-133949215D01*
X124170215Y-134080145D01*
X124016257Y-134183017D01*
X124016256Y-134183018D01*
X124016255Y-134183018D01*
X123845187Y-134253877D01*
X123663583Y-134290000D01*
X123478417Y-134290000D01*
X123296813Y-134253877D01*
X123125745Y-134183018D01*
X123125744Y-134183018D01*
X123125743Y-134183017D01*
X122971785Y-134080145D01*
X122840855Y-133949215D01*
X122737983Y-133795257D01*
X122737982Y-133795255D01*
X122667123Y-133624187D01*
X122631000Y-133442583D01*
X122631000Y-133257417D01*
X122667123Y-133075813D01*
X122737982Y-132904745D01*
X122840854Y-132750786D01*
X122971786Y-132619854D01*
X123048242Y-132568768D01*
X123125743Y-132516983D01*
X123125745Y-132516982D01*
X123296813Y-132446123D01*
X123478417Y-132410000D01*
X123663583Y-132410000D01*
X123845187Y-132446123D01*
G37*
G36*
X118765187Y-132446123D02*
G01*
X118936255Y-132516982D01*
X118936257Y-132516983D01*
X119013758Y-132568768D01*
X119090214Y-132619854D01*
X119221146Y-132750786D01*
X119324018Y-132904745D01*
X119394877Y-133075813D01*
X119431000Y-133257417D01*
X119431000Y-133442583D01*
X119394877Y-133624187D01*
X119324018Y-133795255D01*
X119324017Y-133795257D01*
X119221145Y-133949215D01*
X119090215Y-134080145D01*
X118936257Y-134183017D01*
X118936256Y-134183018D01*
X118936255Y-134183018D01*
X118765187Y-134253877D01*
X118583583Y-134290000D01*
X118398417Y-134290000D01*
X118216813Y-134253877D01*
X118045745Y-134183018D01*
X118045744Y-134183018D01*
X118045743Y-134183017D01*
X117891785Y-134080145D01*
X117760855Y-133949215D01*
X117657983Y-133795257D01*
X117657982Y-133795255D01*
X117587123Y-133624187D01*
X117551000Y-133442583D01*
X117551000Y-133257417D01*
X117587123Y-133075813D01*
X117657982Y-132904745D01*
X117760854Y-132750786D01*
X117891786Y-132619854D01*
X117968242Y-132568768D01*
X118045743Y-132516983D01*
X118045745Y-132516982D01*
X118216813Y-132446123D01*
X118398417Y-132410000D01*
X118583583Y-132410000D01*
X118765187Y-132446123D01*
G37*
G36*
X116225187Y-132446123D02*
G01*
X116396255Y-132516982D01*
X116396257Y-132516983D01*
X116473758Y-132568768D01*
X116550214Y-132619854D01*
X116681146Y-132750786D01*
X116784018Y-132904745D01*
X116854877Y-133075813D01*
X116891000Y-133257417D01*
X116891000Y-133442583D01*
X116854877Y-133624187D01*
X116784018Y-133795255D01*
X116784017Y-133795257D01*
X116681145Y-133949215D01*
X116550215Y-134080145D01*
X116396257Y-134183017D01*
X116396256Y-134183018D01*
X116396255Y-134183018D01*
X116225187Y-134253877D01*
X116043583Y-134290000D01*
X115858417Y-134290000D01*
X115676813Y-134253877D01*
X115505745Y-134183018D01*
X115505744Y-134183018D01*
X115505743Y-134183017D01*
X115351785Y-134080145D01*
X115220855Y-133949215D01*
X115117983Y-133795257D01*
X115117982Y-133795255D01*
X115047123Y-133624187D01*
X115011000Y-133442583D01*
X115011000Y-133257417D01*
X115047123Y-133075813D01*
X115117982Y-132904745D01*
X115220854Y-132750786D01*
X115351786Y-132619854D01*
X115428242Y-132568768D01*
X115505743Y-132516983D01*
X115505745Y-132516982D01*
X115676813Y-132446123D01*
X115858417Y-132410000D01*
X116043583Y-132410000D01*
X116225187Y-132446123D01*
G37*
G36*
X131465187Y-132446123D02*
G01*
X131636255Y-132516982D01*
X131636257Y-132516983D01*
X131713758Y-132568768D01*
X131790214Y-132619854D01*
X131921146Y-132750786D01*
X132024018Y-132904745D01*
X132094877Y-133075813D01*
X132131000Y-133257417D01*
X132131000Y-133442583D01*
X132094877Y-133624187D01*
X132024018Y-133795255D01*
X132024017Y-133795257D01*
X131921145Y-133949215D01*
X131790215Y-134080145D01*
X131636257Y-134183017D01*
X131636256Y-134183018D01*
X131636255Y-134183018D01*
X131465187Y-134253877D01*
X131283583Y-134290000D01*
X131098417Y-134290000D01*
X130916813Y-134253877D01*
X130745745Y-134183018D01*
X130745744Y-134183018D01*
X130745743Y-134183017D01*
X130591785Y-134080145D01*
X130460855Y-133949215D01*
X130357983Y-133795257D01*
X130357982Y-133795255D01*
X130287123Y-133624187D01*
X130251000Y-133442583D01*
X130251000Y-133257417D01*
X130287123Y-133075813D01*
X130357982Y-132904745D01*
X130460854Y-132750786D01*
X130591786Y-132619854D01*
X130668242Y-132568768D01*
X130745743Y-132516983D01*
X130745745Y-132516982D01*
X130916813Y-132446123D01*
X131098417Y-132410000D01*
X131283583Y-132410000D01*
X131465187Y-132446123D01*
G37*
G36*
X121305187Y-132446123D02*
G01*
X121476255Y-132516982D01*
X121476257Y-132516983D01*
X121553758Y-132568768D01*
X121630214Y-132619854D01*
X121761146Y-132750786D01*
X121864018Y-132904745D01*
X121934877Y-133075813D01*
X121971000Y-133257417D01*
X121971000Y-133442583D01*
X121934877Y-133624187D01*
X121864018Y-133795255D01*
X121864017Y-133795257D01*
X121761145Y-133949215D01*
X121630215Y-134080145D01*
X121476257Y-134183017D01*
X121476256Y-134183018D01*
X121476255Y-134183018D01*
X121305187Y-134253877D01*
X121123583Y-134290000D01*
X120938417Y-134290000D01*
X120756813Y-134253877D01*
X120585745Y-134183018D01*
X120585744Y-134183018D01*
X120585743Y-134183017D01*
X120431785Y-134080145D01*
X120300855Y-133949215D01*
X120197983Y-133795257D01*
X120197982Y-133795255D01*
X120127123Y-133624187D01*
X120091000Y-133442583D01*
X120091000Y-133257417D01*
X120127123Y-133075813D01*
X120197982Y-132904745D01*
X120300854Y-132750786D01*
X120431786Y-132619854D01*
X120508242Y-132568768D01*
X120585743Y-132516983D01*
X120585745Y-132516982D01*
X120756813Y-132446123D01*
X120938417Y-132410000D01*
X121123583Y-132410000D01*
X121305187Y-132446123D01*
G37*
G36*
X106293228Y-127451703D02*
G01*
X106448100Y-127515853D01*
X106587481Y-127608985D01*
X106706015Y-127727519D01*
X106799147Y-127866900D01*
X106863297Y-128021772D01*
X106896000Y-128186184D01*
X106896000Y-128353816D01*
X106863297Y-128518228D01*
X106799147Y-128673100D01*
X106706015Y-128812481D01*
X106587481Y-128931015D01*
X106448100Y-129024147D01*
X106293228Y-129088297D01*
X106128816Y-129121000D01*
X105961184Y-129121000D01*
X105796772Y-129088297D01*
X105641900Y-129024147D01*
X105502519Y-128931015D01*
X105383985Y-128812481D01*
X105290853Y-128673100D01*
X105226703Y-128518228D01*
X105194000Y-128353816D01*
X105194000Y-128186184D01*
X105226703Y-128021772D01*
X105290853Y-127866900D01*
X105383985Y-127727519D01*
X105502519Y-127608985D01*
X105641900Y-127515853D01*
X105796772Y-127451703D01*
X105961184Y-127419000D01*
X106128816Y-127419000D01*
X106293228Y-127451703D01*
G37*
G36*
X99943228Y-127451703D02*
G01*
X100098100Y-127515853D01*
X100237481Y-127608985D01*
X100356015Y-127727519D01*
X100449147Y-127866900D01*
X100513297Y-128021772D01*
X100546000Y-128186184D01*
X100546000Y-128353816D01*
X100513297Y-128518228D01*
X100449147Y-128673100D01*
X100356015Y-128812481D01*
X100237481Y-128931015D01*
X100098100Y-129024147D01*
X99943228Y-129088297D01*
X99778816Y-129121000D01*
X99611184Y-129121000D01*
X99446772Y-129088297D01*
X99291900Y-129024147D01*
X99152519Y-128931015D01*
X99033985Y-128812481D01*
X98940853Y-128673100D01*
X98876703Y-128518228D01*
X98844000Y-128353816D01*
X98844000Y-128186184D01*
X98876703Y-128021772D01*
X98940853Y-127866900D01*
X99033985Y-127727519D01*
X99152519Y-127608985D01*
X99291900Y-127515853D01*
X99446772Y-127451703D01*
X99611184Y-127419000D01*
X99778816Y-127419000D01*
X99943228Y-127451703D01*
G37*
G36*
X103118228Y-127451703D02*
G01*
X103273100Y-127515853D01*
X103412481Y-127608985D01*
X103531015Y-127727519D01*
X103624147Y-127866900D01*
X103688297Y-128021772D01*
X103721000Y-128186184D01*
X103721000Y-128353816D01*
X103688297Y-128518228D01*
X103624147Y-128673100D01*
X103531015Y-128812481D01*
X103412481Y-128931015D01*
X103273100Y-129024147D01*
X103118228Y-129088297D01*
X102953816Y-129121000D01*
X102786184Y-129121000D01*
X102621772Y-129088297D01*
X102466900Y-129024147D01*
X102327519Y-128931015D01*
X102208985Y-128812481D01*
X102115853Y-128673100D01*
X102051703Y-128518228D01*
X102019000Y-128353816D01*
X102019000Y-128186184D01*
X102051703Y-128021772D01*
X102115853Y-127866900D01*
X102208985Y-127727519D01*
X102327519Y-127608985D01*
X102466900Y-127515853D01*
X102621772Y-127451703D01*
X102786184Y-127419000D01*
X102953816Y-127419000D01*
X103118228Y-127451703D01*
G37*
G36*
X109468228Y-127451703D02*
G01*
X109623100Y-127515853D01*
X109762481Y-127608985D01*
X109881015Y-127727519D01*
X109974147Y-127866900D01*
X110038297Y-128021772D01*
X110071000Y-128186184D01*
X110071000Y-128353816D01*
X110038297Y-128518228D01*
X109974147Y-128673100D01*
X109881015Y-128812481D01*
X109762481Y-128931015D01*
X109623100Y-129024147D01*
X109468228Y-129088297D01*
X109303816Y-129121000D01*
X109136184Y-129121000D01*
X108971772Y-129088297D01*
X108816900Y-129024147D01*
X108677519Y-128931015D01*
X108558985Y-128812481D01*
X108465853Y-128673100D01*
X108401703Y-128518228D01*
X108369000Y-128353816D01*
X108369000Y-128186184D01*
X108401703Y-128021772D01*
X108465853Y-127866900D01*
X108558985Y-127727519D01*
X108677519Y-127608985D01*
X108816900Y-127515853D01*
X108971772Y-127451703D01*
X109136184Y-127419000D01*
X109303816Y-127419000D01*
X109468228Y-127451703D01*
G37*
G36*
X148221000Y-125361000D02*
G01*
X146419000Y-125361000D01*
X146419000Y-123559000D01*
X148221000Y-123559000D01*
X148221000Y-125361000D01*
G37*
G36*
X147433512Y-121023927D02*
G01*
X147582812Y-121053624D01*
X147746784Y-121121544D01*
X147894354Y-121220147D01*
X148019853Y-121345646D01*
X148118456Y-121493216D01*
X148186376Y-121657188D01*
X148221000Y-121831259D01*
X148221000Y-122008741D01*
X148186376Y-122182812D01*
X148118456Y-122346784D01*
X148019853Y-122494354D01*
X147894354Y-122619853D01*
X147746784Y-122718456D01*
X147582812Y-122786376D01*
X147433512Y-122816073D01*
X147408742Y-122821000D01*
X147231258Y-122821000D01*
X147206488Y-122816073D01*
X147057188Y-122786376D01*
X146893216Y-122718456D01*
X146745646Y-122619853D01*
X146620147Y-122494354D01*
X146521544Y-122346784D01*
X146453624Y-122182812D01*
X146419000Y-122008741D01*
X146419000Y-121831259D01*
X146453624Y-121657188D01*
X146521544Y-121493216D01*
X146620147Y-121345646D01*
X146745646Y-121220147D01*
X146893216Y-121121544D01*
X147057188Y-121053624D01*
X147206488Y-121023927D01*
X147231258Y-121019000D01*
X147408742Y-121019000D01*
X147433512Y-121023927D01*
G37*
G36*
X103118228Y-117291703D02*
G01*
X103273100Y-117355853D01*
X103412481Y-117448985D01*
X103531015Y-117567519D01*
X103624147Y-117706900D01*
X103688297Y-117861772D01*
X103721000Y-118026184D01*
X103721000Y-118193816D01*
X103688297Y-118358228D01*
X103624147Y-118513100D01*
X103531015Y-118652481D01*
X103412481Y-118771015D01*
X103273100Y-118864147D01*
X103118228Y-118928297D01*
X102953816Y-118961000D01*
X102786184Y-118961000D01*
X102621772Y-118928297D01*
X102466900Y-118864147D01*
X102327519Y-118771015D01*
X102208985Y-118652481D01*
X102115853Y-118513100D01*
X102051703Y-118358228D01*
X102019000Y-118193816D01*
X102019000Y-118026184D01*
X102051703Y-117861772D01*
X102115853Y-117706900D01*
X102208985Y-117567519D01*
X102327519Y-117448985D01*
X102466900Y-117355853D01*
X102621772Y-117291703D01*
X102786184Y-117259000D01*
X102953816Y-117259000D01*
X103118228Y-117291703D01*
G37*
G36*
X99943228Y-117291703D02*
G01*
X100098100Y-117355853D01*
X100237481Y-117448985D01*
X100356015Y-117567519D01*
X100449147Y-117706900D01*
X100513297Y-117861772D01*
X100546000Y-118026184D01*
X100546000Y-118193816D01*
X100513297Y-118358228D01*
X100449147Y-118513100D01*
X100356015Y-118652481D01*
X100237481Y-118771015D01*
X100098100Y-118864147D01*
X99943228Y-118928297D01*
X99778816Y-118961000D01*
X99611184Y-118961000D01*
X99446772Y-118928297D01*
X99291900Y-118864147D01*
X99152519Y-118771015D01*
X99033985Y-118652481D01*
X98940853Y-118513100D01*
X98876703Y-118358228D01*
X98844000Y-118193816D01*
X98844000Y-118026184D01*
X98876703Y-117861772D01*
X98940853Y-117706900D01*
X99033985Y-117567519D01*
X99152519Y-117448985D01*
X99291900Y-117355853D01*
X99446772Y-117291703D01*
X99611184Y-117259000D01*
X99778816Y-117259000D01*
X99943228Y-117291703D01*
G37*
G36*
X109468228Y-117291703D02*
G01*
X109623100Y-117355853D01*
X109762481Y-117448985D01*
X109881015Y-117567519D01*
X109974147Y-117706900D01*
X110038297Y-117861772D01*
X110071000Y-118026184D01*
X110071000Y-118193816D01*
X110038297Y-118358228D01*
X109974147Y-118513100D01*
X109881015Y-118652481D01*
X109762481Y-118771015D01*
X109623100Y-118864147D01*
X109468228Y-118928297D01*
X109303816Y-118961000D01*
X109136184Y-118961000D01*
X108971772Y-118928297D01*
X108816900Y-118864147D01*
X108677519Y-118771015D01*
X108558985Y-118652481D01*
X108465853Y-118513100D01*
X108401703Y-118358228D01*
X108369000Y-118193816D01*
X108369000Y-118026184D01*
X108401703Y-117861772D01*
X108465853Y-117706900D01*
X108558985Y-117567519D01*
X108677519Y-117448985D01*
X108816900Y-117355853D01*
X108971772Y-117291703D01*
X109136184Y-117259000D01*
X109303816Y-117259000D01*
X109468228Y-117291703D01*
G37*
G36*
X106293228Y-117291703D02*
G01*
X106448100Y-117355853D01*
X106587481Y-117448985D01*
X106706015Y-117567519D01*
X106799147Y-117706900D01*
X106863297Y-117861772D01*
X106896000Y-118026184D01*
X106896000Y-118193816D01*
X106863297Y-118358228D01*
X106799147Y-118513100D01*
X106706015Y-118652481D01*
X106587481Y-118771015D01*
X106448100Y-118864147D01*
X106293228Y-118928297D01*
X106128816Y-118961000D01*
X105961184Y-118961000D01*
X105796772Y-118928297D01*
X105641900Y-118864147D01*
X105502519Y-118771015D01*
X105383985Y-118652481D01*
X105290853Y-118513100D01*
X105226703Y-118358228D01*
X105194000Y-118193816D01*
X105194000Y-118026184D01*
X105226703Y-117861772D01*
X105290853Y-117706900D01*
X105383985Y-117567519D01*
X105502519Y-117448985D01*
X105641900Y-117355853D01*
X105796772Y-117291703D01*
X105961184Y-117259000D01*
X106128816Y-117259000D01*
X106293228Y-117291703D01*
G37*
G36*
X116225187Y-114666123D02*
G01*
X116396255Y-114736982D01*
X116396257Y-114736983D01*
X116473758Y-114788768D01*
X116550214Y-114839854D01*
X116681146Y-114970786D01*
X116784018Y-115124745D01*
X116854877Y-115295813D01*
X116891000Y-115477417D01*
X116891000Y-115662583D01*
X116854877Y-115844187D01*
X116784018Y-116015255D01*
X116784017Y-116015257D01*
X116681145Y-116169215D01*
X116550215Y-116300145D01*
X116396257Y-116403017D01*
X116396256Y-116403018D01*
X116396255Y-116403018D01*
X116225187Y-116473877D01*
X116043583Y-116510000D01*
X115858417Y-116510000D01*
X115676813Y-116473877D01*
X115505745Y-116403018D01*
X115505744Y-116403018D01*
X115505743Y-116403017D01*
X115351785Y-116300145D01*
X115220855Y-116169215D01*
X115117983Y-116015257D01*
X115117982Y-116015255D01*
X115047123Y-115844187D01*
X115011000Y-115662583D01*
X115011000Y-115477417D01*
X115047123Y-115295813D01*
X115117982Y-115124745D01*
X115220854Y-114970786D01*
X115351786Y-114839854D01*
X115428242Y-114788768D01*
X115505743Y-114736983D01*
X115505745Y-114736982D01*
X115676813Y-114666123D01*
X115858417Y-114630000D01*
X116043583Y-114630000D01*
X116225187Y-114666123D01*
G37*
G36*
X118765187Y-114666123D02*
G01*
X118936255Y-114736982D01*
X118936257Y-114736983D01*
X119013758Y-114788768D01*
X119090214Y-114839854D01*
X119221146Y-114970786D01*
X119324018Y-115124745D01*
X119394877Y-115295813D01*
X119431000Y-115477417D01*
X119431000Y-115662583D01*
X119394877Y-115844187D01*
X119324018Y-116015255D01*
X119324017Y-116015257D01*
X119221145Y-116169215D01*
X119090215Y-116300145D01*
X118936257Y-116403017D01*
X118936256Y-116403018D01*
X118936255Y-116403018D01*
X118765187Y-116473877D01*
X118583583Y-116510000D01*
X118398417Y-116510000D01*
X118216813Y-116473877D01*
X118045745Y-116403018D01*
X118045744Y-116403018D01*
X118045743Y-116403017D01*
X117891785Y-116300145D01*
X117760855Y-116169215D01*
X117657983Y-116015257D01*
X117657982Y-116015255D01*
X117587123Y-115844187D01*
X117551000Y-115662583D01*
X117551000Y-115477417D01*
X117587123Y-115295813D01*
X117657982Y-115124745D01*
X117760854Y-114970786D01*
X117891786Y-114839854D01*
X117968242Y-114788768D01*
X118045743Y-114736983D01*
X118045745Y-114736982D01*
X118216813Y-114666123D01*
X118398417Y-114630000D01*
X118583583Y-114630000D01*
X118765187Y-114666123D01*
G37*
G36*
X121305187Y-114666123D02*
G01*
X121476255Y-114736982D01*
X121476257Y-114736983D01*
X121553758Y-114788768D01*
X121630214Y-114839854D01*
X121761146Y-114970786D01*
X121864018Y-115124745D01*
X121934877Y-115295813D01*
X121971000Y-115477417D01*
X121971000Y-115662583D01*
X121934877Y-115844187D01*
X121864018Y-116015255D01*
X121864017Y-116015257D01*
X121761145Y-116169215D01*
X121630215Y-116300145D01*
X121476257Y-116403017D01*
X121476256Y-116403018D01*
X121476255Y-116403018D01*
X121305187Y-116473877D01*
X121123583Y-116510000D01*
X120938417Y-116510000D01*
X120756813Y-116473877D01*
X120585745Y-116403018D01*
X120585744Y-116403018D01*
X120585743Y-116403017D01*
X120431785Y-116300145D01*
X120300855Y-116169215D01*
X120197983Y-116015257D01*
X120197982Y-116015255D01*
X120127123Y-115844187D01*
X120091000Y-115662583D01*
X120091000Y-115477417D01*
X120127123Y-115295813D01*
X120197982Y-115124745D01*
X120300854Y-114970786D01*
X120431786Y-114839854D01*
X120508242Y-114788768D01*
X120585743Y-114736983D01*
X120585745Y-114736982D01*
X120756813Y-114666123D01*
X120938417Y-114630000D01*
X121123583Y-114630000D01*
X121305187Y-114666123D01*
G37*
G36*
X123845187Y-114666123D02*
G01*
X124016255Y-114736982D01*
X124016257Y-114736983D01*
X124093758Y-114788768D01*
X124170214Y-114839854D01*
X124301146Y-114970786D01*
X124404018Y-115124745D01*
X124474877Y-115295813D01*
X124511000Y-115477417D01*
X124511000Y-115662583D01*
X124474877Y-115844187D01*
X124404018Y-116015255D01*
X124404017Y-116015257D01*
X124301145Y-116169215D01*
X124170215Y-116300145D01*
X124016257Y-116403017D01*
X124016256Y-116403018D01*
X124016255Y-116403018D01*
X123845187Y-116473877D01*
X123663583Y-116510000D01*
X123478417Y-116510000D01*
X123296813Y-116473877D01*
X123125745Y-116403018D01*
X123125744Y-116403018D01*
X123125743Y-116403017D01*
X122971785Y-116300145D01*
X122840855Y-116169215D01*
X122737983Y-116015257D01*
X122737982Y-116015255D01*
X122667123Y-115844187D01*
X122631000Y-115662583D01*
X122631000Y-115477417D01*
X122667123Y-115295813D01*
X122737982Y-115124745D01*
X122840854Y-114970786D01*
X122971786Y-114839854D01*
X123048242Y-114788768D01*
X123125743Y-114736983D01*
X123125745Y-114736982D01*
X123296813Y-114666123D01*
X123478417Y-114630000D01*
X123663583Y-114630000D01*
X123845187Y-114666123D01*
G37*
G36*
X126385187Y-114666123D02*
G01*
X126556255Y-114736982D01*
X126556257Y-114736983D01*
X126633758Y-114788768D01*
X126710214Y-114839854D01*
X126841146Y-114970786D01*
X126944018Y-115124745D01*
X127014877Y-115295813D01*
X127051000Y-115477417D01*
X127051000Y-115662583D01*
X127014877Y-115844187D01*
X126944018Y-116015255D01*
X126944017Y-116015257D01*
X126841145Y-116169215D01*
X126710215Y-116300145D01*
X126556257Y-116403017D01*
X126556256Y-116403018D01*
X126556255Y-116403018D01*
X126385187Y-116473877D01*
X126203583Y-116510000D01*
X126018417Y-116510000D01*
X125836813Y-116473877D01*
X125665745Y-116403018D01*
X125665744Y-116403018D01*
X125665743Y-116403017D01*
X125511785Y-116300145D01*
X125380855Y-116169215D01*
X125277983Y-116015257D01*
X125277982Y-116015255D01*
X125207123Y-115844187D01*
X125171000Y-115662583D01*
X125171000Y-115477417D01*
X125207123Y-115295813D01*
X125277982Y-115124745D01*
X125380854Y-114970786D01*
X125511786Y-114839854D01*
X125588242Y-114788768D01*
X125665743Y-114736983D01*
X125665745Y-114736982D01*
X125836813Y-114666123D01*
X126018417Y-114630000D01*
X126203583Y-114630000D01*
X126385187Y-114666123D01*
G37*
G36*
X128925187Y-114666123D02*
G01*
X129096255Y-114736982D01*
X129096257Y-114736983D01*
X129173758Y-114788768D01*
X129250214Y-114839854D01*
X129381146Y-114970786D01*
X129484018Y-115124745D01*
X129554877Y-115295813D01*
X129591000Y-115477417D01*
X129591000Y-115662583D01*
X129554877Y-115844187D01*
X129484018Y-116015255D01*
X129484017Y-116015257D01*
X129381145Y-116169215D01*
X129250215Y-116300145D01*
X129096257Y-116403017D01*
X129096256Y-116403018D01*
X129096255Y-116403018D01*
X128925187Y-116473877D01*
X128743583Y-116510000D01*
X128558417Y-116510000D01*
X128376813Y-116473877D01*
X128205745Y-116403018D01*
X128205744Y-116403018D01*
X128205743Y-116403017D01*
X128051785Y-116300145D01*
X127920855Y-116169215D01*
X127817983Y-116015257D01*
X127817982Y-116015255D01*
X127747123Y-115844187D01*
X127711000Y-115662583D01*
X127711000Y-115477417D01*
X127747123Y-115295813D01*
X127817982Y-115124745D01*
X127920854Y-114970786D01*
X128051786Y-114839854D01*
X128128242Y-114788768D01*
X128205743Y-114736983D01*
X128205745Y-114736982D01*
X128376813Y-114666123D01*
X128558417Y-114630000D01*
X128743583Y-114630000D01*
X128925187Y-114666123D01*
G37*
G36*
X131465187Y-114666123D02*
G01*
X131636255Y-114736982D01*
X131636257Y-114736983D01*
X131713758Y-114788768D01*
X131790214Y-114839854D01*
X131921146Y-114970786D01*
X132024018Y-115124745D01*
X132094877Y-115295813D01*
X132131000Y-115477417D01*
X132131000Y-115662583D01*
X132094877Y-115844187D01*
X132024018Y-116015255D01*
X132024017Y-116015257D01*
X131921145Y-116169215D01*
X131790215Y-116300145D01*
X131636257Y-116403017D01*
X131636256Y-116403018D01*
X131636255Y-116403018D01*
X131465187Y-116473877D01*
X131283583Y-116510000D01*
X131098417Y-116510000D01*
X130916813Y-116473877D01*
X130745745Y-116403018D01*
X130745744Y-116403018D01*
X130745743Y-116403017D01*
X130591785Y-116300145D01*
X130460855Y-116169215D01*
X130357983Y-116015257D01*
X130357982Y-116015255D01*
X130287123Y-115844187D01*
X130251000Y-115662583D01*
X130251000Y-115477417D01*
X130287123Y-115295813D01*
X130357982Y-115124745D01*
X130460854Y-114970786D01*
X130591786Y-114839854D01*
X130668242Y-114788768D01*
X130745743Y-114736983D01*
X130745745Y-114736982D01*
X130916813Y-114666123D01*
X131098417Y-114630000D01*
X131283583Y-114630000D01*
X131465187Y-114666123D01*
G37*
G36*
X113685187Y-114666123D02*
G01*
X113856255Y-114736982D01*
X113856257Y-114736983D01*
X113933758Y-114788768D01*
X114010214Y-114839854D01*
X114141146Y-114970786D01*
X114244018Y-115124745D01*
X114314877Y-115295813D01*
X114351000Y-115477417D01*
X114351000Y-115662583D01*
X114314877Y-115844187D01*
X114244018Y-116015255D01*
X114244017Y-116015257D01*
X114141145Y-116169215D01*
X114010215Y-116300145D01*
X113856257Y-116403017D01*
X113856256Y-116403018D01*
X113856255Y-116403018D01*
X113685187Y-116473877D01*
X113503583Y-116510000D01*
X113318417Y-116510000D01*
X113136813Y-116473877D01*
X112965745Y-116403018D01*
X112965744Y-116403018D01*
X112965743Y-116403017D01*
X112811785Y-116300145D01*
X112680855Y-116169215D01*
X112577983Y-116015257D01*
X112577982Y-116015255D01*
X112507123Y-115844187D01*
X112471000Y-115662583D01*
X112471000Y-115477417D01*
X112507123Y-115295813D01*
X112577982Y-115124745D01*
X112680854Y-114970786D01*
X112811786Y-114839854D01*
X112888242Y-114788768D01*
X112965743Y-114736983D01*
X112965745Y-114736982D01*
X113136813Y-114666123D01*
X113318417Y-114630000D01*
X113503583Y-114630000D01*
X113685187Y-114666123D01*
G37*
M02*
