G04 #@! TF.GenerationSoftware,KiCad,Pcbnew,5.1.5-52549c5~84~ubuntu19.04.1*
G04 #@! TF.CreationDate,2019-11-27T18:15:37+01:00*
G04 #@! TF.ProjectId,printplaat,7072696e-7470-46c6-9161-742e6b696361,rev?*
G04 #@! TF.SameCoordinates,Original*
G04 #@! TF.FileFunction,Soldermask,Bot*
G04 #@! TF.FilePolarity,Negative*
%FSLAX46Y46*%
G04 Gerber Fmt 4.6, Leading zero omitted, Abs format (unit mm)*
G04 Created by KiCad (PCBNEW 5.1.5-52549c5~84~ubuntu19.04.1) date 2019-11-27 18:15:37*
%MOMM*%
%LPD*%
G04 APERTURE LIST*
%ADD10C,0.100000*%
G04 APERTURE END LIST*
D10*
G36*
X106928228Y-166821703D02*
G01*
X107083100Y-166885853D01*
X107222481Y-166978985D01*
X107341015Y-167097519D01*
X107434147Y-167236900D01*
X107498297Y-167391772D01*
X107531000Y-167556184D01*
X107531000Y-167723816D01*
X107498297Y-167888228D01*
X107434147Y-168043100D01*
X107341015Y-168182481D01*
X107222481Y-168301015D01*
X107083100Y-168394147D01*
X106928228Y-168458297D01*
X106763816Y-168491000D01*
X106596184Y-168491000D01*
X106431772Y-168458297D01*
X106276900Y-168394147D01*
X106137519Y-168301015D01*
X106018985Y-168182481D01*
X105925853Y-168043100D01*
X105861703Y-167888228D01*
X105829000Y-167723816D01*
X105829000Y-167556184D01*
X105861703Y-167391772D01*
X105925853Y-167236900D01*
X106018985Y-167097519D01*
X106137519Y-166978985D01*
X106276900Y-166885853D01*
X106431772Y-166821703D01*
X106596184Y-166789000D01*
X106763816Y-166789000D01*
X106928228Y-166821703D01*
G37*
G36*
X99308228Y-166821703D02*
G01*
X99463100Y-166885853D01*
X99602481Y-166978985D01*
X99721015Y-167097519D01*
X99814147Y-167236900D01*
X99878297Y-167391772D01*
X99911000Y-167556184D01*
X99911000Y-167723816D01*
X99878297Y-167888228D01*
X99814147Y-168043100D01*
X99721015Y-168182481D01*
X99602481Y-168301015D01*
X99463100Y-168394147D01*
X99308228Y-168458297D01*
X99143816Y-168491000D01*
X98976184Y-168491000D01*
X98811772Y-168458297D01*
X98656900Y-168394147D01*
X98517519Y-168301015D01*
X98398985Y-168182481D01*
X98305853Y-168043100D01*
X98241703Y-167888228D01*
X98209000Y-167723816D01*
X98209000Y-167556184D01*
X98241703Y-167391772D01*
X98305853Y-167236900D01*
X98398985Y-167097519D01*
X98517519Y-166978985D01*
X98656900Y-166885853D01*
X98811772Y-166821703D01*
X98976184Y-166789000D01*
X99143816Y-166789000D01*
X99308228Y-166821703D01*
G37*
G36*
X106928228Y-164281703D02*
G01*
X107083100Y-164345853D01*
X107222481Y-164438985D01*
X107341015Y-164557519D01*
X107434147Y-164696900D01*
X107498297Y-164851772D01*
X107531000Y-165016184D01*
X107531000Y-165183816D01*
X107498297Y-165348228D01*
X107434147Y-165503100D01*
X107341015Y-165642481D01*
X107222481Y-165761015D01*
X107083100Y-165854147D01*
X106928228Y-165918297D01*
X106763816Y-165951000D01*
X106596184Y-165951000D01*
X106431772Y-165918297D01*
X106276900Y-165854147D01*
X106137519Y-165761015D01*
X106018985Y-165642481D01*
X105925853Y-165503100D01*
X105861703Y-165348228D01*
X105829000Y-165183816D01*
X105829000Y-165016184D01*
X105861703Y-164851772D01*
X105925853Y-164696900D01*
X106018985Y-164557519D01*
X106137519Y-164438985D01*
X106276900Y-164345853D01*
X106431772Y-164281703D01*
X106596184Y-164249000D01*
X106763816Y-164249000D01*
X106928228Y-164281703D01*
G37*
G36*
X99308228Y-164281703D02*
G01*
X99463100Y-164345853D01*
X99602481Y-164438985D01*
X99721015Y-164557519D01*
X99814147Y-164696900D01*
X99878297Y-164851772D01*
X99911000Y-165016184D01*
X99911000Y-165183816D01*
X99878297Y-165348228D01*
X99814147Y-165503100D01*
X99721015Y-165642481D01*
X99602481Y-165761015D01*
X99463100Y-165854147D01*
X99308228Y-165918297D01*
X99143816Y-165951000D01*
X98976184Y-165951000D01*
X98811772Y-165918297D01*
X98656900Y-165854147D01*
X98517519Y-165761015D01*
X98398985Y-165642481D01*
X98305853Y-165503100D01*
X98241703Y-165348228D01*
X98209000Y-165183816D01*
X98209000Y-165016184D01*
X98241703Y-164851772D01*
X98305853Y-164696900D01*
X98398985Y-164557519D01*
X98517519Y-164438985D01*
X98656900Y-164345853D01*
X98811772Y-164281703D01*
X98976184Y-164249000D01*
X99143816Y-164249000D01*
X99308228Y-164281703D01*
G37*
G36*
X129755331Y-161728211D02*
G01*
X130083092Y-161863974D01*
X130378070Y-162061072D01*
X130628928Y-162311930D01*
X130826026Y-162606908D01*
X130961789Y-162934669D01*
X131031000Y-163282616D01*
X131031000Y-163637384D01*
X130961789Y-163985331D01*
X130826026Y-164313092D01*
X130628928Y-164608070D01*
X130378070Y-164858928D01*
X130083092Y-165056026D01*
X129755331Y-165191789D01*
X129407384Y-165261000D01*
X129052616Y-165261000D01*
X128704669Y-165191789D01*
X128376908Y-165056026D01*
X128081930Y-164858928D01*
X127831072Y-164608070D01*
X127633974Y-164313092D01*
X127498211Y-163985331D01*
X127429000Y-163637384D01*
X127429000Y-163282616D01*
X127498211Y-162934669D01*
X127633974Y-162606908D01*
X127831072Y-162311930D01*
X128081930Y-162061072D01*
X128376908Y-161863974D01*
X128704669Y-161728211D01*
X129052616Y-161659000D01*
X129407384Y-161659000D01*
X129755331Y-161728211D01*
G37*
G36*
X117715331Y-161728211D02*
G01*
X118043092Y-161863974D01*
X118338070Y-162061072D01*
X118588928Y-162311930D01*
X118786026Y-162606908D01*
X118921789Y-162934669D01*
X118991000Y-163282616D01*
X118991000Y-163637384D01*
X118921789Y-163985331D01*
X118786026Y-164313092D01*
X118588928Y-164608070D01*
X118338070Y-164858928D01*
X118043092Y-165056026D01*
X117715331Y-165191789D01*
X117367384Y-165261000D01*
X117012616Y-165261000D01*
X116664669Y-165191789D01*
X116336908Y-165056026D01*
X116041930Y-164858928D01*
X115791072Y-164608070D01*
X115593974Y-164313092D01*
X115458211Y-163985331D01*
X115389000Y-163637384D01*
X115389000Y-163282616D01*
X115458211Y-162934669D01*
X115593974Y-162606908D01*
X115791072Y-162311930D01*
X116041930Y-162061072D01*
X116336908Y-161863974D01*
X116664669Y-161728211D01*
X117012616Y-161659000D01*
X117367384Y-161659000D01*
X117715331Y-161728211D01*
G37*
G36*
X99308228Y-161741703D02*
G01*
X99463100Y-161805853D01*
X99602481Y-161898985D01*
X99721015Y-162017519D01*
X99814147Y-162156900D01*
X99878297Y-162311772D01*
X99911000Y-162476184D01*
X99911000Y-162643816D01*
X99878297Y-162808228D01*
X99814147Y-162963100D01*
X99721015Y-163102481D01*
X99602481Y-163221015D01*
X99463100Y-163314147D01*
X99308228Y-163378297D01*
X99143816Y-163411000D01*
X98976184Y-163411000D01*
X98811772Y-163378297D01*
X98656900Y-163314147D01*
X98517519Y-163221015D01*
X98398985Y-163102481D01*
X98305853Y-162963100D01*
X98241703Y-162808228D01*
X98209000Y-162643816D01*
X98209000Y-162476184D01*
X98241703Y-162311772D01*
X98305853Y-162156900D01*
X98398985Y-162017519D01*
X98517519Y-161898985D01*
X98656900Y-161805853D01*
X98811772Y-161741703D01*
X98976184Y-161709000D01*
X99143816Y-161709000D01*
X99308228Y-161741703D01*
G37*
G36*
X106928228Y-161741703D02*
G01*
X107083100Y-161805853D01*
X107222481Y-161898985D01*
X107341015Y-162017519D01*
X107434147Y-162156900D01*
X107498297Y-162311772D01*
X107531000Y-162476184D01*
X107531000Y-162643816D01*
X107498297Y-162808228D01*
X107434147Y-162963100D01*
X107341015Y-163102481D01*
X107222481Y-163221015D01*
X107083100Y-163314147D01*
X106928228Y-163378297D01*
X106763816Y-163411000D01*
X106596184Y-163411000D01*
X106431772Y-163378297D01*
X106276900Y-163314147D01*
X106137519Y-163221015D01*
X106018985Y-163102481D01*
X105925853Y-162963100D01*
X105861703Y-162808228D01*
X105829000Y-162643816D01*
X105829000Y-162476184D01*
X105861703Y-162311772D01*
X105925853Y-162156900D01*
X106018985Y-162017519D01*
X106137519Y-161898985D01*
X106276900Y-161805853D01*
X106431772Y-161741703D01*
X106596184Y-161709000D01*
X106763816Y-161709000D01*
X106928228Y-161741703D01*
G37*
G36*
X125361000Y-159651000D02*
G01*
X124789617Y-159651000D01*
X124765231Y-159653402D01*
X124741782Y-159660515D01*
X124720171Y-159672066D01*
X124701229Y-159687611D01*
X124685684Y-159706553D01*
X124674133Y-159728164D01*
X124667020Y-159751613D01*
X124664618Y-159775999D01*
X124667020Y-159800385D01*
X124674133Y-159823834D01*
X124685684Y-159845445D01*
X124701229Y-159864387D01*
X124720171Y-159879932D01*
X124741771Y-159891477D01*
X124886784Y-159951544D01*
X125034354Y-160050147D01*
X125159853Y-160175646D01*
X125258456Y-160323216D01*
X125326376Y-160487188D01*
X125361000Y-160661259D01*
X125361000Y-160838741D01*
X125326376Y-161012812D01*
X125258456Y-161176784D01*
X125159853Y-161324354D01*
X125034354Y-161449853D01*
X124886784Y-161548456D01*
X124722812Y-161616376D01*
X124573512Y-161646073D01*
X124548742Y-161651000D01*
X124371258Y-161651000D01*
X124346488Y-161646073D01*
X124197188Y-161616376D01*
X124033216Y-161548456D01*
X123885646Y-161449853D01*
X123760147Y-161324354D01*
X123661544Y-161176784D01*
X123593624Y-161012812D01*
X123559000Y-160838741D01*
X123559000Y-160661259D01*
X123593624Y-160487188D01*
X123661544Y-160323216D01*
X123760147Y-160175646D01*
X123885646Y-160050147D01*
X124033216Y-159951544D01*
X124178229Y-159891477D01*
X124199829Y-159879932D01*
X124218771Y-159864387D01*
X124234316Y-159845445D01*
X124245867Y-159823834D01*
X124252980Y-159800385D01*
X124255382Y-159775999D01*
X124252980Y-159751613D01*
X124245867Y-159728164D01*
X124234316Y-159706553D01*
X124218771Y-159687611D01*
X124199829Y-159672066D01*
X124178218Y-159660515D01*
X124154769Y-159653402D01*
X124130383Y-159651000D01*
X123559000Y-159651000D01*
X123559000Y-157849000D01*
X125361000Y-157849000D01*
X125361000Y-159651000D01*
G37*
G36*
X122073512Y-157853927D02*
G01*
X122222812Y-157883624D01*
X122386784Y-157951544D01*
X122534354Y-158050147D01*
X122659853Y-158175646D01*
X122758456Y-158323216D01*
X122826376Y-158487188D01*
X122861000Y-158661259D01*
X122861000Y-158838741D01*
X122826376Y-159012812D01*
X122758456Y-159176784D01*
X122659853Y-159324354D01*
X122534354Y-159449853D01*
X122386784Y-159548456D01*
X122222812Y-159616376D01*
X122167362Y-159627405D01*
X122143922Y-159634516D01*
X122122311Y-159646067D01*
X122103369Y-159661613D01*
X122087824Y-159680555D01*
X122076273Y-159702165D01*
X122069160Y-159725614D01*
X122066758Y-159750000D01*
X122069160Y-159774387D01*
X122076273Y-159797835D01*
X122087824Y-159819446D01*
X122103370Y-159838388D01*
X122122312Y-159853933D01*
X122143922Y-159865484D01*
X122167362Y-159872595D01*
X122222812Y-159883624D01*
X122386784Y-159951544D01*
X122534354Y-160050147D01*
X122659853Y-160175646D01*
X122758456Y-160323216D01*
X122826376Y-160487188D01*
X122861000Y-160661259D01*
X122861000Y-160838741D01*
X122826376Y-161012812D01*
X122758456Y-161176784D01*
X122659853Y-161324354D01*
X122534354Y-161449853D01*
X122386784Y-161548456D01*
X122222812Y-161616376D01*
X122073512Y-161646073D01*
X122048742Y-161651000D01*
X121871258Y-161651000D01*
X121846488Y-161646073D01*
X121697188Y-161616376D01*
X121533216Y-161548456D01*
X121385646Y-161449853D01*
X121260147Y-161324354D01*
X121161544Y-161176784D01*
X121093624Y-161012812D01*
X121059000Y-160838741D01*
X121059000Y-160661259D01*
X121093624Y-160487188D01*
X121161544Y-160323216D01*
X121260147Y-160175646D01*
X121385646Y-160050147D01*
X121533216Y-159951544D01*
X121697188Y-159883624D01*
X121752638Y-159872595D01*
X121776078Y-159865484D01*
X121797689Y-159853933D01*
X121816631Y-159838387D01*
X121832176Y-159819445D01*
X121843727Y-159797835D01*
X121850840Y-159774386D01*
X121853242Y-159750000D01*
X121850840Y-159725613D01*
X121843727Y-159702165D01*
X121832176Y-159680554D01*
X121816630Y-159661612D01*
X121797688Y-159646067D01*
X121776078Y-159634516D01*
X121752638Y-159627405D01*
X121697188Y-159616376D01*
X121533216Y-159548456D01*
X121385646Y-159449853D01*
X121260147Y-159324354D01*
X121161544Y-159176784D01*
X121093624Y-159012812D01*
X121059000Y-158838741D01*
X121059000Y-158661259D01*
X121093624Y-158487188D01*
X121161544Y-158323216D01*
X121260147Y-158175646D01*
X121385646Y-158050147D01*
X121533216Y-157951544D01*
X121697188Y-157883624D01*
X121846488Y-157853927D01*
X121871258Y-157849000D01*
X122048742Y-157849000D01*
X122073512Y-157853927D01*
G37*
G36*
X99911000Y-160871000D02*
G01*
X98209000Y-160871000D01*
X98209000Y-159169000D01*
X99911000Y-159169000D01*
X99911000Y-160871000D01*
G37*
G36*
X106928228Y-159201703D02*
G01*
X107083100Y-159265853D01*
X107222481Y-159358985D01*
X107341015Y-159477519D01*
X107434147Y-159616900D01*
X107498297Y-159771772D01*
X107531000Y-159936184D01*
X107531000Y-160103816D01*
X107498297Y-160268228D01*
X107434147Y-160423100D01*
X107341015Y-160562481D01*
X107222481Y-160681015D01*
X107083100Y-160774147D01*
X106928228Y-160838297D01*
X106763816Y-160871000D01*
X106596184Y-160871000D01*
X106431772Y-160838297D01*
X106276900Y-160774147D01*
X106137519Y-160681015D01*
X106018985Y-160562481D01*
X105925853Y-160423100D01*
X105861703Y-160268228D01*
X105829000Y-160103816D01*
X105829000Y-159936184D01*
X105861703Y-159771772D01*
X105925853Y-159616900D01*
X106018985Y-159477519D01*
X106137519Y-159358985D01*
X106276900Y-159265853D01*
X106431772Y-159201703D01*
X106596184Y-159169000D01*
X106763816Y-159169000D01*
X106928228Y-159201703D01*
G37*
G36*
X98673228Y-138841703D02*
G01*
X98828100Y-138905853D01*
X98967481Y-138998985D01*
X99086015Y-139117519D01*
X99179147Y-139256900D01*
X99243297Y-139411772D01*
X99276000Y-139576184D01*
X99276000Y-139743816D01*
X99243297Y-139908228D01*
X99179147Y-140063100D01*
X99086015Y-140202481D01*
X98967481Y-140321015D01*
X98828100Y-140414147D01*
X98673228Y-140478297D01*
X98508816Y-140511000D01*
X98341184Y-140511000D01*
X98176772Y-140478297D01*
X98021900Y-140414147D01*
X97882519Y-140321015D01*
X97763985Y-140202481D01*
X97670853Y-140063100D01*
X97606703Y-139908228D01*
X97574000Y-139743816D01*
X97574000Y-139576184D01*
X97606703Y-139411772D01*
X97670853Y-139256900D01*
X97763985Y-139117519D01*
X97882519Y-138998985D01*
X98021900Y-138905853D01*
X98176772Y-138841703D01*
X98341184Y-138809000D01*
X98508816Y-138809000D01*
X98673228Y-138841703D01*
G37*
G36*
X146901000Y-139281000D02*
G01*
X145199000Y-139281000D01*
X145199000Y-137579000D01*
X146901000Y-137579000D01*
X146901000Y-139281000D01*
G37*
G36*
X98673228Y-136341703D02*
G01*
X98828100Y-136405853D01*
X98967481Y-136498985D01*
X99086015Y-136617519D01*
X99179147Y-136756900D01*
X99243297Y-136911772D01*
X99276000Y-137076184D01*
X99276000Y-137243816D01*
X99243297Y-137408228D01*
X99179147Y-137563100D01*
X99086015Y-137702481D01*
X98967481Y-137821015D01*
X98828100Y-137914147D01*
X98673228Y-137978297D01*
X98508816Y-138011000D01*
X98341184Y-138011000D01*
X98176772Y-137978297D01*
X98021900Y-137914147D01*
X97882519Y-137821015D01*
X97763985Y-137702481D01*
X97670853Y-137563100D01*
X97606703Y-137408228D01*
X97574000Y-137243816D01*
X97574000Y-137076184D01*
X97606703Y-136911772D01*
X97670853Y-136756900D01*
X97763985Y-136617519D01*
X97882519Y-136498985D01*
X98021900Y-136405853D01*
X98176772Y-136341703D01*
X98341184Y-136309000D01*
X98508816Y-136309000D01*
X98673228Y-136341703D01*
G37*
G36*
X146298228Y-135111703D02*
G01*
X146453100Y-135175853D01*
X146592481Y-135268985D01*
X146711015Y-135387519D01*
X146804147Y-135526900D01*
X146868297Y-135681772D01*
X146901000Y-135846184D01*
X146901000Y-136013816D01*
X146868297Y-136178228D01*
X146804147Y-136333100D01*
X146711015Y-136472481D01*
X146592481Y-136591015D01*
X146453100Y-136684147D01*
X146298228Y-136748297D01*
X146133816Y-136781000D01*
X145966184Y-136781000D01*
X145801772Y-136748297D01*
X145646900Y-136684147D01*
X145507519Y-136591015D01*
X145388985Y-136472481D01*
X145295853Y-136333100D01*
X145231703Y-136178228D01*
X145199000Y-136013816D01*
X145199000Y-135846184D01*
X145231703Y-135681772D01*
X145295853Y-135526900D01*
X145388985Y-135387519D01*
X145507519Y-135268985D01*
X145646900Y-135175853D01*
X145801772Y-135111703D01*
X145966184Y-135079000D01*
X146133816Y-135079000D01*
X146298228Y-135111703D01*
G37*
G36*
X112034187Y-132446123D02*
G01*
X112205255Y-132516982D01*
X112205257Y-132516983D01*
X112359215Y-132619855D01*
X112490145Y-132750785D01*
X112588709Y-132898295D01*
X112593018Y-132904745D01*
X112663877Y-133075813D01*
X112700000Y-133257417D01*
X112700000Y-133442583D01*
X112663877Y-133624187D01*
X112593018Y-133795255D01*
X112593017Y-133795257D01*
X112490145Y-133949215D01*
X112359215Y-134080145D01*
X112205257Y-134183017D01*
X112205256Y-134183018D01*
X112205255Y-134183018D01*
X112034187Y-134253877D01*
X111852583Y-134290000D01*
X111667417Y-134290000D01*
X111485813Y-134253877D01*
X111314745Y-134183018D01*
X111314744Y-134183018D01*
X111314743Y-134183017D01*
X111160785Y-134080145D01*
X111029855Y-133949215D01*
X110926983Y-133795257D01*
X110926982Y-133795255D01*
X110856123Y-133624187D01*
X110820000Y-133442583D01*
X110820000Y-133257417D01*
X110856123Y-133075813D01*
X110926982Y-132904745D01*
X110931292Y-132898295D01*
X111029855Y-132750785D01*
X111160785Y-132619855D01*
X111314743Y-132516983D01*
X111314745Y-132516982D01*
X111485813Y-132446123D01*
X111667417Y-132410000D01*
X111852583Y-132410000D01*
X112034187Y-132446123D01*
G37*
G36*
X114574187Y-132446123D02*
G01*
X114745255Y-132516982D01*
X114745257Y-132516983D01*
X114899215Y-132619855D01*
X115030145Y-132750785D01*
X115128709Y-132898295D01*
X115133018Y-132904745D01*
X115203877Y-133075813D01*
X115240000Y-133257417D01*
X115240000Y-133442583D01*
X115203877Y-133624187D01*
X115133018Y-133795255D01*
X115133017Y-133795257D01*
X115030145Y-133949215D01*
X114899215Y-134080145D01*
X114745257Y-134183017D01*
X114745256Y-134183018D01*
X114745255Y-134183018D01*
X114574187Y-134253877D01*
X114392583Y-134290000D01*
X114207417Y-134290000D01*
X114025813Y-134253877D01*
X113854745Y-134183018D01*
X113854744Y-134183018D01*
X113854743Y-134183017D01*
X113700785Y-134080145D01*
X113569855Y-133949215D01*
X113466983Y-133795257D01*
X113466982Y-133795255D01*
X113396123Y-133624187D01*
X113360000Y-133442583D01*
X113360000Y-133257417D01*
X113396123Y-133075813D01*
X113466982Y-132904745D01*
X113471292Y-132898295D01*
X113569855Y-132750785D01*
X113700785Y-132619855D01*
X113854743Y-132516983D01*
X113854745Y-132516982D01*
X114025813Y-132446123D01*
X114207417Y-132410000D01*
X114392583Y-132410000D01*
X114574187Y-132446123D01*
G37*
G36*
X117114187Y-132446123D02*
G01*
X117285255Y-132516982D01*
X117285257Y-132516983D01*
X117439215Y-132619855D01*
X117570145Y-132750785D01*
X117668709Y-132898295D01*
X117673018Y-132904745D01*
X117743877Y-133075813D01*
X117780000Y-133257417D01*
X117780000Y-133442583D01*
X117743877Y-133624187D01*
X117673018Y-133795255D01*
X117673017Y-133795257D01*
X117570145Y-133949215D01*
X117439215Y-134080145D01*
X117285257Y-134183017D01*
X117285256Y-134183018D01*
X117285255Y-134183018D01*
X117114187Y-134253877D01*
X116932583Y-134290000D01*
X116747417Y-134290000D01*
X116565813Y-134253877D01*
X116394745Y-134183018D01*
X116394744Y-134183018D01*
X116394743Y-134183017D01*
X116240785Y-134080145D01*
X116109855Y-133949215D01*
X116006983Y-133795257D01*
X116006982Y-133795255D01*
X115936123Y-133624187D01*
X115900000Y-133442583D01*
X115900000Y-133257417D01*
X115936123Y-133075813D01*
X116006982Y-132904745D01*
X116011292Y-132898295D01*
X116109855Y-132750785D01*
X116240785Y-132619855D01*
X116394743Y-132516983D01*
X116394745Y-132516982D01*
X116565813Y-132446123D01*
X116747417Y-132410000D01*
X116932583Y-132410000D01*
X117114187Y-132446123D01*
G37*
G36*
X119654187Y-132446123D02*
G01*
X119825255Y-132516982D01*
X119825257Y-132516983D01*
X119979215Y-132619855D01*
X120110145Y-132750785D01*
X120208709Y-132898295D01*
X120213018Y-132904745D01*
X120283877Y-133075813D01*
X120320000Y-133257417D01*
X120320000Y-133442583D01*
X120283877Y-133624187D01*
X120213018Y-133795255D01*
X120213017Y-133795257D01*
X120110145Y-133949215D01*
X119979215Y-134080145D01*
X119825257Y-134183017D01*
X119825256Y-134183018D01*
X119825255Y-134183018D01*
X119654187Y-134253877D01*
X119472583Y-134290000D01*
X119287417Y-134290000D01*
X119105813Y-134253877D01*
X118934745Y-134183018D01*
X118934744Y-134183018D01*
X118934743Y-134183017D01*
X118780785Y-134080145D01*
X118649855Y-133949215D01*
X118546983Y-133795257D01*
X118546982Y-133795255D01*
X118476123Y-133624187D01*
X118440000Y-133442583D01*
X118440000Y-133257417D01*
X118476123Y-133075813D01*
X118546982Y-132904745D01*
X118551292Y-132898295D01*
X118649855Y-132750785D01*
X118780785Y-132619855D01*
X118934743Y-132516983D01*
X118934745Y-132516982D01*
X119105813Y-132446123D01*
X119287417Y-132410000D01*
X119472583Y-132410000D01*
X119654187Y-132446123D01*
G37*
G36*
X124734187Y-132446123D02*
G01*
X124905255Y-132516982D01*
X124905257Y-132516983D01*
X125059215Y-132619855D01*
X125190145Y-132750785D01*
X125288709Y-132898295D01*
X125293018Y-132904745D01*
X125363877Y-133075813D01*
X125400000Y-133257417D01*
X125400000Y-133442583D01*
X125363877Y-133624187D01*
X125293018Y-133795255D01*
X125293017Y-133795257D01*
X125190145Y-133949215D01*
X125059215Y-134080145D01*
X124905257Y-134183017D01*
X124905256Y-134183018D01*
X124905255Y-134183018D01*
X124734187Y-134253877D01*
X124552583Y-134290000D01*
X124367417Y-134290000D01*
X124185813Y-134253877D01*
X124014745Y-134183018D01*
X124014744Y-134183018D01*
X124014743Y-134183017D01*
X123860785Y-134080145D01*
X123729855Y-133949215D01*
X123626983Y-133795257D01*
X123626982Y-133795255D01*
X123556123Y-133624187D01*
X123520000Y-133442583D01*
X123520000Y-133257417D01*
X123556123Y-133075813D01*
X123626982Y-132904745D01*
X123631292Y-132898295D01*
X123729855Y-132750785D01*
X123860785Y-132619855D01*
X124014743Y-132516983D01*
X124014745Y-132516982D01*
X124185813Y-132446123D01*
X124367417Y-132410000D01*
X124552583Y-132410000D01*
X124734187Y-132446123D01*
G37*
G36*
X127274187Y-132446123D02*
G01*
X127445255Y-132516982D01*
X127445257Y-132516983D01*
X127599215Y-132619855D01*
X127730145Y-132750785D01*
X127828709Y-132898295D01*
X127833018Y-132904745D01*
X127903877Y-133075813D01*
X127940000Y-133257417D01*
X127940000Y-133442583D01*
X127903877Y-133624187D01*
X127833018Y-133795255D01*
X127833017Y-133795257D01*
X127730145Y-133949215D01*
X127599215Y-134080145D01*
X127445257Y-134183017D01*
X127445256Y-134183018D01*
X127445255Y-134183018D01*
X127274187Y-134253877D01*
X127092583Y-134290000D01*
X126907417Y-134290000D01*
X126725813Y-134253877D01*
X126554745Y-134183018D01*
X126554744Y-134183018D01*
X126554743Y-134183017D01*
X126400785Y-134080145D01*
X126269855Y-133949215D01*
X126166983Y-133795257D01*
X126166982Y-133795255D01*
X126096123Y-133624187D01*
X126060000Y-133442583D01*
X126060000Y-133257417D01*
X126096123Y-133075813D01*
X126166982Y-132904745D01*
X126171292Y-132898295D01*
X126269855Y-132750785D01*
X126400785Y-132619855D01*
X126554743Y-132516983D01*
X126554745Y-132516982D01*
X126725813Y-132446123D01*
X126907417Y-132410000D01*
X127092583Y-132410000D01*
X127274187Y-132446123D01*
G37*
G36*
X129814187Y-132446123D02*
G01*
X129985255Y-132516982D01*
X129985257Y-132516983D01*
X130139215Y-132619855D01*
X130270145Y-132750785D01*
X130368709Y-132898295D01*
X130373018Y-132904745D01*
X130443877Y-133075813D01*
X130480000Y-133257417D01*
X130480000Y-133442583D01*
X130443877Y-133624187D01*
X130373018Y-133795255D01*
X130373017Y-133795257D01*
X130270145Y-133949215D01*
X130139215Y-134080145D01*
X129985257Y-134183017D01*
X129985256Y-134183018D01*
X129985255Y-134183018D01*
X129814187Y-134253877D01*
X129632583Y-134290000D01*
X129447417Y-134290000D01*
X129265813Y-134253877D01*
X129094745Y-134183018D01*
X129094744Y-134183018D01*
X129094743Y-134183017D01*
X128940785Y-134080145D01*
X128809855Y-133949215D01*
X128706983Y-133795257D01*
X128706982Y-133795255D01*
X128636123Y-133624187D01*
X128600000Y-133442583D01*
X128600000Y-133257417D01*
X128636123Y-133075813D01*
X128706982Y-132904745D01*
X128711292Y-132898295D01*
X128809855Y-132750785D01*
X128940785Y-132619855D01*
X129094743Y-132516983D01*
X129094745Y-132516982D01*
X129265813Y-132446123D01*
X129447417Y-132410000D01*
X129632583Y-132410000D01*
X129814187Y-132446123D01*
G37*
G36*
X122194187Y-132446123D02*
G01*
X122365255Y-132516982D01*
X122365257Y-132516983D01*
X122519215Y-132619855D01*
X122650145Y-132750785D01*
X122748709Y-132898295D01*
X122753018Y-132904745D01*
X122823877Y-133075813D01*
X122860000Y-133257417D01*
X122860000Y-133442583D01*
X122823877Y-133624187D01*
X122753018Y-133795255D01*
X122753017Y-133795257D01*
X122650145Y-133949215D01*
X122519215Y-134080145D01*
X122365257Y-134183017D01*
X122365256Y-134183018D01*
X122365255Y-134183018D01*
X122194187Y-134253877D01*
X122012583Y-134290000D01*
X121827417Y-134290000D01*
X121645813Y-134253877D01*
X121474745Y-134183018D01*
X121474744Y-134183018D01*
X121474743Y-134183017D01*
X121320785Y-134080145D01*
X121189855Y-133949215D01*
X121086983Y-133795257D01*
X121086982Y-133795255D01*
X121016123Y-133624187D01*
X120980000Y-133442583D01*
X120980000Y-133257417D01*
X121016123Y-133075813D01*
X121086982Y-132904745D01*
X121091292Y-132898295D01*
X121189855Y-132750785D01*
X121320785Y-132619855D01*
X121474743Y-132516983D01*
X121474745Y-132516982D01*
X121645813Y-132446123D01*
X121827417Y-132410000D01*
X122012583Y-132410000D01*
X122194187Y-132446123D01*
G37*
G36*
X141853228Y-131261703D02*
G01*
X142008100Y-131325853D01*
X142147481Y-131418985D01*
X142266015Y-131537519D01*
X142359147Y-131676900D01*
X142423297Y-131831772D01*
X142456000Y-131996184D01*
X142456000Y-132163816D01*
X142423297Y-132328228D01*
X142359147Y-132483100D01*
X142266015Y-132622481D01*
X142147481Y-132741015D01*
X142008100Y-132834147D01*
X141853228Y-132898297D01*
X141688816Y-132931000D01*
X141521184Y-132931000D01*
X141356772Y-132898297D01*
X141201900Y-132834147D01*
X141062519Y-132741015D01*
X140943985Y-132622481D01*
X140850853Y-132483100D01*
X140786703Y-132328228D01*
X140754000Y-132163816D01*
X140754000Y-131996184D01*
X140786703Y-131831772D01*
X140850853Y-131676900D01*
X140943985Y-131537519D01*
X141062519Y-131418985D01*
X141201900Y-131325853D01*
X141356772Y-131261703D01*
X141521184Y-131229000D01*
X141688816Y-131229000D01*
X141853228Y-131261703D01*
G37*
G36*
X98673228Y-131261703D02*
G01*
X98828100Y-131325853D01*
X98967481Y-131418985D01*
X99086015Y-131537519D01*
X99179147Y-131676900D01*
X99243297Y-131831772D01*
X99276000Y-131996184D01*
X99276000Y-132163816D01*
X99243297Y-132328228D01*
X99179147Y-132483100D01*
X99086015Y-132622481D01*
X98967481Y-132741015D01*
X98828100Y-132834147D01*
X98673228Y-132898297D01*
X98508816Y-132931000D01*
X98341184Y-132931000D01*
X98176772Y-132898297D01*
X98021900Y-132834147D01*
X97882519Y-132741015D01*
X97763985Y-132622481D01*
X97670853Y-132483100D01*
X97606703Y-132328228D01*
X97574000Y-132163816D01*
X97574000Y-131996184D01*
X97606703Y-131831772D01*
X97670853Y-131676900D01*
X97763985Y-131537519D01*
X97882519Y-131418985D01*
X98021900Y-131325853D01*
X98176772Y-131261703D01*
X98341184Y-131229000D01*
X98508816Y-131229000D01*
X98673228Y-131261703D01*
G37*
G36*
X101848228Y-131261703D02*
G01*
X102003100Y-131325853D01*
X102142481Y-131418985D01*
X102261015Y-131537519D01*
X102354147Y-131676900D01*
X102418297Y-131831772D01*
X102451000Y-131996184D01*
X102451000Y-132163816D01*
X102418297Y-132328228D01*
X102354147Y-132483100D01*
X102261015Y-132622481D01*
X102142481Y-132741015D01*
X102003100Y-132834147D01*
X101848228Y-132898297D01*
X101683816Y-132931000D01*
X101516184Y-132931000D01*
X101351772Y-132898297D01*
X101196900Y-132834147D01*
X101057519Y-132741015D01*
X100938985Y-132622481D01*
X100845853Y-132483100D01*
X100781703Y-132328228D01*
X100749000Y-132163816D01*
X100749000Y-131996184D01*
X100781703Y-131831772D01*
X100845853Y-131676900D01*
X100938985Y-131537519D01*
X101057519Y-131418985D01*
X101196900Y-131325853D01*
X101351772Y-131261703D01*
X101516184Y-131229000D01*
X101683816Y-131229000D01*
X101848228Y-131261703D01*
G37*
G36*
X148221000Y-125361000D02*
G01*
X146419000Y-125361000D01*
X146419000Y-123559000D01*
X148221000Y-123559000D01*
X148221000Y-125361000D01*
G37*
G36*
X147433512Y-121023927D02*
G01*
X147582812Y-121053624D01*
X147746784Y-121121544D01*
X147894354Y-121220147D01*
X148019853Y-121345646D01*
X148118456Y-121493216D01*
X148186376Y-121657188D01*
X148221000Y-121831259D01*
X148221000Y-122008741D01*
X148186376Y-122182812D01*
X148118456Y-122346784D01*
X148019853Y-122494354D01*
X147894354Y-122619853D01*
X147746784Y-122718456D01*
X147582812Y-122786376D01*
X147433512Y-122816073D01*
X147408742Y-122821000D01*
X147231258Y-122821000D01*
X147206488Y-122816073D01*
X147057188Y-122786376D01*
X146893216Y-122718456D01*
X146745646Y-122619853D01*
X146620147Y-122494354D01*
X146521544Y-122346784D01*
X146453624Y-122182812D01*
X146419000Y-122008741D01*
X146419000Y-121831259D01*
X146453624Y-121657188D01*
X146521544Y-121493216D01*
X146620147Y-121345646D01*
X146745646Y-121220147D01*
X146893216Y-121121544D01*
X147057188Y-121053624D01*
X147206488Y-121023927D01*
X147231258Y-121019000D01*
X147408742Y-121019000D01*
X147433512Y-121023927D01*
G37*
G36*
X141853228Y-121101703D02*
G01*
X142008100Y-121165853D01*
X142147481Y-121258985D01*
X142266015Y-121377519D01*
X142359147Y-121516900D01*
X142423297Y-121671772D01*
X142456000Y-121836184D01*
X142456000Y-122003816D01*
X142423297Y-122168228D01*
X142359147Y-122323100D01*
X142266015Y-122462481D01*
X142147481Y-122581015D01*
X142008100Y-122674147D01*
X141853228Y-122738297D01*
X141688816Y-122771000D01*
X141521184Y-122771000D01*
X141356772Y-122738297D01*
X141201900Y-122674147D01*
X141062519Y-122581015D01*
X140943985Y-122462481D01*
X140850853Y-122323100D01*
X140786703Y-122168228D01*
X140754000Y-122003816D01*
X140754000Y-121836184D01*
X140786703Y-121671772D01*
X140850853Y-121516900D01*
X140943985Y-121377519D01*
X141062519Y-121258985D01*
X141201900Y-121165853D01*
X141356772Y-121101703D01*
X141521184Y-121069000D01*
X141688816Y-121069000D01*
X141853228Y-121101703D01*
G37*
G36*
X101848228Y-121101703D02*
G01*
X102003100Y-121165853D01*
X102142481Y-121258985D01*
X102261015Y-121377519D01*
X102354147Y-121516900D01*
X102418297Y-121671772D01*
X102451000Y-121836184D01*
X102451000Y-122003816D01*
X102418297Y-122168228D01*
X102354147Y-122323100D01*
X102261015Y-122462481D01*
X102142481Y-122581015D01*
X102003100Y-122674147D01*
X101848228Y-122738297D01*
X101683816Y-122771000D01*
X101516184Y-122771000D01*
X101351772Y-122738297D01*
X101196900Y-122674147D01*
X101057519Y-122581015D01*
X100938985Y-122462481D01*
X100845853Y-122323100D01*
X100781703Y-122168228D01*
X100749000Y-122003816D01*
X100749000Y-121836184D01*
X100781703Y-121671772D01*
X100845853Y-121516900D01*
X100938985Y-121377519D01*
X101057519Y-121258985D01*
X101196900Y-121165853D01*
X101351772Y-121101703D01*
X101516184Y-121069000D01*
X101683816Y-121069000D01*
X101848228Y-121101703D01*
G37*
G36*
X98673228Y-121101703D02*
G01*
X98828100Y-121165853D01*
X98967481Y-121258985D01*
X99086015Y-121377519D01*
X99179147Y-121516900D01*
X99243297Y-121671772D01*
X99276000Y-121836184D01*
X99276000Y-122003816D01*
X99243297Y-122168228D01*
X99179147Y-122323100D01*
X99086015Y-122462481D01*
X98967481Y-122581015D01*
X98828100Y-122674147D01*
X98673228Y-122738297D01*
X98508816Y-122771000D01*
X98341184Y-122771000D01*
X98176772Y-122738297D01*
X98021900Y-122674147D01*
X97882519Y-122581015D01*
X97763985Y-122462481D01*
X97670853Y-122323100D01*
X97606703Y-122168228D01*
X97574000Y-122003816D01*
X97574000Y-121836184D01*
X97606703Y-121671772D01*
X97670853Y-121516900D01*
X97763985Y-121377519D01*
X97882519Y-121258985D01*
X98021900Y-121165853D01*
X98176772Y-121101703D01*
X98341184Y-121069000D01*
X98508816Y-121069000D01*
X98673228Y-121101703D01*
G37*
G36*
X124734187Y-114666123D02*
G01*
X124905255Y-114736982D01*
X124905257Y-114736983D01*
X124982758Y-114788768D01*
X125059214Y-114839854D01*
X125190146Y-114970786D01*
X125293018Y-115124745D01*
X125363877Y-115295813D01*
X125400000Y-115477417D01*
X125400000Y-115662583D01*
X125363877Y-115844187D01*
X125293018Y-116015255D01*
X125293017Y-116015257D01*
X125190145Y-116169215D01*
X125059215Y-116300145D01*
X124905257Y-116403017D01*
X124905256Y-116403018D01*
X124905255Y-116403018D01*
X124734187Y-116473877D01*
X124552583Y-116510000D01*
X124367417Y-116510000D01*
X124185813Y-116473877D01*
X124014745Y-116403018D01*
X124014744Y-116403018D01*
X124014743Y-116403017D01*
X123860785Y-116300145D01*
X123729855Y-116169215D01*
X123626983Y-116015257D01*
X123626982Y-116015255D01*
X123556123Y-115844187D01*
X123520000Y-115662583D01*
X123520000Y-115477417D01*
X123556123Y-115295813D01*
X123626982Y-115124745D01*
X123729854Y-114970786D01*
X123860786Y-114839854D01*
X123937242Y-114788768D01*
X124014743Y-114736983D01*
X124014745Y-114736982D01*
X124185813Y-114666123D01*
X124367417Y-114630000D01*
X124552583Y-114630000D01*
X124734187Y-114666123D01*
G37*
G36*
X112034187Y-114666123D02*
G01*
X112205255Y-114736982D01*
X112205257Y-114736983D01*
X112282758Y-114788768D01*
X112359214Y-114839854D01*
X112490146Y-114970786D01*
X112593018Y-115124745D01*
X112663877Y-115295813D01*
X112700000Y-115477417D01*
X112700000Y-115662583D01*
X112663877Y-115844187D01*
X112593018Y-116015255D01*
X112593017Y-116015257D01*
X112490145Y-116169215D01*
X112359215Y-116300145D01*
X112205257Y-116403017D01*
X112205256Y-116403018D01*
X112205255Y-116403018D01*
X112034187Y-116473877D01*
X111852583Y-116510000D01*
X111667417Y-116510000D01*
X111485813Y-116473877D01*
X111314745Y-116403018D01*
X111314744Y-116403018D01*
X111314743Y-116403017D01*
X111160785Y-116300145D01*
X111029855Y-116169215D01*
X110926983Y-116015257D01*
X110926982Y-116015255D01*
X110856123Y-115844187D01*
X110820000Y-115662583D01*
X110820000Y-115477417D01*
X110856123Y-115295813D01*
X110926982Y-115124745D01*
X111029854Y-114970786D01*
X111160786Y-114839854D01*
X111237242Y-114788768D01*
X111314743Y-114736983D01*
X111314745Y-114736982D01*
X111485813Y-114666123D01*
X111667417Y-114630000D01*
X111852583Y-114630000D01*
X112034187Y-114666123D01*
G37*
G36*
X127274187Y-114666123D02*
G01*
X127445255Y-114736982D01*
X127445257Y-114736983D01*
X127522758Y-114788768D01*
X127599214Y-114839854D01*
X127730146Y-114970786D01*
X127833018Y-115124745D01*
X127903877Y-115295813D01*
X127940000Y-115477417D01*
X127940000Y-115662583D01*
X127903877Y-115844187D01*
X127833018Y-116015255D01*
X127833017Y-116015257D01*
X127730145Y-116169215D01*
X127599215Y-116300145D01*
X127445257Y-116403017D01*
X127445256Y-116403018D01*
X127445255Y-116403018D01*
X127274187Y-116473877D01*
X127092583Y-116510000D01*
X126907417Y-116510000D01*
X126725813Y-116473877D01*
X126554745Y-116403018D01*
X126554744Y-116403018D01*
X126554743Y-116403017D01*
X126400785Y-116300145D01*
X126269855Y-116169215D01*
X126166983Y-116015257D01*
X126166982Y-116015255D01*
X126096123Y-115844187D01*
X126060000Y-115662583D01*
X126060000Y-115477417D01*
X126096123Y-115295813D01*
X126166982Y-115124745D01*
X126269854Y-114970786D01*
X126400786Y-114839854D01*
X126477242Y-114788768D01*
X126554743Y-114736983D01*
X126554745Y-114736982D01*
X126725813Y-114666123D01*
X126907417Y-114630000D01*
X127092583Y-114630000D01*
X127274187Y-114666123D01*
G37*
G36*
X129814187Y-114666123D02*
G01*
X129985255Y-114736982D01*
X129985257Y-114736983D01*
X130062758Y-114788768D01*
X130139214Y-114839854D01*
X130270146Y-114970786D01*
X130373018Y-115124745D01*
X130443877Y-115295813D01*
X130480000Y-115477417D01*
X130480000Y-115662583D01*
X130443877Y-115844187D01*
X130373018Y-116015255D01*
X130373017Y-116015257D01*
X130270145Y-116169215D01*
X130139215Y-116300145D01*
X129985257Y-116403017D01*
X129985256Y-116403018D01*
X129985255Y-116403018D01*
X129814187Y-116473877D01*
X129632583Y-116510000D01*
X129447417Y-116510000D01*
X129265813Y-116473877D01*
X129094745Y-116403018D01*
X129094744Y-116403018D01*
X129094743Y-116403017D01*
X128940785Y-116300145D01*
X128809855Y-116169215D01*
X128706983Y-116015257D01*
X128706982Y-116015255D01*
X128636123Y-115844187D01*
X128600000Y-115662583D01*
X128600000Y-115477417D01*
X128636123Y-115295813D01*
X128706982Y-115124745D01*
X128809854Y-114970786D01*
X128940786Y-114839854D01*
X129017242Y-114788768D01*
X129094743Y-114736983D01*
X129094745Y-114736982D01*
X129265813Y-114666123D01*
X129447417Y-114630000D01*
X129632583Y-114630000D01*
X129814187Y-114666123D01*
G37*
G36*
X122194187Y-114666123D02*
G01*
X122365255Y-114736982D01*
X122365257Y-114736983D01*
X122442758Y-114788768D01*
X122519214Y-114839854D01*
X122650146Y-114970786D01*
X122753018Y-115124745D01*
X122823877Y-115295813D01*
X122860000Y-115477417D01*
X122860000Y-115662583D01*
X122823877Y-115844187D01*
X122753018Y-116015255D01*
X122753017Y-116015257D01*
X122650145Y-116169215D01*
X122519215Y-116300145D01*
X122365257Y-116403017D01*
X122365256Y-116403018D01*
X122365255Y-116403018D01*
X122194187Y-116473877D01*
X122012583Y-116510000D01*
X121827417Y-116510000D01*
X121645813Y-116473877D01*
X121474745Y-116403018D01*
X121474744Y-116403018D01*
X121474743Y-116403017D01*
X121320785Y-116300145D01*
X121189855Y-116169215D01*
X121086983Y-116015257D01*
X121086982Y-116015255D01*
X121016123Y-115844187D01*
X120980000Y-115662583D01*
X120980000Y-115477417D01*
X121016123Y-115295813D01*
X121086982Y-115124745D01*
X121189854Y-114970786D01*
X121320786Y-114839854D01*
X121397242Y-114788768D01*
X121474743Y-114736983D01*
X121474745Y-114736982D01*
X121645813Y-114666123D01*
X121827417Y-114630000D01*
X122012583Y-114630000D01*
X122194187Y-114666123D01*
G37*
G36*
X119654187Y-114666123D02*
G01*
X119825255Y-114736982D01*
X119825257Y-114736983D01*
X119902758Y-114788768D01*
X119979214Y-114839854D01*
X120110146Y-114970786D01*
X120213018Y-115124745D01*
X120283877Y-115295813D01*
X120320000Y-115477417D01*
X120320000Y-115662583D01*
X120283877Y-115844187D01*
X120213018Y-116015255D01*
X120213017Y-116015257D01*
X120110145Y-116169215D01*
X119979215Y-116300145D01*
X119825257Y-116403017D01*
X119825256Y-116403018D01*
X119825255Y-116403018D01*
X119654187Y-116473877D01*
X119472583Y-116510000D01*
X119287417Y-116510000D01*
X119105813Y-116473877D01*
X118934745Y-116403018D01*
X118934744Y-116403018D01*
X118934743Y-116403017D01*
X118780785Y-116300145D01*
X118649855Y-116169215D01*
X118546983Y-116015257D01*
X118546982Y-116015255D01*
X118476123Y-115844187D01*
X118440000Y-115662583D01*
X118440000Y-115477417D01*
X118476123Y-115295813D01*
X118546982Y-115124745D01*
X118649854Y-114970786D01*
X118780786Y-114839854D01*
X118857242Y-114788768D01*
X118934743Y-114736983D01*
X118934745Y-114736982D01*
X119105813Y-114666123D01*
X119287417Y-114630000D01*
X119472583Y-114630000D01*
X119654187Y-114666123D01*
G37*
G36*
X117114187Y-114666123D02*
G01*
X117285255Y-114736982D01*
X117285257Y-114736983D01*
X117362758Y-114788768D01*
X117439214Y-114839854D01*
X117570146Y-114970786D01*
X117673018Y-115124745D01*
X117743877Y-115295813D01*
X117780000Y-115477417D01*
X117780000Y-115662583D01*
X117743877Y-115844187D01*
X117673018Y-116015255D01*
X117673017Y-116015257D01*
X117570145Y-116169215D01*
X117439215Y-116300145D01*
X117285257Y-116403017D01*
X117285256Y-116403018D01*
X117285255Y-116403018D01*
X117114187Y-116473877D01*
X116932583Y-116510000D01*
X116747417Y-116510000D01*
X116565813Y-116473877D01*
X116394745Y-116403018D01*
X116394744Y-116403018D01*
X116394743Y-116403017D01*
X116240785Y-116300145D01*
X116109855Y-116169215D01*
X116006983Y-116015257D01*
X116006982Y-116015255D01*
X115936123Y-115844187D01*
X115900000Y-115662583D01*
X115900000Y-115477417D01*
X115936123Y-115295813D01*
X116006982Y-115124745D01*
X116109854Y-114970786D01*
X116240786Y-114839854D01*
X116317242Y-114788768D01*
X116394743Y-114736983D01*
X116394745Y-114736982D01*
X116565813Y-114666123D01*
X116747417Y-114630000D01*
X116932583Y-114630000D01*
X117114187Y-114666123D01*
G37*
G36*
X114574187Y-114666123D02*
G01*
X114745255Y-114736982D01*
X114745257Y-114736983D01*
X114822758Y-114788768D01*
X114899214Y-114839854D01*
X115030146Y-114970786D01*
X115133018Y-115124745D01*
X115203877Y-115295813D01*
X115240000Y-115477417D01*
X115240000Y-115662583D01*
X115203877Y-115844187D01*
X115133018Y-116015255D01*
X115133017Y-116015257D01*
X115030145Y-116169215D01*
X114899215Y-116300145D01*
X114745257Y-116403017D01*
X114745256Y-116403018D01*
X114745255Y-116403018D01*
X114574187Y-116473877D01*
X114392583Y-116510000D01*
X114207417Y-116510000D01*
X114025813Y-116473877D01*
X113854745Y-116403018D01*
X113854744Y-116403018D01*
X113854743Y-116403017D01*
X113700785Y-116300145D01*
X113569855Y-116169215D01*
X113466983Y-116015257D01*
X113466982Y-116015255D01*
X113396123Y-115844187D01*
X113360000Y-115662583D01*
X113360000Y-115477417D01*
X113396123Y-115295813D01*
X113466982Y-115124745D01*
X113569854Y-114970786D01*
X113700786Y-114839854D01*
X113777242Y-114788768D01*
X113854743Y-114736983D01*
X113854745Y-114736982D01*
X114025813Y-114666123D01*
X114207417Y-114630000D01*
X114392583Y-114630000D01*
X114574187Y-114666123D01*
G37*
M02*
