G04 #@! TF.GenerationSoftware,KiCad,Pcbnew,5.1.5-52549c5~84~ubuntu19.04.1*
G04 #@! TF.CreationDate,2019-11-27T18:15:37+01:00*
G04 #@! TF.ProjectId,printplaat,7072696e-7470-46c6-9161-742e6b696361,rev?*
G04 #@! TF.SameCoordinates,Original*
G04 #@! TF.FileFunction,Copper,L1,Top*
G04 #@! TF.FilePolarity,Positive*
%FSLAX46Y46*%
G04 Gerber Fmt 4.6, Leading zero omitted, Abs format (unit mm)*
G04 Created by KiCad (PCBNEW 5.1.5-52549c5~84~ubuntu19.04.1) date 2019-11-27 18:15:37*
%MOMM*%
%LPD*%
G04 APERTURE LIST*
%ADD10R,1.600000X1.600000*%
%ADD11O,1.600000X1.600000*%
%ADD12C,1.600000*%
%ADD13R,1.700000X1.700000*%
%ADD14C,1.700000*%
%ADD15C,3.500000*%
%ADD16O,1.700000X1.700000*%
%ADD17C,1.778000*%
%ADD18C,0.800000*%
%ADD19C,0.250000*%
%ADD20C,0.254000*%
G04 APERTURE END LIST*
D10*
X99060000Y-160020000D03*
D11*
X106680000Y-167640000D03*
X99060000Y-162560000D03*
X106680000Y-165100000D03*
X99060000Y-165100000D03*
X106680000Y-162560000D03*
X99060000Y-167640000D03*
X106680000Y-160020000D03*
X101600000Y-132080000D03*
D12*
X101600000Y-121920000D03*
D10*
X146050000Y-138430000D03*
D12*
X146050000Y-135930000D03*
D13*
X124460000Y-158750000D03*
D14*
X121960000Y-158750000D03*
X121960000Y-160750000D03*
X124460000Y-160750000D03*
D15*
X129230000Y-163460000D03*
X117190000Y-163460000D03*
D12*
X141605000Y-132080000D03*
D11*
X141605000Y-121920000D03*
X98425000Y-132080000D03*
D12*
X98425000Y-121920000D03*
D13*
X147320000Y-124460000D03*
D16*
X147320000Y-121920000D03*
D12*
X98425000Y-137160000D03*
X98425000Y-139660000D03*
D17*
X111760000Y-133350000D03*
X114300000Y-133350000D03*
X116840000Y-133350000D03*
X119380000Y-133350000D03*
X121920000Y-133350000D03*
X124460000Y-133350000D03*
X127000000Y-133350000D03*
X129540000Y-133350000D03*
X129540000Y-115570000D03*
X127000000Y-115570000D03*
X124460000Y-115570000D03*
X121920000Y-115570000D03*
X119380000Y-115570000D03*
X116840000Y-115570000D03*
X114300000Y-115570000D03*
X111760000Y-115570000D03*
D18*
X146685000Y-162560000D03*
X148590000Y-158115000D03*
D19*
X141605000Y-121920000D02*
X138430000Y-118745000D01*
X101600000Y-118745000D02*
X101282500Y-119062500D01*
X138430000Y-118745000D02*
X101600000Y-118745000D01*
X101282500Y-119062500D02*
X98425000Y-121920000D01*
X147320000Y-121920000D02*
X141605000Y-121920000D01*
X113665000Y-133350000D02*
X114300000Y-133350000D01*
X114300000Y-133350000D02*
X114300000Y-132715000D01*
X99060000Y-162560000D02*
X101600000Y-160020000D01*
X101600000Y-133211370D02*
X102235000Y-133846370D01*
X101600000Y-132080000D02*
X101600000Y-133211370D01*
X102235000Y-159385000D02*
X101600000Y-160020000D01*
X102235000Y-133846370D02*
X102235000Y-159385000D01*
X115951001Y-132461001D02*
X116840000Y-133350000D01*
X105225009Y-131629991D02*
X115119991Y-131629991D01*
X102870000Y-133985000D02*
X105225009Y-131629991D01*
X99060000Y-165100000D02*
X102870000Y-161290000D01*
X102870000Y-161290000D02*
X102870000Y-133985000D01*
X115119991Y-131629991D02*
X115951001Y-132461001D01*
X130810000Y-132080000D02*
X129540000Y-133350000D01*
X141605000Y-132080000D02*
X130810000Y-132080000D01*
X120650000Y-158750000D02*
X121960000Y-158750000D01*
X146685000Y-162560000D02*
X140970000Y-168275000D01*
X120015000Y-161290000D02*
X120015000Y-159385000D01*
X127000000Y-168275000D02*
X120015000Y-161290000D01*
X140970000Y-168275000D02*
X127000000Y-168275000D01*
X120015000Y-159385000D02*
X120650000Y-158750000D01*
X128850000Y-167640000D02*
X121960000Y-160750000D01*
X139065000Y-167640000D02*
X128905000Y-167640000D01*
X148590000Y-158115000D02*
X139065000Y-167640000D01*
D20*
G36*
X110294566Y-115125466D02*
G01*
X110236000Y-115419899D01*
X110236000Y-115720101D01*
X110294566Y-116014534D01*
X110409449Y-116291885D01*
X110576232Y-116541493D01*
X110788507Y-116753768D01*
X111038115Y-116920551D01*
X111315466Y-117035434D01*
X111609899Y-117094000D01*
X111910101Y-117094000D01*
X112204534Y-117035434D01*
X112481885Y-116920551D01*
X112731493Y-116753768D01*
X112943768Y-116541493D01*
X113030000Y-116412438D01*
X113116232Y-116541493D01*
X113328507Y-116753768D01*
X113578115Y-116920551D01*
X113855466Y-117035434D01*
X114149899Y-117094000D01*
X114450101Y-117094000D01*
X114744534Y-117035434D01*
X115021885Y-116920551D01*
X115271493Y-116753768D01*
X115483768Y-116541493D01*
X115570000Y-116412438D01*
X115656232Y-116541493D01*
X115868507Y-116753768D01*
X116118115Y-116920551D01*
X116395466Y-117035434D01*
X116689899Y-117094000D01*
X116990101Y-117094000D01*
X117284534Y-117035434D01*
X117561885Y-116920551D01*
X117811493Y-116753768D01*
X118023768Y-116541493D01*
X118110000Y-116412438D01*
X118196232Y-116541493D01*
X118408507Y-116753768D01*
X118658115Y-116920551D01*
X118935466Y-117035434D01*
X119229899Y-117094000D01*
X119530101Y-117094000D01*
X119824534Y-117035434D01*
X120101885Y-116920551D01*
X120351493Y-116753768D01*
X120563768Y-116541493D01*
X120650000Y-116412438D01*
X120736232Y-116541493D01*
X120948507Y-116753768D01*
X121198115Y-116920551D01*
X121475466Y-117035434D01*
X121769899Y-117094000D01*
X122070101Y-117094000D01*
X122364534Y-117035434D01*
X122641885Y-116920551D01*
X122891493Y-116753768D01*
X123103768Y-116541493D01*
X123190000Y-116412438D01*
X123276232Y-116541493D01*
X123488507Y-116753768D01*
X123738115Y-116920551D01*
X124015466Y-117035434D01*
X124309899Y-117094000D01*
X124610101Y-117094000D01*
X124904534Y-117035434D01*
X125181885Y-116920551D01*
X125431493Y-116753768D01*
X125559030Y-116626231D01*
X126123374Y-116626231D01*
X126205727Y-116879289D01*
X126476418Y-117009086D01*
X126767230Y-117083580D01*
X127066988Y-117099908D01*
X127364171Y-117057443D01*
X127647359Y-116957816D01*
X127794273Y-116879289D01*
X127876626Y-116626231D01*
X127000000Y-115749605D01*
X126123374Y-116626231D01*
X125559030Y-116626231D01*
X125643768Y-116541493D01*
X125749417Y-116383378D01*
X125943769Y-116446626D01*
X126820395Y-115570000D01*
X126806253Y-115555858D01*
X126985858Y-115376253D01*
X127000000Y-115390395D01*
X127014143Y-115376253D01*
X127193748Y-115555858D01*
X127179605Y-115570000D01*
X128056231Y-116446626D01*
X128250583Y-116383378D01*
X128356232Y-116541493D01*
X128568507Y-116753768D01*
X128818115Y-116920551D01*
X129095466Y-117035434D01*
X129389899Y-117094000D01*
X129690101Y-117094000D01*
X129984534Y-117035434D01*
X130261885Y-116920551D01*
X130511493Y-116753768D01*
X130723768Y-116541493D01*
X130890551Y-116291885D01*
X131005434Y-116014534D01*
X131064000Y-115720101D01*
X131064000Y-115419899D01*
X131005434Y-115125466D01*
X130936895Y-114960000D01*
X146020608Y-114960000D01*
X146832249Y-115032437D01*
X147589774Y-115239672D01*
X148298625Y-115577777D01*
X148936404Y-116036067D01*
X149482946Y-116600055D01*
X149920977Y-117251913D01*
X150236651Y-117971038D01*
X150421206Y-118739768D01*
X150470000Y-119404207D01*
X150470001Y-165070597D01*
X150397563Y-165882249D01*
X150190328Y-166639774D01*
X149852221Y-167348627D01*
X149393928Y-167986410D01*
X148829945Y-168532946D01*
X148178085Y-168970978D01*
X147458963Y-169286651D01*
X146690232Y-169471206D01*
X146025792Y-169520000D01*
X100359392Y-169520000D01*
X99547751Y-169447563D01*
X98790226Y-169240328D01*
X98081373Y-168902221D01*
X97443590Y-168443928D01*
X97002774Y-167989039D01*
X97668096Y-167989039D01*
X97708754Y-168123087D01*
X97828963Y-168377420D01*
X97996481Y-168603414D01*
X98204869Y-168792385D01*
X98446119Y-168937070D01*
X98710960Y-169031909D01*
X98933000Y-168910624D01*
X98933000Y-167767000D01*
X99187000Y-167767000D01*
X99187000Y-168910624D01*
X99409040Y-169031909D01*
X99673881Y-168937070D01*
X99915131Y-168792385D01*
X100123519Y-168603414D01*
X100291037Y-168377420D01*
X100411246Y-168123087D01*
X100451904Y-167989039D01*
X100329915Y-167767000D01*
X99187000Y-167767000D01*
X98933000Y-167767000D01*
X97790085Y-167767000D01*
X97668096Y-167989039D01*
X97002774Y-167989039D01*
X96897054Y-167879945D01*
X96459022Y-167228085D01*
X96143349Y-166508963D01*
X95958794Y-165740232D01*
X95910000Y-165075792D01*
X95910000Y-159220000D01*
X97621928Y-159220000D01*
X97621928Y-160820000D01*
X97634188Y-160944482D01*
X97670498Y-161064180D01*
X97729463Y-161174494D01*
X97808815Y-161271185D01*
X97905506Y-161350537D01*
X98015820Y-161409502D01*
X98135518Y-161445812D01*
X98143961Y-161446643D01*
X97945363Y-161645241D01*
X97788320Y-161880273D01*
X97680147Y-162141426D01*
X97625000Y-162418665D01*
X97625000Y-162701335D01*
X97680147Y-162978574D01*
X97788320Y-163239727D01*
X97945363Y-163474759D01*
X98145241Y-163674637D01*
X98377759Y-163830000D01*
X98145241Y-163985363D01*
X97945363Y-164185241D01*
X97788320Y-164420273D01*
X97680147Y-164681426D01*
X97625000Y-164958665D01*
X97625000Y-165241335D01*
X97680147Y-165518574D01*
X97788320Y-165779727D01*
X97945363Y-166014759D01*
X98145241Y-166214637D01*
X98380273Y-166371680D01*
X98390865Y-166376067D01*
X98204869Y-166487615D01*
X97996481Y-166676586D01*
X97828963Y-166902580D01*
X97708754Y-167156913D01*
X97668096Y-167290961D01*
X97790085Y-167513000D01*
X98933000Y-167513000D01*
X98933000Y-167493000D01*
X99187000Y-167493000D01*
X99187000Y-167513000D01*
X100329915Y-167513000D01*
X100451904Y-167290961D01*
X100411246Y-167156913D01*
X100291037Y-166902580D01*
X100123519Y-166676586D01*
X99915131Y-166487615D01*
X99729135Y-166376067D01*
X99739727Y-166371680D01*
X99974759Y-166214637D01*
X100174637Y-166014759D01*
X100331680Y-165779727D01*
X100439853Y-165518574D01*
X100495000Y-165241335D01*
X100495000Y-164958665D01*
X100458688Y-164776113D01*
X103381004Y-161853798D01*
X103410001Y-161830001D01*
X103504974Y-161714276D01*
X103575546Y-161582247D01*
X103619003Y-161438986D01*
X103630000Y-161327333D01*
X103630000Y-161327325D01*
X103633676Y-161290000D01*
X103630000Y-161252675D01*
X103630000Y-159878665D01*
X105245000Y-159878665D01*
X105245000Y-160161335D01*
X105300147Y-160438574D01*
X105408320Y-160699727D01*
X105565363Y-160934759D01*
X105765241Y-161134637D01*
X105997759Y-161290000D01*
X105765241Y-161445363D01*
X105565363Y-161645241D01*
X105408320Y-161880273D01*
X105300147Y-162141426D01*
X105245000Y-162418665D01*
X105245000Y-162701335D01*
X105300147Y-162978574D01*
X105408320Y-163239727D01*
X105565363Y-163474759D01*
X105765241Y-163674637D01*
X105997759Y-163830000D01*
X105765241Y-163985363D01*
X105565363Y-164185241D01*
X105408320Y-164420273D01*
X105300147Y-164681426D01*
X105245000Y-164958665D01*
X105245000Y-165241335D01*
X105300147Y-165518574D01*
X105408320Y-165779727D01*
X105565363Y-166014759D01*
X105765241Y-166214637D01*
X105997759Y-166370000D01*
X105765241Y-166525363D01*
X105565363Y-166725241D01*
X105408320Y-166960273D01*
X105300147Y-167221426D01*
X105245000Y-167498665D01*
X105245000Y-167781335D01*
X105300147Y-168058574D01*
X105408320Y-168319727D01*
X105565363Y-168554759D01*
X105765241Y-168754637D01*
X106000273Y-168911680D01*
X106261426Y-169019853D01*
X106538665Y-169075000D01*
X106821335Y-169075000D01*
X107098574Y-169019853D01*
X107359727Y-168911680D01*
X107594759Y-168754637D01*
X107794637Y-168554759D01*
X107951680Y-168319727D01*
X108059853Y-168058574D01*
X108115000Y-167781335D01*
X108115000Y-167498665D01*
X108059853Y-167221426D01*
X107951680Y-166960273D01*
X107794637Y-166725241D01*
X107594759Y-166525363D01*
X107362241Y-166370000D01*
X107594759Y-166214637D01*
X107794637Y-166014759D01*
X107951680Y-165779727D01*
X108059853Y-165518574D01*
X108115000Y-165241335D01*
X108115000Y-164958665D01*
X108059853Y-164681426D01*
X107951680Y-164420273D01*
X107794637Y-164185241D01*
X107594759Y-163985363D01*
X107362241Y-163830000D01*
X107594759Y-163674637D01*
X107794637Y-163474759D01*
X107951680Y-163239727D01*
X107957739Y-163225098D01*
X114805000Y-163225098D01*
X114805000Y-163694902D01*
X114896654Y-164155679D01*
X115076440Y-164589721D01*
X115337450Y-164980349D01*
X115669651Y-165312550D01*
X116060279Y-165573560D01*
X116494321Y-165753346D01*
X116955098Y-165845000D01*
X117424902Y-165845000D01*
X117885679Y-165753346D01*
X118319721Y-165573560D01*
X118710349Y-165312550D01*
X119042550Y-164980349D01*
X119303560Y-164589721D01*
X119483346Y-164155679D01*
X119575000Y-163694902D01*
X119575000Y-163225098D01*
X119483346Y-162764321D01*
X119303560Y-162330279D01*
X119042550Y-161939651D01*
X118710349Y-161607450D01*
X118319721Y-161346440D01*
X117885679Y-161166654D01*
X117424902Y-161075000D01*
X116955098Y-161075000D01*
X116494321Y-161166654D01*
X116060279Y-161346440D01*
X115669651Y-161607450D01*
X115337450Y-161939651D01*
X115076440Y-162330279D01*
X114896654Y-162764321D01*
X114805000Y-163225098D01*
X107957739Y-163225098D01*
X108059853Y-162978574D01*
X108115000Y-162701335D01*
X108115000Y-162418665D01*
X108059853Y-162141426D01*
X107951680Y-161880273D01*
X107794637Y-161645241D01*
X107594759Y-161445363D01*
X107362241Y-161290000D01*
X107594759Y-161134637D01*
X107794637Y-160934759D01*
X107951680Y-160699727D01*
X108059853Y-160438574D01*
X108115000Y-160161335D01*
X108115000Y-159878665D01*
X108059853Y-159601426D01*
X107951680Y-159340273D01*
X107794637Y-159105241D01*
X107594759Y-158905363D01*
X107359727Y-158748320D01*
X107098574Y-158640147D01*
X106821335Y-158585000D01*
X106538665Y-158585000D01*
X106261426Y-158640147D01*
X106000273Y-158748320D01*
X105765241Y-158905363D01*
X105565363Y-159105241D01*
X105408320Y-159340273D01*
X105300147Y-159601426D01*
X105245000Y-159878665D01*
X103630000Y-159878665D01*
X103630000Y-134299801D01*
X105539811Y-132389991D01*
X110568559Y-132389991D01*
X110409449Y-132628115D01*
X110294566Y-132905466D01*
X110236000Y-133199899D01*
X110236000Y-133500101D01*
X110294566Y-133794534D01*
X110363105Y-133960000D01*
X107917581Y-133960000D01*
X107888254Y-133962888D01*
X107872451Y-133962778D01*
X107863280Y-133963678D01*
X107370273Y-134015495D01*
X107311742Y-134027510D01*
X107252917Y-134038731D01*
X107244095Y-134041395D01*
X106770542Y-134187984D01*
X106715427Y-134211153D01*
X106659934Y-134233573D01*
X106651798Y-134237900D01*
X106215738Y-134473677D01*
X106166171Y-134507110D01*
X106116092Y-134539881D01*
X106108951Y-134545706D01*
X105726991Y-134861690D01*
X105684850Y-134904126D01*
X105642101Y-134945989D01*
X105636227Y-134953089D01*
X105322917Y-135337246D01*
X105289824Y-135387054D01*
X105256017Y-135436428D01*
X105251634Y-135444534D01*
X105018908Y-135882230D01*
X104996122Y-135937512D01*
X104972547Y-135992517D01*
X104969822Y-136001320D01*
X104826543Y-136475884D01*
X104814923Y-136534572D01*
X104802487Y-136593075D01*
X104801524Y-136602240D01*
X104753150Y-137095595D01*
X104750000Y-137127582D01*
X104750001Y-154972419D01*
X104752888Y-155001737D01*
X104752778Y-155017550D01*
X104753678Y-155026721D01*
X104805495Y-155519727D01*
X104817522Y-155578320D01*
X104828732Y-155637084D01*
X104831395Y-155645906D01*
X104977984Y-156119458D01*
X105001158Y-156174584D01*
X105023573Y-156230066D01*
X105027900Y-156238202D01*
X105263677Y-156674262D01*
X105297110Y-156723829D01*
X105329881Y-156773908D01*
X105335706Y-156781049D01*
X105651690Y-157163009D01*
X105694107Y-157205131D01*
X105735989Y-157247900D01*
X105743090Y-157253773D01*
X106127246Y-157567084D01*
X106177073Y-157600188D01*
X106226428Y-157633983D01*
X106234531Y-157638364D01*
X106234539Y-157638368D01*
X106672230Y-157871092D01*
X106727536Y-157893888D01*
X106782517Y-157917453D01*
X106791320Y-157920178D01*
X107265885Y-158063457D01*
X107324558Y-158075074D01*
X107383075Y-158087513D01*
X107392240Y-158088476D01*
X107885595Y-158136850D01*
X107885598Y-158136850D01*
X107917581Y-158140000D01*
X120195293Y-158140000D01*
X120109999Y-158209999D01*
X120086200Y-158238998D01*
X119503998Y-158821201D01*
X119475000Y-158844999D01*
X119451202Y-158873997D01*
X119451201Y-158873998D01*
X119380026Y-158960724D01*
X119309454Y-159092754D01*
X119265998Y-159236015D01*
X119251324Y-159385000D01*
X119255001Y-159422332D01*
X119255000Y-161252677D01*
X119251324Y-161290000D01*
X119255000Y-161327322D01*
X119255000Y-161327332D01*
X119265997Y-161438985D01*
X119292089Y-161525000D01*
X119309454Y-161582246D01*
X119380026Y-161714276D01*
X119414320Y-161756063D01*
X119474999Y-161830001D01*
X119504003Y-161853804D01*
X126436201Y-168786003D01*
X126459999Y-168815001D01*
X126575724Y-168909974D01*
X126707753Y-168980546D01*
X126851014Y-169024003D01*
X126962667Y-169035000D01*
X126962675Y-169035000D01*
X127000000Y-169038676D01*
X127037325Y-169035000D01*
X140932678Y-169035000D01*
X140970000Y-169038676D01*
X141007322Y-169035000D01*
X141007333Y-169035000D01*
X141118986Y-169024003D01*
X141262247Y-168980546D01*
X141394276Y-168909974D01*
X141510001Y-168815001D01*
X141533804Y-168785997D01*
X146724802Y-163595000D01*
X146786939Y-163595000D01*
X146986898Y-163555226D01*
X147175256Y-163477205D01*
X147344774Y-163363937D01*
X147488937Y-163219774D01*
X147602205Y-163050256D01*
X147680226Y-162861898D01*
X147720000Y-162661939D01*
X147720000Y-162458061D01*
X147680226Y-162258102D01*
X147602205Y-162069744D01*
X147488937Y-161900226D01*
X147344774Y-161756063D01*
X147175256Y-161642795D01*
X146986898Y-161564774D01*
X146786939Y-161525000D01*
X146583061Y-161525000D01*
X146383102Y-161564774D01*
X146194744Y-161642795D01*
X146025226Y-161756063D01*
X145881063Y-161900226D01*
X145767795Y-162069744D01*
X145689774Y-162258102D01*
X145650000Y-162458061D01*
X145650000Y-162520198D01*
X140655199Y-167515000D01*
X140264801Y-167515000D01*
X148629802Y-159150000D01*
X148691939Y-159150000D01*
X148891898Y-159110226D01*
X149080256Y-159032205D01*
X149249774Y-158918937D01*
X149393937Y-158774774D01*
X149507205Y-158605256D01*
X149585226Y-158416898D01*
X149625000Y-158216939D01*
X149625000Y-158013061D01*
X149585226Y-157813102D01*
X149507205Y-157624744D01*
X149393937Y-157455226D01*
X149249774Y-157311063D01*
X149080256Y-157197795D01*
X148891898Y-157119774D01*
X148691939Y-157080000D01*
X148488061Y-157080000D01*
X148288102Y-157119774D01*
X148099744Y-157197795D01*
X147930226Y-157311063D01*
X147786063Y-157455226D01*
X147672795Y-157624744D01*
X147594774Y-157813102D01*
X147555000Y-158013061D01*
X147555000Y-158075198D01*
X138750199Y-166880000D01*
X129164803Y-166880000D01*
X125509901Y-163225098D01*
X126845000Y-163225098D01*
X126845000Y-163694902D01*
X126936654Y-164155679D01*
X127116440Y-164589721D01*
X127377450Y-164980349D01*
X127709651Y-165312550D01*
X128100279Y-165573560D01*
X128534321Y-165753346D01*
X128995098Y-165845000D01*
X129464902Y-165845000D01*
X129925679Y-165753346D01*
X130359721Y-165573560D01*
X130750349Y-165312550D01*
X131082550Y-164980349D01*
X131343560Y-164589721D01*
X131523346Y-164155679D01*
X131615000Y-163694902D01*
X131615000Y-163225098D01*
X131523346Y-162764321D01*
X131343560Y-162330279D01*
X131082550Y-161939651D01*
X130750349Y-161607450D01*
X130359721Y-161346440D01*
X129925679Y-161166654D01*
X129464902Y-161075000D01*
X128995098Y-161075000D01*
X128534321Y-161166654D01*
X128100279Y-161346440D01*
X127709651Y-161607450D01*
X127377450Y-161939651D01*
X127116440Y-162330279D01*
X126936654Y-162764321D01*
X126845000Y-163225098D01*
X125509901Y-163225098D01*
X124525241Y-162240439D01*
X124528531Y-162240611D01*
X124818019Y-162198599D01*
X125093747Y-162100919D01*
X125231157Y-162027472D01*
X125308792Y-161778397D01*
X124460000Y-160929605D01*
X124445858Y-160943748D01*
X124266253Y-160764143D01*
X124280395Y-160750000D01*
X124266253Y-160735858D01*
X124445858Y-160556253D01*
X124460000Y-160570395D01*
X124474143Y-160556253D01*
X124653748Y-160735858D01*
X124639605Y-160750000D01*
X125488397Y-161598792D01*
X125737472Y-161521157D01*
X125863371Y-161257117D01*
X125935339Y-160973589D01*
X125950611Y-160681469D01*
X125908599Y-160391981D01*
X125810919Y-160116253D01*
X125770241Y-160040150D01*
X125840537Y-159954494D01*
X125899502Y-159844180D01*
X125935812Y-159724482D01*
X125948072Y-159600000D01*
X125948072Y-158140000D01*
X138462419Y-158140000D01*
X138491746Y-158137112D01*
X138507550Y-158137222D01*
X138516721Y-158136322D01*
X139009727Y-158084505D01*
X139068320Y-158072478D01*
X139127084Y-158061268D01*
X139135906Y-158058605D01*
X139609458Y-157912016D01*
X139664584Y-157888842D01*
X139720066Y-157866427D01*
X139728202Y-157862100D01*
X140164262Y-157626323D01*
X140213829Y-157592890D01*
X140263908Y-157560119D01*
X140271049Y-157554294D01*
X140653009Y-157238310D01*
X140695131Y-157195893D01*
X140737900Y-157154011D01*
X140743773Y-157146910D01*
X141057084Y-156762754D01*
X141090188Y-156712927D01*
X141123983Y-156663572D01*
X141128364Y-156655469D01*
X141128368Y-156655461D01*
X141361092Y-156217770D01*
X141383888Y-156162464D01*
X141407453Y-156107483D01*
X141410178Y-156098680D01*
X141553457Y-155624115D01*
X141565074Y-155565442D01*
X141577513Y-155506925D01*
X141578476Y-155497760D01*
X141626850Y-155004405D01*
X141626850Y-155004402D01*
X141630000Y-154972419D01*
X141630000Y-137630000D01*
X144611928Y-137630000D01*
X144611928Y-139230000D01*
X144624188Y-139354482D01*
X144660498Y-139474180D01*
X144719463Y-139584494D01*
X144798815Y-139681185D01*
X144895506Y-139760537D01*
X145005820Y-139819502D01*
X145125518Y-139855812D01*
X145250000Y-139868072D01*
X146850000Y-139868072D01*
X146974482Y-139855812D01*
X147094180Y-139819502D01*
X147204494Y-139760537D01*
X147301185Y-139681185D01*
X147380537Y-139584494D01*
X147439502Y-139474180D01*
X147475812Y-139354482D01*
X147488072Y-139230000D01*
X147488072Y-137630000D01*
X147475812Y-137505518D01*
X147439502Y-137385820D01*
X147380537Y-137275506D01*
X147301185Y-137178815D01*
X147204494Y-137099463D01*
X147094180Y-137040498D01*
X146974482Y-137004188D01*
X146850000Y-136991928D01*
X146842785Y-136991928D01*
X146863097Y-136922702D01*
X146050000Y-136109605D01*
X145236903Y-136922702D01*
X145257215Y-136991928D01*
X145250000Y-136991928D01*
X145125518Y-137004188D01*
X145005820Y-137040498D01*
X144895506Y-137099463D01*
X144798815Y-137178815D01*
X144719463Y-137275506D01*
X144660498Y-137385820D01*
X144624188Y-137505518D01*
X144611928Y-137630000D01*
X141630000Y-137630000D01*
X141630000Y-137127581D01*
X141627112Y-137098254D01*
X141627222Y-137082451D01*
X141626322Y-137073280D01*
X141574505Y-136580273D01*
X141562490Y-136521742D01*
X141551269Y-136462917D01*
X141548605Y-136454095D01*
X141408198Y-136000512D01*
X144609783Y-136000512D01*
X144651213Y-136280130D01*
X144746397Y-136546292D01*
X144813329Y-136671514D01*
X145057298Y-136743097D01*
X145870395Y-135930000D01*
X146229605Y-135930000D01*
X147042702Y-136743097D01*
X147286671Y-136671514D01*
X147407571Y-136416004D01*
X147476300Y-136141816D01*
X147490217Y-135859488D01*
X147448787Y-135579870D01*
X147353603Y-135313708D01*
X147286671Y-135188486D01*
X147042702Y-135116903D01*
X146229605Y-135930000D01*
X145870395Y-135930000D01*
X145057298Y-135116903D01*
X144813329Y-135188486D01*
X144692429Y-135443996D01*
X144623700Y-135718184D01*
X144609783Y-136000512D01*
X141408198Y-136000512D01*
X141402016Y-135980542D01*
X141378847Y-135925427D01*
X141356427Y-135869934D01*
X141352100Y-135861798D01*
X141116323Y-135425738D01*
X141082890Y-135376171D01*
X141050119Y-135326092D01*
X141044294Y-135318951D01*
X140728564Y-134937298D01*
X145236903Y-134937298D01*
X146050000Y-135750395D01*
X146863097Y-134937298D01*
X146791514Y-134693329D01*
X146536004Y-134572429D01*
X146261816Y-134503700D01*
X145979488Y-134489783D01*
X145699870Y-134531213D01*
X145433708Y-134626397D01*
X145308486Y-134693329D01*
X145236903Y-134937298D01*
X140728564Y-134937298D01*
X140728310Y-134936991D01*
X140685874Y-134894850D01*
X140644011Y-134852101D01*
X140636911Y-134846227D01*
X140252754Y-134532917D01*
X140202946Y-134499824D01*
X140153572Y-134466017D01*
X140145466Y-134461634D01*
X139707770Y-134228908D01*
X139652488Y-134206122D01*
X139597483Y-134182547D01*
X139588680Y-134179822D01*
X139114116Y-134036543D01*
X139055428Y-134024923D01*
X138996925Y-134012487D01*
X138987760Y-134011524D01*
X138494405Y-133963150D01*
X138494402Y-133963150D01*
X138462419Y-133960000D01*
X130936895Y-133960000D01*
X131005434Y-133794534D01*
X131064000Y-133500101D01*
X131064000Y-133199899D01*
X131014377Y-132950425D01*
X131124802Y-132840000D01*
X140386957Y-132840000D01*
X140490363Y-132994759D01*
X140690241Y-133194637D01*
X140925273Y-133351680D01*
X141186426Y-133459853D01*
X141463665Y-133515000D01*
X141746335Y-133515000D01*
X142023574Y-133459853D01*
X142284727Y-133351680D01*
X142519759Y-133194637D01*
X142719637Y-132994759D01*
X142876680Y-132759727D01*
X142984853Y-132498574D01*
X143040000Y-132221335D01*
X143040000Y-131938665D01*
X142984853Y-131661426D01*
X142876680Y-131400273D01*
X142719637Y-131165241D01*
X142519759Y-130965363D01*
X142284727Y-130808320D01*
X142023574Y-130700147D01*
X141746335Y-130645000D01*
X141463665Y-130645000D01*
X141186426Y-130700147D01*
X140925273Y-130808320D01*
X140690241Y-130965363D01*
X140490363Y-131165241D01*
X140386957Y-131320000D01*
X130847322Y-131320000D01*
X130809999Y-131316324D01*
X130772676Y-131320000D01*
X130772667Y-131320000D01*
X130661014Y-131330997D01*
X130517753Y-131374454D01*
X130385724Y-131445026D01*
X130269999Y-131539999D01*
X130246201Y-131568997D01*
X129939575Y-131875623D01*
X129690101Y-131826000D01*
X129389899Y-131826000D01*
X129095466Y-131884566D01*
X128818115Y-131999449D01*
X128568507Y-132166232D01*
X128356232Y-132378507D01*
X128250583Y-132536622D01*
X128056231Y-132473374D01*
X127179605Y-133350000D01*
X127193748Y-133364143D01*
X127014143Y-133543748D01*
X127000000Y-133529605D01*
X126985858Y-133543748D01*
X126806253Y-133364143D01*
X126820395Y-133350000D01*
X125943769Y-132473374D01*
X125749417Y-132536622D01*
X125643768Y-132378507D01*
X125559030Y-132293769D01*
X126123374Y-132293769D01*
X127000000Y-133170395D01*
X127876626Y-132293769D01*
X127794273Y-132040711D01*
X127523582Y-131910914D01*
X127232770Y-131836420D01*
X126933012Y-131820092D01*
X126635829Y-131862557D01*
X126352641Y-131962184D01*
X126205727Y-132040711D01*
X126123374Y-132293769D01*
X125559030Y-132293769D01*
X125431493Y-132166232D01*
X125181885Y-131999449D01*
X124904534Y-131884566D01*
X124610101Y-131826000D01*
X124309899Y-131826000D01*
X124015466Y-131884566D01*
X123738115Y-131999449D01*
X123488507Y-132166232D01*
X123276232Y-132378507D01*
X123190000Y-132507562D01*
X123103768Y-132378507D01*
X122891493Y-132166232D01*
X122641885Y-131999449D01*
X122364534Y-131884566D01*
X122070101Y-131826000D01*
X121769899Y-131826000D01*
X121475466Y-131884566D01*
X121198115Y-131999449D01*
X120948507Y-132166232D01*
X120736232Y-132378507D01*
X120650000Y-132507562D01*
X120563768Y-132378507D01*
X120351493Y-132166232D01*
X120101885Y-131999449D01*
X119824534Y-131884566D01*
X119530101Y-131826000D01*
X119229899Y-131826000D01*
X118935466Y-131884566D01*
X118658115Y-131999449D01*
X118408507Y-132166232D01*
X118196232Y-132378507D01*
X118110000Y-132507562D01*
X118023768Y-132378507D01*
X117811493Y-132166232D01*
X117561885Y-131999449D01*
X117284534Y-131884566D01*
X116990101Y-131826000D01*
X116689899Y-131826000D01*
X116440425Y-131875623D01*
X115683794Y-131118993D01*
X115659992Y-131089990D01*
X115544267Y-130995017D01*
X115412238Y-130924445D01*
X115268977Y-130880988D01*
X115157324Y-130869991D01*
X115157313Y-130869991D01*
X115119991Y-130866315D01*
X115082669Y-130869991D01*
X105262334Y-130869991D01*
X105225009Y-130866315D01*
X105187684Y-130869991D01*
X105187676Y-130869991D01*
X105076023Y-130880988D01*
X104932762Y-130924445D01*
X104800733Y-130995017D01*
X104685008Y-131089990D01*
X104661210Y-131118988D01*
X102621815Y-133158384D01*
X102586414Y-133122982D01*
X102714637Y-132994759D01*
X102871680Y-132759727D01*
X102979853Y-132498574D01*
X103035000Y-132221335D01*
X103035000Y-131938665D01*
X102979853Y-131661426D01*
X102871680Y-131400273D01*
X102714637Y-131165241D01*
X102514759Y-130965363D01*
X102279727Y-130808320D01*
X102018574Y-130700147D01*
X101741335Y-130645000D01*
X101458665Y-130645000D01*
X101181426Y-130700147D01*
X100920273Y-130808320D01*
X100685241Y-130965363D01*
X100485363Y-131165241D01*
X100328320Y-131400273D01*
X100220147Y-131661426D01*
X100165000Y-131938665D01*
X100165000Y-132221335D01*
X100220147Y-132498574D01*
X100328320Y-132759727D01*
X100485363Y-132994759D01*
X100685241Y-133194637D01*
X100845203Y-133301520D01*
X100850144Y-133351680D01*
X100850998Y-133360355D01*
X100894454Y-133503616D01*
X100965026Y-133635646D01*
X101029471Y-133714171D01*
X101060000Y-133751371D01*
X101088998Y-133775169D01*
X101475000Y-134161172D01*
X101475001Y-159070197D01*
X101089007Y-159456192D01*
X101088996Y-159456201D01*
X100498072Y-160047125D01*
X100498072Y-159220000D01*
X100485812Y-159095518D01*
X100449502Y-158975820D01*
X100390537Y-158865506D01*
X100311185Y-158768815D01*
X100214494Y-158689463D01*
X100104180Y-158630498D01*
X99984482Y-158594188D01*
X99860000Y-158581928D01*
X98260000Y-158581928D01*
X98135518Y-158594188D01*
X98015820Y-158630498D01*
X97905506Y-158689463D01*
X97808815Y-158768815D01*
X97729463Y-158865506D01*
X97670498Y-158975820D01*
X97634188Y-159095518D01*
X97621928Y-159220000D01*
X95910000Y-159220000D01*
X95910000Y-140652702D01*
X97611903Y-140652702D01*
X97683486Y-140896671D01*
X97938996Y-141017571D01*
X98213184Y-141086300D01*
X98495512Y-141100217D01*
X98775130Y-141058787D01*
X99041292Y-140963603D01*
X99166514Y-140896671D01*
X99238097Y-140652702D01*
X98425000Y-139839605D01*
X97611903Y-140652702D01*
X95910000Y-140652702D01*
X95910000Y-139730512D01*
X96984783Y-139730512D01*
X97026213Y-140010130D01*
X97121397Y-140276292D01*
X97188329Y-140401514D01*
X97432298Y-140473097D01*
X98245395Y-139660000D01*
X98604605Y-139660000D01*
X99417702Y-140473097D01*
X99661671Y-140401514D01*
X99782571Y-140146004D01*
X99851300Y-139871816D01*
X99865217Y-139589488D01*
X99823787Y-139309870D01*
X99728603Y-139043708D01*
X99661671Y-138918486D01*
X99417702Y-138846903D01*
X98604605Y-139660000D01*
X98245395Y-139660000D01*
X97432298Y-138846903D01*
X97188329Y-138918486D01*
X97067429Y-139173996D01*
X96998700Y-139448184D01*
X96984783Y-139730512D01*
X95910000Y-139730512D01*
X95910000Y-137018665D01*
X96990000Y-137018665D01*
X96990000Y-137301335D01*
X97045147Y-137578574D01*
X97153320Y-137839727D01*
X97310363Y-138074759D01*
X97510241Y-138274637D01*
X97710869Y-138408692D01*
X97683486Y-138423329D01*
X97611903Y-138667298D01*
X98425000Y-139480395D01*
X99238097Y-138667298D01*
X99166514Y-138423329D01*
X99137659Y-138409676D01*
X99339759Y-138274637D01*
X99539637Y-138074759D01*
X99696680Y-137839727D01*
X99804853Y-137578574D01*
X99860000Y-137301335D01*
X99860000Y-137018665D01*
X99804853Y-136741426D01*
X99696680Y-136480273D01*
X99539637Y-136245241D01*
X99339759Y-136045363D01*
X99104727Y-135888320D01*
X98843574Y-135780147D01*
X98566335Y-135725000D01*
X98283665Y-135725000D01*
X98006426Y-135780147D01*
X97745273Y-135888320D01*
X97510241Y-136045363D01*
X97310363Y-136245241D01*
X97153320Y-136480273D01*
X97045147Y-136741426D01*
X96990000Y-137018665D01*
X95910000Y-137018665D01*
X95910000Y-131938665D01*
X96990000Y-131938665D01*
X96990000Y-132221335D01*
X97045147Y-132498574D01*
X97153320Y-132759727D01*
X97310363Y-132994759D01*
X97510241Y-133194637D01*
X97745273Y-133351680D01*
X98006426Y-133459853D01*
X98283665Y-133515000D01*
X98566335Y-133515000D01*
X98843574Y-133459853D01*
X99104727Y-133351680D01*
X99339759Y-133194637D01*
X99539637Y-132994759D01*
X99696680Y-132759727D01*
X99804853Y-132498574D01*
X99860000Y-132221335D01*
X99860000Y-131938665D01*
X99804853Y-131661426D01*
X99696680Y-131400273D01*
X99539637Y-131165241D01*
X99339759Y-130965363D01*
X99104727Y-130808320D01*
X98843574Y-130700147D01*
X98566335Y-130645000D01*
X98283665Y-130645000D01*
X98006426Y-130700147D01*
X97745273Y-130808320D01*
X97510241Y-130965363D01*
X97310363Y-131165241D01*
X97153320Y-131400273D01*
X97045147Y-131661426D01*
X96990000Y-131938665D01*
X95910000Y-131938665D01*
X95910000Y-125310000D01*
X145831928Y-125310000D01*
X145844188Y-125434482D01*
X145880498Y-125554180D01*
X145939463Y-125664494D01*
X146018815Y-125761185D01*
X146115506Y-125840537D01*
X146225820Y-125899502D01*
X146345518Y-125935812D01*
X146470000Y-125948072D01*
X147034250Y-125945000D01*
X147193000Y-125786250D01*
X147193000Y-124587000D01*
X147447000Y-124587000D01*
X147447000Y-125786250D01*
X147605750Y-125945000D01*
X148170000Y-125948072D01*
X148294482Y-125935812D01*
X148414180Y-125899502D01*
X148524494Y-125840537D01*
X148621185Y-125761185D01*
X148700537Y-125664494D01*
X148759502Y-125554180D01*
X148795812Y-125434482D01*
X148808072Y-125310000D01*
X148805000Y-124745750D01*
X148646250Y-124587000D01*
X147447000Y-124587000D01*
X147193000Y-124587000D01*
X145993750Y-124587000D01*
X145835000Y-124745750D01*
X145831928Y-125310000D01*
X95910000Y-125310000D01*
X95910000Y-121778665D01*
X96990000Y-121778665D01*
X96990000Y-122061335D01*
X97045147Y-122338574D01*
X97153320Y-122599727D01*
X97310363Y-122834759D01*
X97510241Y-123034637D01*
X97745273Y-123191680D01*
X98006426Y-123299853D01*
X98283665Y-123355000D01*
X98566335Y-123355000D01*
X98843574Y-123299853D01*
X99104727Y-123191680D01*
X99339759Y-123034637D01*
X99539637Y-122834759D01*
X99696680Y-122599727D01*
X99804853Y-122338574D01*
X99860000Y-122061335D01*
X99860000Y-121778665D01*
X100165000Y-121778665D01*
X100165000Y-122061335D01*
X100220147Y-122338574D01*
X100328320Y-122599727D01*
X100485363Y-122834759D01*
X100685241Y-123034637D01*
X100920273Y-123191680D01*
X101181426Y-123299853D01*
X101458665Y-123355000D01*
X101741335Y-123355000D01*
X102018574Y-123299853D01*
X102279727Y-123191680D01*
X102514759Y-123034637D01*
X102714637Y-122834759D01*
X102871680Y-122599727D01*
X102979853Y-122338574D01*
X103035000Y-122061335D01*
X103035000Y-121778665D01*
X102979853Y-121501426D01*
X102871680Y-121240273D01*
X102714637Y-121005241D01*
X102514759Y-120805363D01*
X102279727Y-120648320D01*
X102018574Y-120540147D01*
X101741335Y-120485000D01*
X101458665Y-120485000D01*
X101181426Y-120540147D01*
X100920273Y-120648320D01*
X100685241Y-120805363D01*
X100485363Y-121005241D01*
X100328320Y-121240273D01*
X100220147Y-121501426D01*
X100165000Y-121778665D01*
X99860000Y-121778665D01*
X99823688Y-121596114D01*
X101846299Y-119573503D01*
X101846304Y-119573497D01*
X101914801Y-119505000D01*
X138115199Y-119505000D01*
X140206312Y-121596114D01*
X140170000Y-121778665D01*
X140170000Y-122061335D01*
X140225147Y-122338574D01*
X140333320Y-122599727D01*
X140490363Y-122834759D01*
X140690241Y-123034637D01*
X140925273Y-123191680D01*
X141186426Y-123299853D01*
X141463665Y-123355000D01*
X141746335Y-123355000D01*
X142023574Y-123299853D01*
X142284727Y-123191680D01*
X142519759Y-123034637D01*
X142719637Y-122834759D01*
X142823043Y-122680000D01*
X146041822Y-122680000D01*
X146166525Y-122866632D01*
X146298380Y-122998487D01*
X146225820Y-123020498D01*
X146115506Y-123079463D01*
X146018815Y-123158815D01*
X145939463Y-123255506D01*
X145880498Y-123365820D01*
X145844188Y-123485518D01*
X145831928Y-123610000D01*
X145835000Y-124174250D01*
X145993750Y-124333000D01*
X147193000Y-124333000D01*
X147193000Y-124313000D01*
X147447000Y-124313000D01*
X147447000Y-124333000D01*
X148646250Y-124333000D01*
X148805000Y-124174250D01*
X148808072Y-123610000D01*
X148795812Y-123485518D01*
X148759502Y-123365820D01*
X148700537Y-123255506D01*
X148621185Y-123158815D01*
X148524494Y-123079463D01*
X148414180Y-123020498D01*
X148341620Y-122998487D01*
X148473475Y-122866632D01*
X148635990Y-122623411D01*
X148747932Y-122353158D01*
X148805000Y-122066260D01*
X148805000Y-121773740D01*
X148747932Y-121486842D01*
X148635990Y-121216589D01*
X148473475Y-120973368D01*
X148266632Y-120766525D01*
X148023411Y-120604010D01*
X147753158Y-120492068D01*
X147466260Y-120435000D01*
X147173740Y-120435000D01*
X146886842Y-120492068D01*
X146616589Y-120604010D01*
X146373368Y-120766525D01*
X146166525Y-120973368D01*
X146041822Y-121160000D01*
X142823043Y-121160000D01*
X142719637Y-121005241D01*
X142519759Y-120805363D01*
X142284727Y-120648320D01*
X142023574Y-120540147D01*
X141746335Y-120485000D01*
X141463665Y-120485000D01*
X141281114Y-120521312D01*
X138993804Y-118234003D01*
X138970001Y-118204999D01*
X138854276Y-118110026D01*
X138722247Y-118039454D01*
X138578986Y-117995997D01*
X138467333Y-117985000D01*
X138467322Y-117985000D01*
X138430000Y-117981324D01*
X138392678Y-117985000D01*
X101637323Y-117985000D01*
X101600000Y-117981324D01*
X101562677Y-117985000D01*
X101562667Y-117985000D01*
X101451014Y-117995997D01*
X101307753Y-118039454D01*
X101175724Y-118110026D01*
X101059999Y-118204999D01*
X101036196Y-118234003D01*
X100771503Y-118498696D01*
X100771497Y-118498701D01*
X98748886Y-120521312D01*
X98566335Y-120485000D01*
X98283665Y-120485000D01*
X98006426Y-120540147D01*
X97745273Y-120648320D01*
X97510241Y-120805363D01*
X97310363Y-121005241D01*
X97153320Y-121240273D01*
X97045147Y-121501426D01*
X96990000Y-121778665D01*
X95910000Y-121778665D01*
X95910000Y-119409392D01*
X95982437Y-118597751D01*
X96189672Y-117840226D01*
X96527777Y-117131375D01*
X96986067Y-116493596D01*
X97550055Y-115947054D01*
X98201913Y-115509023D01*
X98921038Y-115193349D01*
X99689768Y-115008794D01*
X100354207Y-114960000D01*
X110363105Y-114960000D01*
X110294566Y-115125466D01*
G37*
X110294566Y-115125466D02*
X110236000Y-115419899D01*
X110236000Y-115720101D01*
X110294566Y-116014534D01*
X110409449Y-116291885D01*
X110576232Y-116541493D01*
X110788507Y-116753768D01*
X111038115Y-116920551D01*
X111315466Y-117035434D01*
X111609899Y-117094000D01*
X111910101Y-117094000D01*
X112204534Y-117035434D01*
X112481885Y-116920551D01*
X112731493Y-116753768D01*
X112943768Y-116541493D01*
X113030000Y-116412438D01*
X113116232Y-116541493D01*
X113328507Y-116753768D01*
X113578115Y-116920551D01*
X113855466Y-117035434D01*
X114149899Y-117094000D01*
X114450101Y-117094000D01*
X114744534Y-117035434D01*
X115021885Y-116920551D01*
X115271493Y-116753768D01*
X115483768Y-116541493D01*
X115570000Y-116412438D01*
X115656232Y-116541493D01*
X115868507Y-116753768D01*
X116118115Y-116920551D01*
X116395466Y-117035434D01*
X116689899Y-117094000D01*
X116990101Y-117094000D01*
X117284534Y-117035434D01*
X117561885Y-116920551D01*
X117811493Y-116753768D01*
X118023768Y-116541493D01*
X118110000Y-116412438D01*
X118196232Y-116541493D01*
X118408507Y-116753768D01*
X118658115Y-116920551D01*
X118935466Y-117035434D01*
X119229899Y-117094000D01*
X119530101Y-117094000D01*
X119824534Y-117035434D01*
X120101885Y-116920551D01*
X120351493Y-116753768D01*
X120563768Y-116541493D01*
X120650000Y-116412438D01*
X120736232Y-116541493D01*
X120948507Y-116753768D01*
X121198115Y-116920551D01*
X121475466Y-117035434D01*
X121769899Y-117094000D01*
X122070101Y-117094000D01*
X122364534Y-117035434D01*
X122641885Y-116920551D01*
X122891493Y-116753768D01*
X123103768Y-116541493D01*
X123190000Y-116412438D01*
X123276232Y-116541493D01*
X123488507Y-116753768D01*
X123738115Y-116920551D01*
X124015466Y-117035434D01*
X124309899Y-117094000D01*
X124610101Y-117094000D01*
X124904534Y-117035434D01*
X125181885Y-116920551D01*
X125431493Y-116753768D01*
X125559030Y-116626231D01*
X126123374Y-116626231D01*
X126205727Y-116879289D01*
X126476418Y-117009086D01*
X126767230Y-117083580D01*
X127066988Y-117099908D01*
X127364171Y-117057443D01*
X127647359Y-116957816D01*
X127794273Y-116879289D01*
X127876626Y-116626231D01*
X127000000Y-115749605D01*
X126123374Y-116626231D01*
X125559030Y-116626231D01*
X125643768Y-116541493D01*
X125749417Y-116383378D01*
X125943769Y-116446626D01*
X126820395Y-115570000D01*
X126806253Y-115555858D01*
X126985858Y-115376253D01*
X127000000Y-115390395D01*
X127014143Y-115376253D01*
X127193748Y-115555858D01*
X127179605Y-115570000D01*
X128056231Y-116446626D01*
X128250583Y-116383378D01*
X128356232Y-116541493D01*
X128568507Y-116753768D01*
X128818115Y-116920551D01*
X129095466Y-117035434D01*
X129389899Y-117094000D01*
X129690101Y-117094000D01*
X129984534Y-117035434D01*
X130261885Y-116920551D01*
X130511493Y-116753768D01*
X130723768Y-116541493D01*
X130890551Y-116291885D01*
X131005434Y-116014534D01*
X131064000Y-115720101D01*
X131064000Y-115419899D01*
X131005434Y-115125466D01*
X130936895Y-114960000D01*
X146020608Y-114960000D01*
X146832249Y-115032437D01*
X147589774Y-115239672D01*
X148298625Y-115577777D01*
X148936404Y-116036067D01*
X149482946Y-116600055D01*
X149920977Y-117251913D01*
X150236651Y-117971038D01*
X150421206Y-118739768D01*
X150470000Y-119404207D01*
X150470001Y-165070597D01*
X150397563Y-165882249D01*
X150190328Y-166639774D01*
X149852221Y-167348627D01*
X149393928Y-167986410D01*
X148829945Y-168532946D01*
X148178085Y-168970978D01*
X147458963Y-169286651D01*
X146690232Y-169471206D01*
X146025792Y-169520000D01*
X100359392Y-169520000D01*
X99547751Y-169447563D01*
X98790226Y-169240328D01*
X98081373Y-168902221D01*
X97443590Y-168443928D01*
X97002774Y-167989039D01*
X97668096Y-167989039D01*
X97708754Y-168123087D01*
X97828963Y-168377420D01*
X97996481Y-168603414D01*
X98204869Y-168792385D01*
X98446119Y-168937070D01*
X98710960Y-169031909D01*
X98933000Y-168910624D01*
X98933000Y-167767000D01*
X99187000Y-167767000D01*
X99187000Y-168910624D01*
X99409040Y-169031909D01*
X99673881Y-168937070D01*
X99915131Y-168792385D01*
X100123519Y-168603414D01*
X100291037Y-168377420D01*
X100411246Y-168123087D01*
X100451904Y-167989039D01*
X100329915Y-167767000D01*
X99187000Y-167767000D01*
X98933000Y-167767000D01*
X97790085Y-167767000D01*
X97668096Y-167989039D01*
X97002774Y-167989039D01*
X96897054Y-167879945D01*
X96459022Y-167228085D01*
X96143349Y-166508963D01*
X95958794Y-165740232D01*
X95910000Y-165075792D01*
X95910000Y-159220000D01*
X97621928Y-159220000D01*
X97621928Y-160820000D01*
X97634188Y-160944482D01*
X97670498Y-161064180D01*
X97729463Y-161174494D01*
X97808815Y-161271185D01*
X97905506Y-161350537D01*
X98015820Y-161409502D01*
X98135518Y-161445812D01*
X98143961Y-161446643D01*
X97945363Y-161645241D01*
X97788320Y-161880273D01*
X97680147Y-162141426D01*
X97625000Y-162418665D01*
X97625000Y-162701335D01*
X97680147Y-162978574D01*
X97788320Y-163239727D01*
X97945363Y-163474759D01*
X98145241Y-163674637D01*
X98377759Y-163830000D01*
X98145241Y-163985363D01*
X97945363Y-164185241D01*
X97788320Y-164420273D01*
X97680147Y-164681426D01*
X97625000Y-164958665D01*
X97625000Y-165241335D01*
X97680147Y-165518574D01*
X97788320Y-165779727D01*
X97945363Y-166014759D01*
X98145241Y-166214637D01*
X98380273Y-166371680D01*
X98390865Y-166376067D01*
X98204869Y-166487615D01*
X97996481Y-166676586D01*
X97828963Y-166902580D01*
X97708754Y-167156913D01*
X97668096Y-167290961D01*
X97790085Y-167513000D01*
X98933000Y-167513000D01*
X98933000Y-167493000D01*
X99187000Y-167493000D01*
X99187000Y-167513000D01*
X100329915Y-167513000D01*
X100451904Y-167290961D01*
X100411246Y-167156913D01*
X100291037Y-166902580D01*
X100123519Y-166676586D01*
X99915131Y-166487615D01*
X99729135Y-166376067D01*
X99739727Y-166371680D01*
X99974759Y-166214637D01*
X100174637Y-166014759D01*
X100331680Y-165779727D01*
X100439853Y-165518574D01*
X100495000Y-165241335D01*
X100495000Y-164958665D01*
X100458688Y-164776113D01*
X103381004Y-161853798D01*
X103410001Y-161830001D01*
X103504974Y-161714276D01*
X103575546Y-161582247D01*
X103619003Y-161438986D01*
X103630000Y-161327333D01*
X103630000Y-161327325D01*
X103633676Y-161290000D01*
X103630000Y-161252675D01*
X103630000Y-159878665D01*
X105245000Y-159878665D01*
X105245000Y-160161335D01*
X105300147Y-160438574D01*
X105408320Y-160699727D01*
X105565363Y-160934759D01*
X105765241Y-161134637D01*
X105997759Y-161290000D01*
X105765241Y-161445363D01*
X105565363Y-161645241D01*
X105408320Y-161880273D01*
X105300147Y-162141426D01*
X105245000Y-162418665D01*
X105245000Y-162701335D01*
X105300147Y-162978574D01*
X105408320Y-163239727D01*
X105565363Y-163474759D01*
X105765241Y-163674637D01*
X105997759Y-163830000D01*
X105765241Y-163985363D01*
X105565363Y-164185241D01*
X105408320Y-164420273D01*
X105300147Y-164681426D01*
X105245000Y-164958665D01*
X105245000Y-165241335D01*
X105300147Y-165518574D01*
X105408320Y-165779727D01*
X105565363Y-166014759D01*
X105765241Y-166214637D01*
X105997759Y-166370000D01*
X105765241Y-166525363D01*
X105565363Y-166725241D01*
X105408320Y-166960273D01*
X105300147Y-167221426D01*
X105245000Y-167498665D01*
X105245000Y-167781335D01*
X105300147Y-168058574D01*
X105408320Y-168319727D01*
X105565363Y-168554759D01*
X105765241Y-168754637D01*
X106000273Y-168911680D01*
X106261426Y-169019853D01*
X106538665Y-169075000D01*
X106821335Y-169075000D01*
X107098574Y-169019853D01*
X107359727Y-168911680D01*
X107594759Y-168754637D01*
X107794637Y-168554759D01*
X107951680Y-168319727D01*
X108059853Y-168058574D01*
X108115000Y-167781335D01*
X108115000Y-167498665D01*
X108059853Y-167221426D01*
X107951680Y-166960273D01*
X107794637Y-166725241D01*
X107594759Y-166525363D01*
X107362241Y-166370000D01*
X107594759Y-166214637D01*
X107794637Y-166014759D01*
X107951680Y-165779727D01*
X108059853Y-165518574D01*
X108115000Y-165241335D01*
X108115000Y-164958665D01*
X108059853Y-164681426D01*
X107951680Y-164420273D01*
X107794637Y-164185241D01*
X107594759Y-163985363D01*
X107362241Y-163830000D01*
X107594759Y-163674637D01*
X107794637Y-163474759D01*
X107951680Y-163239727D01*
X107957739Y-163225098D01*
X114805000Y-163225098D01*
X114805000Y-163694902D01*
X114896654Y-164155679D01*
X115076440Y-164589721D01*
X115337450Y-164980349D01*
X115669651Y-165312550D01*
X116060279Y-165573560D01*
X116494321Y-165753346D01*
X116955098Y-165845000D01*
X117424902Y-165845000D01*
X117885679Y-165753346D01*
X118319721Y-165573560D01*
X118710349Y-165312550D01*
X119042550Y-164980349D01*
X119303560Y-164589721D01*
X119483346Y-164155679D01*
X119575000Y-163694902D01*
X119575000Y-163225098D01*
X119483346Y-162764321D01*
X119303560Y-162330279D01*
X119042550Y-161939651D01*
X118710349Y-161607450D01*
X118319721Y-161346440D01*
X117885679Y-161166654D01*
X117424902Y-161075000D01*
X116955098Y-161075000D01*
X116494321Y-161166654D01*
X116060279Y-161346440D01*
X115669651Y-161607450D01*
X115337450Y-161939651D01*
X115076440Y-162330279D01*
X114896654Y-162764321D01*
X114805000Y-163225098D01*
X107957739Y-163225098D01*
X108059853Y-162978574D01*
X108115000Y-162701335D01*
X108115000Y-162418665D01*
X108059853Y-162141426D01*
X107951680Y-161880273D01*
X107794637Y-161645241D01*
X107594759Y-161445363D01*
X107362241Y-161290000D01*
X107594759Y-161134637D01*
X107794637Y-160934759D01*
X107951680Y-160699727D01*
X108059853Y-160438574D01*
X108115000Y-160161335D01*
X108115000Y-159878665D01*
X108059853Y-159601426D01*
X107951680Y-159340273D01*
X107794637Y-159105241D01*
X107594759Y-158905363D01*
X107359727Y-158748320D01*
X107098574Y-158640147D01*
X106821335Y-158585000D01*
X106538665Y-158585000D01*
X106261426Y-158640147D01*
X106000273Y-158748320D01*
X105765241Y-158905363D01*
X105565363Y-159105241D01*
X105408320Y-159340273D01*
X105300147Y-159601426D01*
X105245000Y-159878665D01*
X103630000Y-159878665D01*
X103630000Y-134299801D01*
X105539811Y-132389991D01*
X110568559Y-132389991D01*
X110409449Y-132628115D01*
X110294566Y-132905466D01*
X110236000Y-133199899D01*
X110236000Y-133500101D01*
X110294566Y-133794534D01*
X110363105Y-133960000D01*
X107917581Y-133960000D01*
X107888254Y-133962888D01*
X107872451Y-133962778D01*
X107863280Y-133963678D01*
X107370273Y-134015495D01*
X107311742Y-134027510D01*
X107252917Y-134038731D01*
X107244095Y-134041395D01*
X106770542Y-134187984D01*
X106715427Y-134211153D01*
X106659934Y-134233573D01*
X106651798Y-134237900D01*
X106215738Y-134473677D01*
X106166171Y-134507110D01*
X106116092Y-134539881D01*
X106108951Y-134545706D01*
X105726991Y-134861690D01*
X105684850Y-134904126D01*
X105642101Y-134945989D01*
X105636227Y-134953089D01*
X105322917Y-135337246D01*
X105289824Y-135387054D01*
X105256017Y-135436428D01*
X105251634Y-135444534D01*
X105018908Y-135882230D01*
X104996122Y-135937512D01*
X104972547Y-135992517D01*
X104969822Y-136001320D01*
X104826543Y-136475884D01*
X104814923Y-136534572D01*
X104802487Y-136593075D01*
X104801524Y-136602240D01*
X104753150Y-137095595D01*
X104750000Y-137127582D01*
X104750001Y-154972419D01*
X104752888Y-155001737D01*
X104752778Y-155017550D01*
X104753678Y-155026721D01*
X104805495Y-155519727D01*
X104817522Y-155578320D01*
X104828732Y-155637084D01*
X104831395Y-155645906D01*
X104977984Y-156119458D01*
X105001158Y-156174584D01*
X105023573Y-156230066D01*
X105027900Y-156238202D01*
X105263677Y-156674262D01*
X105297110Y-156723829D01*
X105329881Y-156773908D01*
X105335706Y-156781049D01*
X105651690Y-157163009D01*
X105694107Y-157205131D01*
X105735989Y-157247900D01*
X105743090Y-157253773D01*
X106127246Y-157567084D01*
X106177073Y-157600188D01*
X106226428Y-157633983D01*
X106234531Y-157638364D01*
X106234539Y-157638368D01*
X106672230Y-157871092D01*
X106727536Y-157893888D01*
X106782517Y-157917453D01*
X106791320Y-157920178D01*
X107265885Y-158063457D01*
X107324558Y-158075074D01*
X107383075Y-158087513D01*
X107392240Y-158088476D01*
X107885595Y-158136850D01*
X107885598Y-158136850D01*
X107917581Y-158140000D01*
X120195293Y-158140000D01*
X120109999Y-158209999D01*
X120086200Y-158238998D01*
X119503998Y-158821201D01*
X119475000Y-158844999D01*
X119451202Y-158873997D01*
X119451201Y-158873998D01*
X119380026Y-158960724D01*
X119309454Y-159092754D01*
X119265998Y-159236015D01*
X119251324Y-159385000D01*
X119255001Y-159422332D01*
X119255000Y-161252677D01*
X119251324Y-161290000D01*
X119255000Y-161327322D01*
X119255000Y-161327332D01*
X119265997Y-161438985D01*
X119292089Y-161525000D01*
X119309454Y-161582246D01*
X119380026Y-161714276D01*
X119414320Y-161756063D01*
X119474999Y-161830001D01*
X119504003Y-161853804D01*
X126436201Y-168786003D01*
X126459999Y-168815001D01*
X126575724Y-168909974D01*
X126707753Y-168980546D01*
X126851014Y-169024003D01*
X126962667Y-169035000D01*
X126962675Y-169035000D01*
X127000000Y-169038676D01*
X127037325Y-169035000D01*
X140932678Y-169035000D01*
X140970000Y-169038676D01*
X141007322Y-169035000D01*
X141007333Y-169035000D01*
X141118986Y-169024003D01*
X141262247Y-168980546D01*
X141394276Y-168909974D01*
X141510001Y-168815001D01*
X141533804Y-168785997D01*
X146724802Y-163595000D01*
X146786939Y-163595000D01*
X146986898Y-163555226D01*
X147175256Y-163477205D01*
X147344774Y-163363937D01*
X147488937Y-163219774D01*
X147602205Y-163050256D01*
X147680226Y-162861898D01*
X147720000Y-162661939D01*
X147720000Y-162458061D01*
X147680226Y-162258102D01*
X147602205Y-162069744D01*
X147488937Y-161900226D01*
X147344774Y-161756063D01*
X147175256Y-161642795D01*
X146986898Y-161564774D01*
X146786939Y-161525000D01*
X146583061Y-161525000D01*
X146383102Y-161564774D01*
X146194744Y-161642795D01*
X146025226Y-161756063D01*
X145881063Y-161900226D01*
X145767795Y-162069744D01*
X145689774Y-162258102D01*
X145650000Y-162458061D01*
X145650000Y-162520198D01*
X140655199Y-167515000D01*
X140264801Y-167515000D01*
X148629802Y-159150000D01*
X148691939Y-159150000D01*
X148891898Y-159110226D01*
X149080256Y-159032205D01*
X149249774Y-158918937D01*
X149393937Y-158774774D01*
X149507205Y-158605256D01*
X149585226Y-158416898D01*
X149625000Y-158216939D01*
X149625000Y-158013061D01*
X149585226Y-157813102D01*
X149507205Y-157624744D01*
X149393937Y-157455226D01*
X149249774Y-157311063D01*
X149080256Y-157197795D01*
X148891898Y-157119774D01*
X148691939Y-157080000D01*
X148488061Y-157080000D01*
X148288102Y-157119774D01*
X148099744Y-157197795D01*
X147930226Y-157311063D01*
X147786063Y-157455226D01*
X147672795Y-157624744D01*
X147594774Y-157813102D01*
X147555000Y-158013061D01*
X147555000Y-158075198D01*
X138750199Y-166880000D01*
X129164803Y-166880000D01*
X125509901Y-163225098D01*
X126845000Y-163225098D01*
X126845000Y-163694902D01*
X126936654Y-164155679D01*
X127116440Y-164589721D01*
X127377450Y-164980349D01*
X127709651Y-165312550D01*
X128100279Y-165573560D01*
X128534321Y-165753346D01*
X128995098Y-165845000D01*
X129464902Y-165845000D01*
X129925679Y-165753346D01*
X130359721Y-165573560D01*
X130750349Y-165312550D01*
X131082550Y-164980349D01*
X131343560Y-164589721D01*
X131523346Y-164155679D01*
X131615000Y-163694902D01*
X131615000Y-163225098D01*
X131523346Y-162764321D01*
X131343560Y-162330279D01*
X131082550Y-161939651D01*
X130750349Y-161607450D01*
X130359721Y-161346440D01*
X129925679Y-161166654D01*
X129464902Y-161075000D01*
X128995098Y-161075000D01*
X128534321Y-161166654D01*
X128100279Y-161346440D01*
X127709651Y-161607450D01*
X127377450Y-161939651D01*
X127116440Y-162330279D01*
X126936654Y-162764321D01*
X126845000Y-163225098D01*
X125509901Y-163225098D01*
X124525241Y-162240439D01*
X124528531Y-162240611D01*
X124818019Y-162198599D01*
X125093747Y-162100919D01*
X125231157Y-162027472D01*
X125308792Y-161778397D01*
X124460000Y-160929605D01*
X124445858Y-160943748D01*
X124266253Y-160764143D01*
X124280395Y-160750000D01*
X124266253Y-160735858D01*
X124445858Y-160556253D01*
X124460000Y-160570395D01*
X124474143Y-160556253D01*
X124653748Y-160735858D01*
X124639605Y-160750000D01*
X125488397Y-161598792D01*
X125737472Y-161521157D01*
X125863371Y-161257117D01*
X125935339Y-160973589D01*
X125950611Y-160681469D01*
X125908599Y-160391981D01*
X125810919Y-160116253D01*
X125770241Y-160040150D01*
X125840537Y-159954494D01*
X125899502Y-159844180D01*
X125935812Y-159724482D01*
X125948072Y-159600000D01*
X125948072Y-158140000D01*
X138462419Y-158140000D01*
X138491746Y-158137112D01*
X138507550Y-158137222D01*
X138516721Y-158136322D01*
X139009727Y-158084505D01*
X139068320Y-158072478D01*
X139127084Y-158061268D01*
X139135906Y-158058605D01*
X139609458Y-157912016D01*
X139664584Y-157888842D01*
X139720066Y-157866427D01*
X139728202Y-157862100D01*
X140164262Y-157626323D01*
X140213829Y-157592890D01*
X140263908Y-157560119D01*
X140271049Y-157554294D01*
X140653009Y-157238310D01*
X140695131Y-157195893D01*
X140737900Y-157154011D01*
X140743773Y-157146910D01*
X141057084Y-156762754D01*
X141090188Y-156712927D01*
X141123983Y-156663572D01*
X141128364Y-156655469D01*
X141128368Y-156655461D01*
X141361092Y-156217770D01*
X141383888Y-156162464D01*
X141407453Y-156107483D01*
X141410178Y-156098680D01*
X141553457Y-155624115D01*
X141565074Y-155565442D01*
X141577513Y-155506925D01*
X141578476Y-155497760D01*
X141626850Y-155004405D01*
X141626850Y-155004402D01*
X141630000Y-154972419D01*
X141630000Y-137630000D01*
X144611928Y-137630000D01*
X144611928Y-139230000D01*
X144624188Y-139354482D01*
X144660498Y-139474180D01*
X144719463Y-139584494D01*
X144798815Y-139681185D01*
X144895506Y-139760537D01*
X145005820Y-139819502D01*
X145125518Y-139855812D01*
X145250000Y-139868072D01*
X146850000Y-139868072D01*
X146974482Y-139855812D01*
X147094180Y-139819502D01*
X147204494Y-139760537D01*
X147301185Y-139681185D01*
X147380537Y-139584494D01*
X147439502Y-139474180D01*
X147475812Y-139354482D01*
X147488072Y-139230000D01*
X147488072Y-137630000D01*
X147475812Y-137505518D01*
X147439502Y-137385820D01*
X147380537Y-137275506D01*
X147301185Y-137178815D01*
X147204494Y-137099463D01*
X147094180Y-137040498D01*
X146974482Y-137004188D01*
X146850000Y-136991928D01*
X146842785Y-136991928D01*
X146863097Y-136922702D01*
X146050000Y-136109605D01*
X145236903Y-136922702D01*
X145257215Y-136991928D01*
X145250000Y-136991928D01*
X145125518Y-137004188D01*
X145005820Y-137040498D01*
X144895506Y-137099463D01*
X144798815Y-137178815D01*
X144719463Y-137275506D01*
X144660498Y-137385820D01*
X144624188Y-137505518D01*
X144611928Y-137630000D01*
X141630000Y-137630000D01*
X141630000Y-137127581D01*
X141627112Y-137098254D01*
X141627222Y-137082451D01*
X141626322Y-137073280D01*
X141574505Y-136580273D01*
X141562490Y-136521742D01*
X141551269Y-136462917D01*
X141548605Y-136454095D01*
X141408198Y-136000512D01*
X144609783Y-136000512D01*
X144651213Y-136280130D01*
X144746397Y-136546292D01*
X144813329Y-136671514D01*
X145057298Y-136743097D01*
X145870395Y-135930000D01*
X146229605Y-135930000D01*
X147042702Y-136743097D01*
X147286671Y-136671514D01*
X147407571Y-136416004D01*
X147476300Y-136141816D01*
X147490217Y-135859488D01*
X147448787Y-135579870D01*
X147353603Y-135313708D01*
X147286671Y-135188486D01*
X147042702Y-135116903D01*
X146229605Y-135930000D01*
X145870395Y-135930000D01*
X145057298Y-135116903D01*
X144813329Y-135188486D01*
X144692429Y-135443996D01*
X144623700Y-135718184D01*
X144609783Y-136000512D01*
X141408198Y-136000512D01*
X141402016Y-135980542D01*
X141378847Y-135925427D01*
X141356427Y-135869934D01*
X141352100Y-135861798D01*
X141116323Y-135425738D01*
X141082890Y-135376171D01*
X141050119Y-135326092D01*
X141044294Y-135318951D01*
X140728564Y-134937298D01*
X145236903Y-134937298D01*
X146050000Y-135750395D01*
X146863097Y-134937298D01*
X146791514Y-134693329D01*
X146536004Y-134572429D01*
X146261816Y-134503700D01*
X145979488Y-134489783D01*
X145699870Y-134531213D01*
X145433708Y-134626397D01*
X145308486Y-134693329D01*
X145236903Y-134937298D01*
X140728564Y-134937298D01*
X140728310Y-134936991D01*
X140685874Y-134894850D01*
X140644011Y-134852101D01*
X140636911Y-134846227D01*
X140252754Y-134532917D01*
X140202946Y-134499824D01*
X140153572Y-134466017D01*
X140145466Y-134461634D01*
X139707770Y-134228908D01*
X139652488Y-134206122D01*
X139597483Y-134182547D01*
X139588680Y-134179822D01*
X139114116Y-134036543D01*
X139055428Y-134024923D01*
X138996925Y-134012487D01*
X138987760Y-134011524D01*
X138494405Y-133963150D01*
X138494402Y-133963150D01*
X138462419Y-133960000D01*
X130936895Y-133960000D01*
X131005434Y-133794534D01*
X131064000Y-133500101D01*
X131064000Y-133199899D01*
X131014377Y-132950425D01*
X131124802Y-132840000D01*
X140386957Y-132840000D01*
X140490363Y-132994759D01*
X140690241Y-133194637D01*
X140925273Y-133351680D01*
X141186426Y-133459853D01*
X141463665Y-133515000D01*
X141746335Y-133515000D01*
X142023574Y-133459853D01*
X142284727Y-133351680D01*
X142519759Y-133194637D01*
X142719637Y-132994759D01*
X142876680Y-132759727D01*
X142984853Y-132498574D01*
X143040000Y-132221335D01*
X143040000Y-131938665D01*
X142984853Y-131661426D01*
X142876680Y-131400273D01*
X142719637Y-131165241D01*
X142519759Y-130965363D01*
X142284727Y-130808320D01*
X142023574Y-130700147D01*
X141746335Y-130645000D01*
X141463665Y-130645000D01*
X141186426Y-130700147D01*
X140925273Y-130808320D01*
X140690241Y-130965363D01*
X140490363Y-131165241D01*
X140386957Y-131320000D01*
X130847322Y-131320000D01*
X130809999Y-131316324D01*
X130772676Y-131320000D01*
X130772667Y-131320000D01*
X130661014Y-131330997D01*
X130517753Y-131374454D01*
X130385724Y-131445026D01*
X130269999Y-131539999D01*
X130246201Y-131568997D01*
X129939575Y-131875623D01*
X129690101Y-131826000D01*
X129389899Y-131826000D01*
X129095466Y-131884566D01*
X128818115Y-131999449D01*
X128568507Y-132166232D01*
X128356232Y-132378507D01*
X128250583Y-132536622D01*
X128056231Y-132473374D01*
X127179605Y-133350000D01*
X127193748Y-133364143D01*
X127014143Y-133543748D01*
X127000000Y-133529605D01*
X126985858Y-133543748D01*
X126806253Y-133364143D01*
X126820395Y-133350000D01*
X125943769Y-132473374D01*
X125749417Y-132536622D01*
X125643768Y-132378507D01*
X125559030Y-132293769D01*
X126123374Y-132293769D01*
X127000000Y-133170395D01*
X127876626Y-132293769D01*
X127794273Y-132040711D01*
X127523582Y-131910914D01*
X127232770Y-131836420D01*
X126933012Y-131820092D01*
X126635829Y-131862557D01*
X126352641Y-131962184D01*
X126205727Y-132040711D01*
X126123374Y-132293769D01*
X125559030Y-132293769D01*
X125431493Y-132166232D01*
X125181885Y-131999449D01*
X124904534Y-131884566D01*
X124610101Y-131826000D01*
X124309899Y-131826000D01*
X124015466Y-131884566D01*
X123738115Y-131999449D01*
X123488507Y-132166232D01*
X123276232Y-132378507D01*
X123190000Y-132507562D01*
X123103768Y-132378507D01*
X122891493Y-132166232D01*
X122641885Y-131999449D01*
X122364534Y-131884566D01*
X122070101Y-131826000D01*
X121769899Y-131826000D01*
X121475466Y-131884566D01*
X121198115Y-131999449D01*
X120948507Y-132166232D01*
X120736232Y-132378507D01*
X120650000Y-132507562D01*
X120563768Y-132378507D01*
X120351493Y-132166232D01*
X120101885Y-131999449D01*
X119824534Y-131884566D01*
X119530101Y-131826000D01*
X119229899Y-131826000D01*
X118935466Y-131884566D01*
X118658115Y-131999449D01*
X118408507Y-132166232D01*
X118196232Y-132378507D01*
X118110000Y-132507562D01*
X118023768Y-132378507D01*
X117811493Y-132166232D01*
X117561885Y-131999449D01*
X117284534Y-131884566D01*
X116990101Y-131826000D01*
X116689899Y-131826000D01*
X116440425Y-131875623D01*
X115683794Y-131118993D01*
X115659992Y-131089990D01*
X115544267Y-130995017D01*
X115412238Y-130924445D01*
X115268977Y-130880988D01*
X115157324Y-130869991D01*
X115157313Y-130869991D01*
X115119991Y-130866315D01*
X115082669Y-130869991D01*
X105262334Y-130869991D01*
X105225009Y-130866315D01*
X105187684Y-130869991D01*
X105187676Y-130869991D01*
X105076023Y-130880988D01*
X104932762Y-130924445D01*
X104800733Y-130995017D01*
X104685008Y-131089990D01*
X104661210Y-131118988D01*
X102621815Y-133158384D01*
X102586414Y-133122982D01*
X102714637Y-132994759D01*
X102871680Y-132759727D01*
X102979853Y-132498574D01*
X103035000Y-132221335D01*
X103035000Y-131938665D01*
X102979853Y-131661426D01*
X102871680Y-131400273D01*
X102714637Y-131165241D01*
X102514759Y-130965363D01*
X102279727Y-130808320D01*
X102018574Y-130700147D01*
X101741335Y-130645000D01*
X101458665Y-130645000D01*
X101181426Y-130700147D01*
X100920273Y-130808320D01*
X100685241Y-130965363D01*
X100485363Y-131165241D01*
X100328320Y-131400273D01*
X100220147Y-131661426D01*
X100165000Y-131938665D01*
X100165000Y-132221335D01*
X100220147Y-132498574D01*
X100328320Y-132759727D01*
X100485363Y-132994759D01*
X100685241Y-133194637D01*
X100845203Y-133301520D01*
X100850144Y-133351680D01*
X100850998Y-133360355D01*
X100894454Y-133503616D01*
X100965026Y-133635646D01*
X101029471Y-133714171D01*
X101060000Y-133751371D01*
X101088998Y-133775169D01*
X101475000Y-134161172D01*
X101475001Y-159070197D01*
X101089007Y-159456192D01*
X101088996Y-159456201D01*
X100498072Y-160047125D01*
X100498072Y-159220000D01*
X100485812Y-159095518D01*
X100449502Y-158975820D01*
X100390537Y-158865506D01*
X100311185Y-158768815D01*
X100214494Y-158689463D01*
X100104180Y-158630498D01*
X99984482Y-158594188D01*
X99860000Y-158581928D01*
X98260000Y-158581928D01*
X98135518Y-158594188D01*
X98015820Y-158630498D01*
X97905506Y-158689463D01*
X97808815Y-158768815D01*
X97729463Y-158865506D01*
X97670498Y-158975820D01*
X97634188Y-159095518D01*
X97621928Y-159220000D01*
X95910000Y-159220000D01*
X95910000Y-140652702D01*
X97611903Y-140652702D01*
X97683486Y-140896671D01*
X97938996Y-141017571D01*
X98213184Y-141086300D01*
X98495512Y-141100217D01*
X98775130Y-141058787D01*
X99041292Y-140963603D01*
X99166514Y-140896671D01*
X99238097Y-140652702D01*
X98425000Y-139839605D01*
X97611903Y-140652702D01*
X95910000Y-140652702D01*
X95910000Y-139730512D01*
X96984783Y-139730512D01*
X97026213Y-140010130D01*
X97121397Y-140276292D01*
X97188329Y-140401514D01*
X97432298Y-140473097D01*
X98245395Y-139660000D01*
X98604605Y-139660000D01*
X99417702Y-140473097D01*
X99661671Y-140401514D01*
X99782571Y-140146004D01*
X99851300Y-139871816D01*
X99865217Y-139589488D01*
X99823787Y-139309870D01*
X99728603Y-139043708D01*
X99661671Y-138918486D01*
X99417702Y-138846903D01*
X98604605Y-139660000D01*
X98245395Y-139660000D01*
X97432298Y-138846903D01*
X97188329Y-138918486D01*
X97067429Y-139173996D01*
X96998700Y-139448184D01*
X96984783Y-139730512D01*
X95910000Y-139730512D01*
X95910000Y-137018665D01*
X96990000Y-137018665D01*
X96990000Y-137301335D01*
X97045147Y-137578574D01*
X97153320Y-137839727D01*
X97310363Y-138074759D01*
X97510241Y-138274637D01*
X97710869Y-138408692D01*
X97683486Y-138423329D01*
X97611903Y-138667298D01*
X98425000Y-139480395D01*
X99238097Y-138667298D01*
X99166514Y-138423329D01*
X99137659Y-138409676D01*
X99339759Y-138274637D01*
X99539637Y-138074759D01*
X99696680Y-137839727D01*
X99804853Y-137578574D01*
X99860000Y-137301335D01*
X99860000Y-137018665D01*
X99804853Y-136741426D01*
X99696680Y-136480273D01*
X99539637Y-136245241D01*
X99339759Y-136045363D01*
X99104727Y-135888320D01*
X98843574Y-135780147D01*
X98566335Y-135725000D01*
X98283665Y-135725000D01*
X98006426Y-135780147D01*
X97745273Y-135888320D01*
X97510241Y-136045363D01*
X97310363Y-136245241D01*
X97153320Y-136480273D01*
X97045147Y-136741426D01*
X96990000Y-137018665D01*
X95910000Y-137018665D01*
X95910000Y-131938665D01*
X96990000Y-131938665D01*
X96990000Y-132221335D01*
X97045147Y-132498574D01*
X97153320Y-132759727D01*
X97310363Y-132994759D01*
X97510241Y-133194637D01*
X97745273Y-133351680D01*
X98006426Y-133459853D01*
X98283665Y-133515000D01*
X98566335Y-133515000D01*
X98843574Y-133459853D01*
X99104727Y-133351680D01*
X99339759Y-133194637D01*
X99539637Y-132994759D01*
X99696680Y-132759727D01*
X99804853Y-132498574D01*
X99860000Y-132221335D01*
X99860000Y-131938665D01*
X99804853Y-131661426D01*
X99696680Y-131400273D01*
X99539637Y-131165241D01*
X99339759Y-130965363D01*
X99104727Y-130808320D01*
X98843574Y-130700147D01*
X98566335Y-130645000D01*
X98283665Y-130645000D01*
X98006426Y-130700147D01*
X97745273Y-130808320D01*
X97510241Y-130965363D01*
X97310363Y-131165241D01*
X97153320Y-131400273D01*
X97045147Y-131661426D01*
X96990000Y-131938665D01*
X95910000Y-131938665D01*
X95910000Y-125310000D01*
X145831928Y-125310000D01*
X145844188Y-125434482D01*
X145880498Y-125554180D01*
X145939463Y-125664494D01*
X146018815Y-125761185D01*
X146115506Y-125840537D01*
X146225820Y-125899502D01*
X146345518Y-125935812D01*
X146470000Y-125948072D01*
X147034250Y-125945000D01*
X147193000Y-125786250D01*
X147193000Y-124587000D01*
X147447000Y-124587000D01*
X147447000Y-125786250D01*
X147605750Y-125945000D01*
X148170000Y-125948072D01*
X148294482Y-125935812D01*
X148414180Y-125899502D01*
X148524494Y-125840537D01*
X148621185Y-125761185D01*
X148700537Y-125664494D01*
X148759502Y-125554180D01*
X148795812Y-125434482D01*
X148808072Y-125310000D01*
X148805000Y-124745750D01*
X148646250Y-124587000D01*
X147447000Y-124587000D01*
X147193000Y-124587000D01*
X145993750Y-124587000D01*
X145835000Y-124745750D01*
X145831928Y-125310000D01*
X95910000Y-125310000D01*
X95910000Y-121778665D01*
X96990000Y-121778665D01*
X96990000Y-122061335D01*
X97045147Y-122338574D01*
X97153320Y-122599727D01*
X97310363Y-122834759D01*
X97510241Y-123034637D01*
X97745273Y-123191680D01*
X98006426Y-123299853D01*
X98283665Y-123355000D01*
X98566335Y-123355000D01*
X98843574Y-123299853D01*
X99104727Y-123191680D01*
X99339759Y-123034637D01*
X99539637Y-122834759D01*
X99696680Y-122599727D01*
X99804853Y-122338574D01*
X99860000Y-122061335D01*
X99860000Y-121778665D01*
X100165000Y-121778665D01*
X100165000Y-122061335D01*
X100220147Y-122338574D01*
X100328320Y-122599727D01*
X100485363Y-122834759D01*
X100685241Y-123034637D01*
X100920273Y-123191680D01*
X101181426Y-123299853D01*
X101458665Y-123355000D01*
X101741335Y-123355000D01*
X102018574Y-123299853D01*
X102279727Y-123191680D01*
X102514759Y-123034637D01*
X102714637Y-122834759D01*
X102871680Y-122599727D01*
X102979853Y-122338574D01*
X103035000Y-122061335D01*
X103035000Y-121778665D01*
X102979853Y-121501426D01*
X102871680Y-121240273D01*
X102714637Y-121005241D01*
X102514759Y-120805363D01*
X102279727Y-120648320D01*
X102018574Y-120540147D01*
X101741335Y-120485000D01*
X101458665Y-120485000D01*
X101181426Y-120540147D01*
X100920273Y-120648320D01*
X100685241Y-120805363D01*
X100485363Y-121005241D01*
X100328320Y-121240273D01*
X100220147Y-121501426D01*
X100165000Y-121778665D01*
X99860000Y-121778665D01*
X99823688Y-121596114D01*
X101846299Y-119573503D01*
X101846304Y-119573497D01*
X101914801Y-119505000D01*
X138115199Y-119505000D01*
X140206312Y-121596114D01*
X140170000Y-121778665D01*
X140170000Y-122061335D01*
X140225147Y-122338574D01*
X140333320Y-122599727D01*
X140490363Y-122834759D01*
X140690241Y-123034637D01*
X140925273Y-123191680D01*
X141186426Y-123299853D01*
X141463665Y-123355000D01*
X141746335Y-123355000D01*
X142023574Y-123299853D01*
X142284727Y-123191680D01*
X142519759Y-123034637D01*
X142719637Y-122834759D01*
X142823043Y-122680000D01*
X146041822Y-122680000D01*
X146166525Y-122866632D01*
X146298380Y-122998487D01*
X146225820Y-123020498D01*
X146115506Y-123079463D01*
X146018815Y-123158815D01*
X145939463Y-123255506D01*
X145880498Y-123365820D01*
X145844188Y-123485518D01*
X145831928Y-123610000D01*
X145835000Y-124174250D01*
X145993750Y-124333000D01*
X147193000Y-124333000D01*
X147193000Y-124313000D01*
X147447000Y-124313000D01*
X147447000Y-124333000D01*
X148646250Y-124333000D01*
X148805000Y-124174250D01*
X148808072Y-123610000D01*
X148795812Y-123485518D01*
X148759502Y-123365820D01*
X148700537Y-123255506D01*
X148621185Y-123158815D01*
X148524494Y-123079463D01*
X148414180Y-123020498D01*
X148341620Y-122998487D01*
X148473475Y-122866632D01*
X148635990Y-122623411D01*
X148747932Y-122353158D01*
X148805000Y-122066260D01*
X148805000Y-121773740D01*
X148747932Y-121486842D01*
X148635990Y-121216589D01*
X148473475Y-120973368D01*
X148266632Y-120766525D01*
X148023411Y-120604010D01*
X147753158Y-120492068D01*
X147466260Y-120435000D01*
X147173740Y-120435000D01*
X146886842Y-120492068D01*
X146616589Y-120604010D01*
X146373368Y-120766525D01*
X146166525Y-120973368D01*
X146041822Y-121160000D01*
X142823043Y-121160000D01*
X142719637Y-121005241D01*
X142519759Y-120805363D01*
X142284727Y-120648320D01*
X142023574Y-120540147D01*
X141746335Y-120485000D01*
X141463665Y-120485000D01*
X141281114Y-120521312D01*
X138993804Y-118234003D01*
X138970001Y-118204999D01*
X138854276Y-118110026D01*
X138722247Y-118039454D01*
X138578986Y-117995997D01*
X138467333Y-117985000D01*
X138467322Y-117985000D01*
X138430000Y-117981324D01*
X138392678Y-117985000D01*
X101637323Y-117985000D01*
X101600000Y-117981324D01*
X101562677Y-117985000D01*
X101562667Y-117985000D01*
X101451014Y-117995997D01*
X101307753Y-118039454D01*
X101175724Y-118110026D01*
X101059999Y-118204999D01*
X101036196Y-118234003D01*
X100771503Y-118498696D01*
X100771497Y-118498701D01*
X98748886Y-120521312D01*
X98566335Y-120485000D01*
X98283665Y-120485000D01*
X98006426Y-120540147D01*
X97745273Y-120648320D01*
X97510241Y-120805363D01*
X97310363Y-121005241D01*
X97153320Y-121240273D01*
X97045147Y-121501426D01*
X96990000Y-121778665D01*
X95910000Y-121778665D01*
X95910000Y-119409392D01*
X95982437Y-118597751D01*
X96189672Y-117840226D01*
X96527777Y-117131375D01*
X96986067Y-116493596D01*
X97550055Y-115947054D01*
X98201913Y-115509023D01*
X98921038Y-115193349D01*
X99689768Y-115008794D01*
X100354207Y-114960000D01*
X110363105Y-114960000D01*
X110294566Y-115125466D01*
M02*
