M48
; DRILL file {KiCad 5.1.5-52549c5~84~ubuntu19.04.1} date Wed 27 Nov 2019 18:15:40 CET
; FORMAT={-:-/ absolute / inch / decimal}
; #@! TF.CreationDate,2019-11-27T18:15:40+01:00
; #@! TF.GenerationSoftware,Kicad,Pcbnew,5.1.5-52549c5~84~ubuntu19.04.1
; #@! TF.FileFunction,Plated,1,2,PTH
FMAT,2
INCH
T1C0.0157
T2C0.0315
T3C0.0362
T4C0.0394
T5C0.0400
T6C0.0917
%
G90
G05
T1
X5.775Y-6.4
X5.85Y-6.225
T2
X3.9Y-6.3
X3.9Y-6.4
X3.9Y-6.5
X3.9Y-6.6
X4.2Y-6.3
X4.2Y-6.4
X4.2Y-6.5
X4.2Y-6.6
X5.75Y-5.3516
X5.75Y-5.45
X3.875Y-4.8
X3.875Y-5.2
X3.875Y-5.4
X3.875Y-5.4984
X5.575Y-4.8
X5.575Y-5.2
X4.0Y-4.8
X4.0Y-5.2
T3
X4.8016Y-6.25
X4.8016Y-6.3287
X4.9Y-6.25
X4.9Y-6.3287
T4
X5.8Y-4.8
X5.8Y-4.9
T5
X4.4Y-4.55
X4.4Y-5.25
X4.5Y-4.55
X4.5Y-5.25
X4.6Y-4.55
X4.6Y-5.25
X4.7Y-4.55
X4.7Y-5.25
X4.8Y-4.55
X4.8Y-5.25
X4.9Y-4.55
X4.9Y-5.25
X5.0Y-4.55
X5.0Y-5.25
X5.1Y-4.55
X5.1Y-5.25
T6
X4.6138Y-6.4354
X5.0878Y-6.4354
T0
M30
