M48
; DRILL file {KiCad 5.1.6-c6e7f7d~86~ubuntu18.04.1} date Fri Jun 12 21:41:01 2020
; FORMAT={-:-/ absolute / inch / decimal}
; #@! TF.CreationDate,2020-06-12T21:41:01+02:00
; #@! TF.GenerationSoftware,Kicad,Pcbnew,5.1.6-c6e7f7d~86~ubuntu18.04.1
; #@! TF.FileFunction,Plated,1,2,PTH
FMAT,2
INCH
T1C0.0157
T2C0.0315
T3C0.0354
T4C0.0362
T5C0.0394
T6C0.0400
T7C0.0917
%
G90
G05
T1
X4.055Y-4.83
T2
X5.685Y-5.57
X5.7834Y-5.57
X4.3Y-4.65
X4.3Y-5.05
X3.9Y-6.3
X3.9Y-6.4
X3.9Y-6.5
X3.9Y-6.6
X4.2Y-6.3
X4.2Y-6.4
X4.2Y-6.5
X4.2Y-6.6
X4.175Y-4.65
X4.175Y-5.05
X5.685Y-5.34
X5.7834Y-5.34
X3.925Y-4.65
X3.925Y-5.05
X4.05Y-4.65
X4.05Y-5.05
T3
X3.95Y-5.545
X3.95Y-5.645
T4
X4.8016Y-6.25
X4.8016Y-6.3287
X4.9Y-6.25
X4.9Y-6.3287
T5
X5.8Y-4.8
X5.8Y-4.9
X5.67Y-6.34
X5.67Y-6.44
X5.67Y-6.54
X5.77Y-6.34
X5.77Y-6.44
X5.77Y-6.54
T6
X4.465Y-4.55
X4.465Y-5.25
X4.565Y-4.55
X4.565Y-5.25
X4.665Y-4.55
X4.665Y-5.25
X4.765Y-4.55
X4.765Y-5.25
X4.865Y-4.55
X4.865Y-5.25
X4.965Y-4.55
X4.965Y-5.25
X5.065Y-4.55
X5.065Y-5.25
X5.165Y-4.55
X5.165Y-5.25
T7
X4.6138Y-6.4354
X5.0878Y-6.4354
T0
M30
