G04 #@! TF.GenerationSoftware,KiCad,Pcbnew,5.1.6-c6e7f7d~86~ubuntu18.04.1*
G04 #@! TF.CreationDate,2020-06-12T21:41:03+02:00*
G04 #@! TF.ProjectId,printplaat,7072696e-7470-46c6-9161-742e6b696361,rev?*
G04 #@! TF.SameCoordinates,Original*
G04 #@! TF.FileFunction,Copper,L1,Top*
G04 #@! TF.FilePolarity,Positive*
%FSLAX46Y46*%
G04 Gerber Fmt 4.6, Leading zero omitted, Abs format (unit mm)*
G04 Created by KiCad (PCBNEW 5.1.6-c6e7f7d~86~ubuntu18.04.1) date 2020-06-12 21:41:03*
%MOMM*%
%LPD*%
G01*
G04 APERTURE LIST*
G04 #@! TA.AperFunction,ComponentPad*
%ADD10R,1.600000X1.600000*%
G04 #@! TD*
G04 #@! TA.AperFunction,ComponentPad*
%ADD11O,1.600000X1.600000*%
G04 #@! TD*
G04 #@! TA.AperFunction,ComponentPad*
%ADD12C,1.778000*%
G04 #@! TD*
G04 #@! TA.AperFunction,ComponentPad*
%ADD13R,1.700000X1.700000*%
G04 #@! TD*
G04 #@! TA.AperFunction,ComponentPad*
%ADD14O,1.700000X1.700000*%
G04 #@! TD*
G04 #@! TA.AperFunction,ComponentPad*
%ADD15C,1.600000*%
G04 #@! TD*
G04 #@! TA.AperFunction,ComponentPad*
%ADD16C,1.700000*%
G04 #@! TD*
G04 #@! TA.AperFunction,ComponentPad*
%ADD17C,3.500000*%
G04 #@! TD*
G04 #@! TA.AperFunction,SMDPad,CuDef*
%ADD18C,0.100000*%
G04 #@! TD*
G04 #@! TA.AperFunction,ComponentPad*
%ADD19R,1.800000X1.800000*%
G04 #@! TD*
G04 #@! TA.AperFunction,ComponentPad*
%ADD20C,1.800000*%
G04 #@! TD*
G04 #@! TA.AperFunction,ViaPad*
%ADD21C,0.800000*%
G04 #@! TD*
G04 #@! TA.AperFunction,Conductor*
%ADD22C,0.250000*%
G04 #@! TD*
G04 #@! TA.AperFunction,Conductor*
%ADD23C,0.254000*%
G04 #@! TD*
G04 APERTURE END LIST*
D10*
X99060000Y-160020000D03*
D11*
X106680000Y-167640000D03*
X99060000Y-162560000D03*
X106680000Y-165100000D03*
X99060000Y-165100000D03*
X106680000Y-162560000D03*
X99060000Y-167640000D03*
X106680000Y-160020000D03*
D12*
X113411000Y-133350000D03*
X115951000Y-133350000D03*
X118491000Y-133350000D03*
X121031000Y-133350000D03*
X123571000Y-133350000D03*
X126111000Y-133350000D03*
X128651000Y-133350000D03*
X131191000Y-133350000D03*
X131191000Y-115570000D03*
X128651000Y-115570000D03*
X126111000Y-115570000D03*
X123571000Y-115570000D03*
X121031000Y-115570000D03*
X118491000Y-115570000D03*
X115951000Y-115570000D03*
X113411000Y-115570000D03*
D13*
X144018000Y-161036000D03*
D14*
X146558000Y-161036000D03*
X144018000Y-163576000D03*
X146558000Y-163576000D03*
X144018000Y-166116000D03*
X146558000Y-166116000D03*
D11*
X99695000Y-128270000D03*
D15*
X99695000Y-118110000D03*
D13*
X147320000Y-124460000D03*
D14*
X147320000Y-121920000D03*
D13*
X124460000Y-158750000D03*
D16*
X121960000Y-158750000D03*
X121960000Y-160750000D03*
X124460000Y-160750000D03*
D17*
X129230000Y-163460000D03*
X117190000Y-163460000D03*
D11*
X102870000Y-128270000D03*
D15*
X102870000Y-118110000D03*
D10*
X144399000Y-141478000D03*
D15*
X146899000Y-141478000D03*
X109220000Y-128270000D03*
D11*
X109220000Y-118110000D03*
G04 #@! TA.AperFunction,SMDPad,CuDef*
D18*
G36*
X143522000Y-149695000D02*
G01*
X143522000Y-149195000D01*
X143522602Y-149195000D01*
X143522602Y-149170466D01*
X143527412Y-149121635D01*
X143536984Y-149073510D01*
X143551228Y-149026555D01*
X143570005Y-148981222D01*
X143593136Y-148937949D01*
X143620396Y-148897150D01*
X143651524Y-148859221D01*
X143686221Y-148824524D01*
X143724150Y-148793396D01*
X143764949Y-148766136D01*
X143808222Y-148743005D01*
X143853555Y-148724228D01*
X143900510Y-148709984D01*
X143948635Y-148700412D01*
X143997466Y-148695602D01*
X144022000Y-148695602D01*
X144022000Y-148695000D01*
X144522000Y-148695000D01*
X144522000Y-148695602D01*
X144546534Y-148695602D01*
X144595365Y-148700412D01*
X144643490Y-148709984D01*
X144690445Y-148724228D01*
X144735778Y-148743005D01*
X144779051Y-148766136D01*
X144819850Y-148793396D01*
X144857779Y-148824524D01*
X144892476Y-148859221D01*
X144923604Y-148897150D01*
X144950864Y-148937949D01*
X144973995Y-148981222D01*
X144992772Y-149026555D01*
X145007016Y-149073510D01*
X145016588Y-149121635D01*
X145021398Y-149170466D01*
X145021398Y-149195000D01*
X145022000Y-149195000D01*
X145022000Y-149695000D01*
X143522000Y-149695000D01*
G37*
G04 #@! TD.AperFunction*
G04 #@! TA.AperFunction,SMDPad,CuDef*
G36*
X145021398Y-150495000D02*
G01*
X145021398Y-150519534D01*
X145016588Y-150568365D01*
X145007016Y-150616490D01*
X144992772Y-150663445D01*
X144973995Y-150708778D01*
X144950864Y-150752051D01*
X144923604Y-150792850D01*
X144892476Y-150830779D01*
X144857779Y-150865476D01*
X144819850Y-150896604D01*
X144779051Y-150923864D01*
X144735778Y-150946995D01*
X144690445Y-150965772D01*
X144643490Y-150980016D01*
X144595365Y-150989588D01*
X144546534Y-150994398D01*
X144522000Y-150994398D01*
X144522000Y-150995000D01*
X144022000Y-150995000D01*
X144022000Y-150994398D01*
X143997466Y-150994398D01*
X143948635Y-150989588D01*
X143900510Y-150980016D01*
X143853555Y-150965772D01*
X143808222Y-150946995D01*
X143764949Y-150923864D01*
X143724150Y-150896604D01*
X143686221Y-150865476D01*
X143651524Y-150830779D01*
X143620396Y-150792850D01*
X143593136Y-150752051D01*
X143570005Y-150708778D01*
X143551228Y-150663445D01*
X143536984Y-150616490D01*
X143527412Y-150568365D01*
X143522602Y-150519534D01*
X143522602Y-150495000D01*
X143522000Y-150495000D01*
X143522000Y-149995000D01*
X145022000Y-149995000D01*
X145022000Y-150495000D01*
X145021398Y-150495000D01*
G37*
G04 #@! TD.AperFunction*
G04 #@! TA.AperFunction,SMDPad,CuDef*
G36*
X147561398Y-150510000D02*
G01*
X147561398Y-150534534D01*
X147556588Y-150583365D01*
X147547016Y-150631490D01*
X147532772Y-150678445D01*
X147513995Y-150723778D01*
X147490864Y-150767051D01*
X147463604Y-150807850D01*
X147432476Y-150845779D01*
X147397779Y-150880476D01*
X147359850Y-150911604D01*
X147319051Y-150938864D01*
X147275778Y-150961995D01*
X147230445Y-150980772D01*
X147183490Y-150995016D01*
X147135365Y-151004588D01*
X147086534Y-151009398D01*
X147062000Y-151009398D01*
X147062000Y-151010000D01*
X146562000Y-151010000D01*
X146562000Y-151009398D01*
X146537466Y-151009398D01*
X146488635Y-151004588D01*
X146440510Y-150995016D01*
X146393555Y-150980772D01*
X146348222Y-150961995D01*
X146304949Y-150938864D01*
X146264150Y-150911604D01*
X146226221Y-150880476D01*
X146191524Y-150845779D01*
X146160396Y-150807850D01*
X146133136Y-150767051D01*
X146110005Y-150723778D01*
X146091228Y-150678445D01*
X146076984Y-150631490D01*
X146067412Y-150583365D01*
X146062602Y-150534534D01*
X146062602Y-150510000D01*
X146062000Y-150510000D01*
X146062000Y-150010000D01*
X147562000Y-150010000D01*
X147562000Y-150510000D01*
X147561398Y-150510000D01*
G37*
G04 #@! TD.AperFunction*
G04 #@! TA.AperFunction,SMDPad,CuDef*
G36*
X146062000Y-149710000D02*
G01*
X146062000Y-149210000D01*
X146062602Y-149210000D01*
X146062602Y-149185466D01*
X146067412Y-149136635D01*
X146076984Y-149088510D01*
X146091228Y-149041555D01*
X146110005Y-148996222D01*
X146133136Y-148952949D01*
X146160396Y-148912150D01*
X146191524Y-148874221D01*
X146226221Y-148839524D01*
X146264150Y-148808396D01*
X146304949Y-148781136D01*
X146348222Y-148758005D01*
X146393555Y-148739228D01*
X146440510Y-148724984D01*
X146488635Y-148715412D01*
X146537466Y-148710602D01*
X146562000Y-148710602D01*
X146562000Y-148710000D01*
X147062000Y-148710000D01*
X147062000Y-148710602D01*
X147086534Y-148710602D01*
X147135365Y-148715412D01*
X147183490Y-148724984D01*
X147230445Y-148739228D01*
X147275778Y-148758005D01*
X147319051Y-148781136D01*
X147359850Y-148808396D01*
X147397779Y-148839524D01*
X147432476Y-148874221D01*
X147463604Y-148912150D01*
X147490864Y-148952949D01*
X147513995Y-148996222D01*
X147532772Y-149041555D01*
X147547016Y-149088510D01*
X147556588Y-149136635D01*
X147561398Y-149185466D01*
X147561398Y-149210000D01*
X147562000Y-149210000D01*
X147562000Y-149710000D01*
X146062000Y-149710000D01*
G37*
G04 #@! TD.AperFunction*
D10*
X144399000Y-135636000D03*
D15*
X146899000Y-135636000D03*
X106045000Y-118110000D03*
D11*
X106045000Y-128270000D03*
D19*
X100330000Y-140843000D03*
D20*
X100330000Y-143383000D03*
D21*
X102997000Y-122682000D03*
D22*
X99695000Y-118110000D02*
X101784990Y-116020010D01*
X107130010Y-116020010D02*
X106864990Y-116020010D01*
X109220000Y-118110000D02*
X107130010Y-116020010D01*
X101784990Y-116020010D02*
X106864990Y-116020010D01*
X115951000Y-133350000D02*
X115951000Y-128905000D01*
X115951000Y-128905000D02*
X112014000Y-124968000D01*
X102933500Y-122618500D02*
X102997000Y-122682000D01*
X105283000Y-124968000D02*
X112014000Y-124968000D01*
X102997000Y-122682000D02*
X105283000Y-124968000D01*
X96704991Y-162744991D02*
X99060000Y-165100000D01*
X96704991Y-119435007D02*
X96704991Y-162744991D01*
X100569998Y-115570000D02*
X96704991Y-119435007D01*
X113411000Y-115570000D02*
X100569998Y-115570000D01*
X123135001Y-159925001D02*
X121960000Y-158750000D01*
X123135001Y-161164003D02*
X123135001Y-161235001D01*
X123135001Y-161164003D02*
X123135001Y-161288591D01*
X127766400Y-165919990D02*
X123135001Y-161288591D01*
X123135001Y-161164003D02*
X123135001Y-159925001D01*
X144272000Y-156210000D02*
X134562010Y-165919990D01*
X144272000Y-150495000D02*
X144272000Y-156210000D01*
X134562010Y-165919990D02*
X127766400Y-165919990D01*
X121960000Y-160750000D02*
X127580000Y-166370000D01*
X134748410Y-166370000D02*
X134366000Y-166370000D01*
X146812000Y-154306410D02*
X134748410Y-166370000D01*
X146812000Y-150510000D02*
X146812000Y-154306410D01*
X127580000Y-166370000D02*
X134366000Y-166370000D01*
X148590000Y-132080000D02*
X142690010Y-126180010D01*
X142690010Y-126180010D02*
X129736010Y-126180010D01*
X148590000Y-144877000D02*
X144272000Y-149195000D01*
X148590000Y-132080000D02*
X148590000Y-144877000D01*
X97155001Y-132332589D02*
X97155000Y-160655000D01*
X99695000Y-128270000D02*
X99695000Y-129792590D01*
X99695000Y-129792590D02*
X97155001Y-132332589D01*
X97155000Y-160655000D02*
X99060000Y-162560000D01*
X126561009Y-126180009D02*
X130105990Y-126180009D01*
X115951000Y-115570000D02*
X126561009Y-126180009D01*
X126747410Y-125730000D02*
X118491000Y-117473590D01*
X142876410Y-125730000D02*
X126747410Y-125730000D01*
X149040010Y-131893600D02*
X142876410Y-125730000D01*
X118491000Y-117473590D02*
X118491000Y-115570000D01*
X146812000Y-149210000D02*
X149040010Y-146981990D01*
X149040010Y-146981990D02*
X149040010Y-131893600D01*
X104648000Y-160528000D02*
X104838500Y-160718500D01*
X104838500Y-160718500D02*
X106680000Y-162560000D01*
X100468020Y-130671980D02*
X102870000Y-128270000D01*
X104838500Y-160718500D02*
X101727000Y-157607000D01*
X101727000Y-157607000D02*
X101725589Y-157606999D01*
X101725589Y-157606999D02*
X97605010Y-153486420D01*
X99452020Y-130671980D02*
X100468020Y-130671980D01*
X97605010Y-153486420D02*
X97605010Y-132518990D01*
X97605010Y-132518990D02*
X99452020Y-130671980D01*
X98055020Y-145657980D02*
X98234500Y-145478500D01*
X108077000Y-162291998D02*
X107220001Y-161434999D01*
X106680000Y-167640000D02*
X108077000Y-166243000D01*
X108077000Y-166243000D02*
X108077000Y-162291998D01*
X107220001Y-161434999D02*
X106191409Y-161434999D01*
X106191409Y-161434999D02*
X101913400Y-157156990D01*
X98234500Y-145478500D02*
X100330000Y-143383000D01*
X101911990Y-157156990D02*
X98055020Y-153300020D01*
X101913400Y-157156990D02*
X101911990Y-157156990D01*
X98055020Y-153300020D02*
X98055020Y-145657980D01*
X106045000Y-128270000D02*
X103193010Y-131121990D01*
X99764010Y-131121990D02*
X98055020Y-132830980D01*
X103193010Y-131121990D02*
X99764010Y-131121990D01*
X98055020Y-138568020D02*
X100330000Y-140843000D01*
X98055020Y-132830980D02*
X98055020Y-138568020D01*
D23*
G36*
X146832249Y-115032437D02*
G01*
X147589774Y-115239672D01*
X148298625Y-115577777D01*
X148936404Y-116036067D01*
X149482946Y-116600055D01*
X149920977Y-117251913D01*
X150236651Y-117971038D01*
X150421206Y-118739768D01*
X150470000Y-119404207D01*
X150470001Y-165070597D01*
X150397563Y-165882249D01*
X150190328Y-166639774D01*
X149852221Y-167348627D01*
X149393928Y-167986410D01*
X148829945Y-168532946D01*
X148178085Y-168970978D01*
X147458963Y-169286651D01*
X146690232Y-169471206D01*
X146025792Y-169520000D01*
X100359392Y-169520000D01*
X99547751Y-169447563D01*
X98790226Y-169240328D01*
X98081373Y-168902221D01*
X97443590Y-168443928D01*
X97002774Y-167989039D01*
X97668096Y-167989039D01*
X97708754Y-168123087D01*
X97828963Y-168377420D01*
X97996481Y-168603414D01*
X98204869Y-168792385D01*
X98446119Y-168937070D01*
X98710960Y-169031909D01*
X98933000Y-168910624D01*
X98933000Y-167767000D01*
X99187000Y-167767000D01*
X99187000Y-168910624D01*
X99409040Y-169031909D01*
X99673881Y-168937070D01*
X99915131Y-168792385D01*
X100123519Y-168603414D01*
X100291037Y-168377420D01*
X100411246Y-168123087D01*
X100451904Y-167989039D01*
X100329915Y-167767000D01*
X99187000Y-167767000D01*
X98933000Y-167767000D01*
X97790085Y-167767000D01*
X97668096Y-167989039D01*
X97002774Y-167989039D01*
X96897054Y-167879945D01*
X96459022Y-167228085D01*
X96143349Y-166508963D01*
X95958794Y-165740232D01*
X95910000Y-165075792D01*
X95910000Y-119409392D01*
X95982437Y-118597751D01*
X96189672Y-117840226D01*
X96527777Y-117131375D01*
X96986067Y-116493596D01*
X97550055Y-115947054D01*
X98201913Y-115509023D01*
X98921038Y-115193349D01*
X99689768Y-115008794D01*
X100091811Y-114979269D01*
X100029997Y-115029999D01*
X100006199Y-115058997D01*
X96193994Y-118871203D01*
X96164990Y-118895006D01*
X96140705Y-118924598D01*
X96070017Y-119010731D01*
X96030454Y-119084748D01*
X95999445Y-119142761D01*
X95955988Y-119286022D01*
X95944991Y-119397675D01*
X95944991Y-119397685D01*
X95941315Y-119435007D01*
X95944991Y-119472329D01*
X95944992Y-162707658D01*
X95941315Y-162744991D01*
X95944992Y-162782324D01*
X95953883Y-162872589D01*
X95955989Y-162893976D01*
X95999445Y-163037237D01*
X96070017Y-163169267D01*
X96127843Y-163239727D01*
X96164991Y-163284992D01*
X96193989Y-163308790D01*
X97661312Y-164776114D01*
X97625000Y-164958665D01*
X97625000Y-165241335D01*
X97680147Y-165518574D01*
X97788320Y-165779727D01*
X97945363Y-166014759D01*
X98145241Y-166214637D01*
X98380273Y-166371680D01*
X98390865Y-166376067D01*
X98204869Y-166487615D01*
X97996481Y-166676586D01*
X97828963Y-166902580D01*
X97708754Y-167156913D01*
X97668096Y-167290961D01*
X97790085Y-167513000D01*
X98933000Y-167513000D01*
X98933000Y-167493000D01*
X99187000Y-167493000D01*
X99187000Y-167513000D01*
X100329915Y-167513000D01*
X100451904Y-167290961D01*
X100411246Y-167156913D01*
X100291037Y-166902580D01*
X100123519Y-166676586D01*
X99915131Y-166487615D01*
X99729135Y-166376067D01*
X99739727Y-166371680D01*
X99974759Y-166214637D01*
X100174637Y-166014759D01*
X100331680Y-165779727D01*
X100439853Y-165518574D01*
X100495000Y-165241335D01*
X100495000Y-164958665D01*
X100439853Y-164681426D01*
X100331680Y-164420273D01*
X100174637Y-164185241D01*
X99974759Y-163985363D01*
X99742241Y-163830000D01*
X99974759Y-163674637D01*
X100174637Y-163474759D01*
X100331680Y-163239727D01*
X100439853Y-162978574D01*
X100495000Y-162701335D01*
X100495000Y-162418665D01*
X100439853Y-162141426D01*
X100331680Y-161880273D01*
X100174637Y-161645241D01*
X99976039Y-161446643D01*
X99984482Y-161445812D01*
X100104180Y-161409502D01*
X100214494Y-161350537D01*
X100311185Y-161271185D01*
X100390537Y-161174494D01*
X100449502Y-161064180D01*
X100485812Y-160944482D01*
X100498072Y-160820000D01*
X100498072Y-159220000D01*
X100485812Y-159095518D01*
X100449502Y-158975820D01*
X100390537Y-158865506D01*
X100311185Y-158768815D01*
X100214494Y-158689463D01*
X100104180Y-158630498D01*
X99984482Y-158594188D01*
X99860000Y-158581928D01*
X98260000Y-158581928D01*
X98135518Y-158594188D01*
X98015820Y-158630498D01*
X97914999Y-158684389D01*
X97914999Y-154871211D01*
X101161603Y-158117815D01*
X101185206Y-158146617D01*
X101214391Y-158170603D01*
X101214586Y-158170798D01*
X101222454Y-158177255D01*
X104327496Y-161282299D01*
X104327507Y-161282308D01*
X105281312Y-162236114D01*
X105245000Y-162418665D01*
X105245000Y-162701335D01*
X105300147Y-162978574D01*
X105408320Y-163239727D01*
X105565363Y-163474759D01*
X105765241Y-163674637D01*
X105997759Y-163830000D01*
X105765241Y-163985363D01*
X105565363Y-164185241D01*
X105408320Y-164420273D01*
X105300147Y-164681426D01*
X105245000Y-164958665D01*
X105245000Y-165241335D01*
X105300147Y-165518574D01*
X105408320Y-165779727D01*
X105565363Y-166014759D01*
X105765241Y-166214637D01*
X105997759Y-166370000D01*
X105765241Y-166525363D01*
X105565363Y-166725241D01*
X105408320Y-166960273D01*
X105300147Y-167221426D01*
X105245000Y-167498665D01*
X105245000Y-167781335D01*
X105300147Y-168058574D01*
X105408320Y-168319727D01*
X105565363Y-168554759D01*
X105765241Y-168754637D01*
X106000273Y-168911680D01*
X106261426Y-169019853D01*
X106538665Y-169075000D01*
X106821335Y-169075000D01*
X107098574Y-169019853D01*
X107359727Y-168911680D01*
X107594759Y-168754637D01*
X107794637Y-168554759D01*
X107951680Y-168319727D01*
X108059853Y-168058574D01*
X108115000Y-167781335D01*
X108115000Y-167498665D01*
X108078688Y-167316114D01*
X108588004Y-166806798D01*
X108617001Y-166783001D01*
X108711974Y-166667276D01*
X108782546Y-166535247D01*
X108826003Y-166391986D01*
X108837000Y-166280333D01*
X108837000Y-166280324D01*
X108840676Y-166243001D01*
X108837000Y-166205678D01*
X108837000Y-165129609D01*
X115699997Y-165129609D01*
X115886073Y-165470766D01*
X116303409Y-165686513D01*
X116754815Y-165816696D01*
X117222946Y-165856313D01*
X117689811Y-165803842D01*
X118137468Y-165661297D01*
X118493927Y-165470766D01*
X118680003Y-165129609D01*
X117190000Y-163639605D01*
X115699997Y-165129609D01*
X108837000Y-165129609D01*
X108837000Y-163492946D01*
X114793687Y-163492946D01*
X114846158Y-163959811D01*
X114988703Y-164407468D01*
X115179234Y-164763927D01*
X115520391Y-164950003D01*
X117010395Y-163460000D01*
X117369605Y-163460000D01*
X118859609Y-164950003D01*
X119200766Y-164763927D01*
X119416513Y-164346591D01*
X119546696Y-163895185D01*
X119586313Y-163427054D01*
X119533842Y-162960189D01*
X119391297Y-162512532D01*
X119200766Y-162156073D01*
X118859609Y-161969997D01*
X117369605Y-163460000D01*
X117010395Y-163460000D01*
X115520391Y-161969997D01*
X115179234Y-162156073D01*
X114963487Y-162573409D01*
X114833304Y-163024815D01*
X114793687Y-163492946D01*
X108837000Y-163492946D01*
X108837000Y-162329331D01*
X108840677Y-162291998D01*
X108826003Y-162143012D01*
X108782546Y-161999751D01*
X108711974Y-161867722D01*
X108648511Y-161790391D01*
X115699997Y-161790391D01*
X117190000Y-163280395D01*
X118680003Y-161790391D01*
X118493927Y-161449234D01*
X118076591Y-161233487D01*
X117625185Y-161103304D01*
X117157054Y-161063687D01*
X116690189Y-161116158D01*
X116242532Y-161258703D01*
X115886073Y-161449234D01*
X115699997Y-161790391D01*
X108648511Y-161790391D01*
X108640799Y-161780995D01*
X108617001Y-161751997D01*
X108588003Y-161728199D01*
X107794600Y-160934796D01*
X107794637Y-160934759D01*
X107951680Y-160699727D01*
X108059853Y-160438574D01*
X108115000Y-160161335D01*
X108115000Y-159878665D01*
X108059853Y-159601426D01*
X107951680Y-159340273D01*
X107794637Y-159105241D01*
X107594759Y-158905363D01*
X107359727Y-158748320D01*
X107098574Y-158640147D01*
X106821335Y-158585000D01*
X106538665Y-158585000D01*
X106261426Y-158640147D01*
X106000273Y-158748320D01*
X105765241Y-158905363D01*
X105565363Y-159105241D01*
X105408320Y-159340273D01*
X105338953Y-159507741D01*
X102477204Y-156645993D01*
X102453401Y-156616989D01*
X102416540Y-156586738D01*
X98815020Y-152985219D01*
X98815020Y-145972781D01*
X99921070Y-144866731D01*
X100178816Y-144918000D01*
X100481184Y-144918000D01*
X100777743Y-144859011D01*
X101057095Y-144743299D01*
X101308505Y-144575312D01*
X101522312Y-144361505D01*
X101690299Y-144110095D01*
X101806011Y-143830743D01*
X101865000Y-143534184D01*
X101865000Y-143231816D01*
X101806011Y-142935257D01*
X101690299Y-142655905D01*
X101522312Y-142404495D01*
X101455873Y-142338056D01*
X101474180Y-142332502D01*
X101584494Y-142273537D01*
X101681185Y-142194185D01*
X101760537Y-142097494D01*
X101819502Y-141987180D01*
X101855812Y-141867482D01*
X101868072Y-141743000D01*
X101868072Y-139943000D01*
X101855812Y-139818518D01*
X101819502Y-139698820D01*
X101760537Y-139588506D01*
X101681185Y-139491815D01*
X101584494Y-139412463D01*
X101474180Y-139353498D01*
X101354482Y-139317188D01*
X101230000Y-139304928D01*
X99866730Y-139304928D01*
X98815020Y-138253219D01*
X98815020Y-133145781D01*
X100078812Y-131881990D01*
X103155688Y-131881990D01*
X103193010Y-131885666D01*
X103230332Y-131881990D01*
X103230343Y-131881990D01*
X103341996Y-131870993D01*
X103485257Y-131827536D01*
X103617286Y-131756964D01*
X103733011Y-131661991D01*
X103756814Y-131632987D01*
X105721114Y-129668688D01*
X105903665Y-129705000D01*
X106186335Y-129705000D01*
X106463574Y-129649853D01*
X106724727Y-129541680D01*
X106959759Y-129384637D01*
X107159637Y-129184759D01*
X107316680Y-128949727D01*
X107424853Y-128688574D01*
X107480000Y-128411335D01*
X107480000Y-128128665D01*
X107785000Y-128128665D01*
X107785000Y-128411335D01*
X107840147Y-128688574D01*
X107948320Y-128949727D01*
X108105363Y-129184759D01*
X108305241Y-129384637D01*
X108540273Y-129541680D01*
X108801426Y-129649853D01*
X109078665Y-129705000D01*
X109361335Y-129705000D01*
X109638574Y-129649853D01*
X109899727Y-129541680D01*
X110134759Y-129384637D01*
X110334637Y-129184759D01*
X110491680Y-128949727D01*
X110599853Y-128688574D01*
X110655000Y-128411335D01*
X110655000Y-128128665D01*
X110599853Y-127851426D01*
X110491680Y-127590273D01*
X110334637Y-127355241D01*
X110134759Y-127155363D01*
X109899727Y-126998320D01*
X109638574Y-126890147D01*
X109361335Y-126835000D01*
X109078665Y-126835000D01*
X108801426Y-126890147D01*
X108540273Y-126998320D01*
X108305241Y-127155363D01*
X108105363Y-127355241D01*
X107948320Y-127590273D01*
X107840147Y-127851426D01*
X107785000Y-128128665D01*
X107480000Y-128128665D01*
X107424853Y-127851426D01*
X107316680Y-127590273D01*
X107159637Y-127355241D01*
X106959759Y-127155363D01*
X106724727Y-126998320D01*
X106463574Y-126890147D01*
X106186335Y-126835000D01*
X105903665Y-126835000D01*
X105626426Y-126890147D01*
X105365273Y-126998320D01*
X105130241Y-127155363D01*
X104930363Y-127355241D01*
X104773320Y-127590273D01*
X104665147Y-127851426D01*
X104610000Y-128128665D01*
X104610000Y-128411335D01*
X104646312Y-128593886D01*
X102878209Y-130361990D01*
X101852811Y-130361990D01*
X102546114Y-129668688D01*
X102728665Y-129705000D01*
X103011335Y-129705000D01*
X103288574Y-129649853D01*
X103549727Y-129541680D01*
X103784759Y-129384637D01*
X103984637Y-129184759D01*
X104141680Y-128949727D01*
X104249853Y-128688574D01*
X104305000Y-128411335D01*
X104305000Y-128128665D01*
X104249853Y-127851426D01*
X104141680Y-127590273D01*
X103984637Y-127355241D01*
X103784759Y-127155363D01*
X103549727Y-126998320D01*
X103288574Y-126890147D01*
X103011335Y-126835000D01*
X102728665Y-126835000D01*
X102451426Y-126890147D01*
X102190273Y-126998320D01*
X101955241Y-127155363D01*
X101755363Y-127355241D01*
X101598320Y-127590273D01*
X101490147Y-127851426D01*
X101435000Y-128128665D01*
X101435000Y-128411335D01*
X101471312Y-128593886D01*
X100455000Y-129610199D01*
X100455000Y-129488043D01*
X100609759Y-129384637D01*
X100809637Y-129184759D01*
X100966680Y-128949727D01*
X101074853Y-128688574D01*
X101130000Y-128411335D01*
X101130000Y-128128665D01*
X101074853Y-127851426D01*
X100966680Y-127590273D01*
X100809637Y-127355241D01*
X100609759Y-127155363D01*
X100374727Y-126998320D01*
X100113574Y-126890147D01*
X99836335Y-126835000D01*
X99553665Y-126835000D01*
X99276426Y-126890147D01*
X99015273Y-126998320D01*
X98780241Y-127155363D01*
X98580363Y-127355241D01*
X98423320Y-127590273D01*
X98315147Y-127851426D01*
X98260000Y-128128665D01*
X98260000Y-128411335D01*
X98315147Y-128688574D01*
X98423320Y-128949727D01*
X98580363Y-129184759D01*
X98780241Y-129384637D01*
X98928852Y-129483936D01*
X97464991Y-130947798D01*
X97464991Y-119749808D01*
X98424022Y-118790777D01*
X98580363Y-119024759D01*
X98780241Y-119224637D01*
X99015273Y-119381680D01*
X99276426Y-119489853D01*
X99553665Y-119545000D01*
X99836335Y-119545000D01*
X100113574Y-119489853D01*
X100374727Y-119381680D01*
X100609759Y-119224637D01*
X100809637Y-119024759D01*
X100966680Y-118789727D01*
X101074853Y-118528574D01*
X101130000Y-118251335D01*
X101130000Y-117968665D01*
X101093688Y-117786114D01*
X102099792Y-116780010D01*
X102331046Y-116780010D01*
X102190273Y-116838320D01*
X101955241Y-116995363D01*
X101755363Y-117195241D01*
X101598320Y-117430273D01*
X101490147Y-117691426D01*
X101435000Y-117968665D01*
X101435000Y-118251335D01*
X101490147Y-118528574D01*
X101598320Y-118789727D01*
X101755363Y-119024759D01*
X101955241Y-119224637D01*
X102190273Y-119381680D01*
X102451426Y-119489853D01*
X102728665Y-119545000D01*
X103011335Y-119545000D01*
X103288574Y-119489853D01*
X103549727Y-119381680D01*
X103784759Y-119224637D01*
X103906694Y-119102702D01*
X105231903Y-119102702D01*
X105303486Y-119346671D01*
X105558996Y-119467571D01*
X105833184Y-119536300D01*
X106115512Y-119550217D01*
X106395130Y-119508787D01*
X106661292Y-119413603D01*
X106786514Y-119346671D01*
X106858097Y-119102702D01*
X106045000Y-118289605D01*
X105231903Y-119102702D01*
X103906694Y-119102702D01*
X103984637Y-119024759D01*
X104141680Y-118789727D01*
X104249853Y-118528574D01*
X104305000Y-118251335D01*
X104305000Y-118180512D01*
X104604783Y-118180512D01*
X104646213Y-118460130D01*
X104741397Y-118726292D01*
X104808329Y-118851514D01*
X105052298Y-118923097D01*
X105865395Y-118110000D01*
X106224605Y-118110000D01*
X107037702Y-118923097D01*
X107281671Y-118851514D01*
X107402571Y-118596004D01*
X107471300Y-118321816D01*
X107485217Y-118039488D01*
X107443787Y-117759870D01*
X107348603Y-117493708D01*
X107281671Y-117368486D01*
X107037702Y-117296903D01*
X106224605Y-118110000D01*
X105865395Y-118110000D01*
X105052298Y-117296903D01*
X104808329Y-117368486D01*
X104687429Y-117623996D01*
X104618700Y-117898184D01*
X104604783Y-118180512D01*
X104305000Y-118180512D01*
X104305000Y-117968665D01*
X104249853Y-117691426D01*
X104141680Y-117430273D01*
X103984637Y-117195241D01*
X103784759Y-116995363D01*
X103549727Y-116838320D01*
X103408954Y-116780010D01*
X105502494Y-116780010D01*
X105428708Y-116806397D01*
X105303486Y-116873329D01*
X105231903Y-117117298D01*
X106045000Y-117930395D01*
X106858097Y-117117298D01*
X106786514Y-116873329D01*
X106589294Y-116780010D01*
X106815209Y-116780010D01*
X107821312Y-117786114D01*
X107785000Y-117968665D01*
X107785000Y-118251335D01*
X107840147Y-118528574D01*
X107948320Y-118789727D01*
X108105363Y-119024759D01*
X108305241Y-119224637D01*
X108540273Y-119381680D01*
X108801426Y-119489853D01*
X109078665Y-119545000D01*
X109361335Y-119545000D01*
X109638574Y-119489853D01*
X109899727Y-119381680D01*
X110134759Y-119224637D01*
X110334637Y-119024759D01*
X110491680Y-118789727D01*
X110599853Y-118528574D01*
X110655000Y-118251335D01*
X110655000Y-117968665D01*
X110599853Y-117691426D01*
X110491680Y-117430273D01*
X110334637Y-117195241D01*
X110134759Y-116995363D01*
X109899727Y-116838320D01*
X109638574Y-116730147D01*
X109361335Y-116675000D01*
X109078665Y-116675000D01*
X108896114Y-116711312D01*
X108514801Y-116330000D01*
X112085917Y-116330000D01*
X112227232Y-116541493D01*
X112439507Y-116753768D01*
X112689115Y-116920551D01*
X112966466Y-117035434D01*
X113260899Y-117094000D01*
X113561101Y-117094000D01*
X113855534Y-117035434D01*
X114132885Y-116920551D01*
X114382493Y-116753768D01*
X114594768Y-116541493D01*
X114681000Y-116412438D01*
X114767232Y-116541493D01*
X114979507Y-116753768D01*
X115229115Y-116920551D01*
X115506466Y-117035434D01*
X115800899Y-117094000D01*
X116101101Y-117094000D01*
X116350576Y-117044377D01*
X125997210Y-126691012D01*
X126021008Y-126720010D01*
X126050006Y-126743808D01*
X126136733Y-126814983D01*
X126268762Y-126885555D01*
X126412023Y-126929012D01*
X126561009Y-126943686D01*
X126598342Y-126940009D01*
X129698667Y-126940009D01*
X129698677Y-126940010D01*
X142375209Y-126940010D01*
X147830000Y-132394802D01*
X147830000Y-134528653D01*
X147828370Y-134527023D01*
X147712097Y-134643296D01*
X147640514Y-134399329D01*
X147385004Y-134278429D01*
X147110816Y-134209700D01*
X146828488Y-134195783D01*
X146548870Y-134237213D01*
X146282708Y-134332397D01*
X146157486Y-134399329D01*
X146085903Y-134643298D01*
X146899000Y-135456395D01*
X146913143Y-135442253D01*
X147092748Y-135621858D01*
X147078605Y-135636000D01*
X147092748Y-135650143D01*
X146913143Y-135829748D01*
X146899000Y-135815605D01*
X146085903Y-136628702D01*
X146157486Y-136872671D01*
X146412996Y-136993571D01*
X146687184Y-137062300D01*
X146969512Y-137076217D01*
X147249130Y-137034787D01*
X147515292Y-136939603D01*
X147640514Y-136872671D01*
X147712097Y-136628704D01*
X147828370Y-136744977D01*
X147830000Y-136743347D01*
X147830001Y-140370654D01*
X147828370Y-140369023D01*
X147712097Y-140485296D01*
X147640514Y-140241329D01*
X147385004Y-140120429D01*
X147110816Y-140051700D01*
X146828488Y-140037783D01*
X146548870Y-140079213D01*
X146282708Y-140174397D01*
X146157486Y-140241329D01*
X146085903Y-140485298D01*
X146899000Y-141298395D01*
X146913143Y-141284253D01*
X147092748Y-141463858D01*
X147078605Y-141478000D01*
X147092748Y-141492143D01*
X146913143Y-141671748D01*
X146899000Y-141657605D01*
X146085903Y-142470702D01*
X146157486Y-142714671D01*
X146412996Y-142835571D01*
X146687184Y-142904300D01*
X146969512Y-142918217D01*
X147249130Y-142876787D01*
X147515292Y-142781603D01*
X147640514Y-142714671D01*
X147712097Y-142470704D01*
X147828370Y-142586977D01*
X147830001Y-142585346D01*
X147830001Y-144562197D01*
X144335271Y-148056928D01*
X144022000Y-148056928D01*
X143997550Y-148059336D01*
X143972991Y-148059336D01*
X143848510Y-148071596D01*
X143752377Y-148090718D01*
X143632681Y-148127027D01*
X143542125Y-148164536D01*
X143431808Y-148223502D01*
X143350309Y-148277958D01*
X143253618Y-148357310D01*
X143184310Y-148426618D01*
X143104958Y-148523309D01*
X143050502Y-148604808D01*
X142991536Y-148715125D01*
X142954027Y-148805681D01*
X142917718Y-148925377D01*
X142898596Y-149021510D01*
X142886336Y-149145991D01*
X142886336Y-149170550D01*
X142883928Y-149195000D01*
X142883928Y-149695000D01*
X142896188Y-149819482D01*
X142903929Y-149845000D01*
X142896188Y-149870518D01*
X142883928Y-149995000D01*
X142883928Y-150495000D01*
X142886336Y-150519450D01*
X142886336Y-150544009D01*
X142898596Y-150668490D01*
X142917718Y-150764623D01*
X142954027Y-150884319D01*
X142991536Y-150974875D01*
X143050502Y-151085192D01*
X143104958Y-151166691D01*
X143184310Y-151263382D01*
X143253618Y-151332690D01*
X143350309Y-151412042D01*
X143431808Y-151466498D01*
X143512000Y-151509362D01*
X143512001Y-155895197D01*
X134247209Y-165159990D01*
X130703432Y-165159990D01*
X130720003Y-165129609D01*
X129230000Y-163639605D01*
X129215858Y-163653748D01*
X129036252Y-163474142D01*
X129050395Y-163460000D01*
X129409605Y-163460000D01*
X130899609Y-164950003D01*
X131240766Y-164763927D01*
X131456513Y-164346591D01*
X131586696Y-163895185D01*
X131626313Y-163427054D01*
X131573842Y-162960189D01*
X131431297Y-162512532D01*
X131240766Y-162156073D01*
X130899609Y-161969997D01*
X129409605Y-163460000D01*
X129050395Y-163460000D01*
X127560391Y-161969997D01*
X127219234Y-162156073D01*
X127003487Y-162573409D01*
X126873304Y-163024815D01*
X126833687Y-163492946D01*
X126886158Y-163959811D01*
X126888557Y-163967345D01*
X125040865Y-162119653D01*
X125093747Y-162100919D01*
X125231157Y-162027472D01*
X125305053Y-161790391D01*
X127739997Y-161790391D01*
X129230000Y-163280395D01*
X130720003Y-161790391D01*
X130533927Y-161449234D01*
X130116591Y-161233487D01*
X129665185Y-161103304D01*
X129197054Y-161063687D01*
X128730189Y-161116158D01*
X128282532Y-161258703D01*
X127926073Y-161449234D01*
X127739997Y-161790391D01*
X125305053Y-161790391D01*
X125308792Y-161778397D01*
X124460000Y-160929605D01*
X124445858Y-160943748D01*
X124266253Y-160764143D01*
X124280395Y-160750000D01*
X124266253Y-160735858D01*
X124445858Y-160556253D01*
X124460000Y-160570395D01*
X124474143Y-160556253D01*
X124653748Y-160735858D01*
X124639605Y-160750000D01*
X125488397Y-161598792D01*
X125737472Y-161521157D01*
X125863371Y-161257117D01*
X125935339Y-160973589D01*
X125950611Y-160681469D01*
X125908599Y-160391981D01*
X125810919Y-160116253D01*
X125770241Y-160040150D01*
X125840537Y-159954494D01*
X125899502Y-159844180D01*
X125935812Y-159724482D01*
X125948072Y-159600000D01*
X125948072Y-158140000D01*
X138462419Y-158140000D01*
X138491746Y-158137112D01*
X138507550Y-158137222D01*
X138516721Y-158136322D01*
X139009727Y-158084505D01*
X139068320Y-158072478D01*
X139127084Y-158061268D01*
X139135906Y-158058605D01*
X139609458Y-157912016D01*
X139664584Y-157888842D01*
X139720066Y-157866427D01*
X139728202Y-157862100D01*
X140164262Y-157626323D01*
X140213829Y-157592890D01*
X140263908Y-157560119D01*
X140271049Y-157554294D01*
X140653009Y-157238310D01*
X140695131Y-157195893D01*
X140737900Y-157154011D01*
X140743773Y-157146910D01*
X141057084Y-156762754D01*
X141090188Y-156712927D01*
X141123983Y-156663572D01*
X141128364Y-156655469D01*
X141128368Y-156655461D01*
X141361092Y-156217770D01*
X141383888Y-156162464D01*
X141407453Y-156107483D01*
X141410178Y-156098680D01*
X141553457Y-155624115D01*
X141565074Y-155565442D01*
X141577513Y-155506925D01*
X141578476Y-155497760D01*
X141626850Y-155004405D01*
X141626850Y-155004402D01*
X141630000Y-154972419D01*
X141630000Y-140678000D01*
X142960928Y-140678000D01*
X142960928Y-142278000D01*
X142973188Y-142402482D01*
X143009498Y-142522180D01*
X143068463Y-142632494D01*
X143147815Y-142729185D01*
X143244506Y-142808537D01*
X143354820Y-142867502D01*
X143474518Y-142903812D01*
X143599000Y-142916072D01*
X145199000Y-142916072D01*
X145323482Y-142903812D01*
X145443180Y-142867502D01*
X145553494Y-142808537D01*
X145650185Y-142729185D01*
X145729537Y-142632494D01*
X145788502Y-142522180D01*
X145824812Y-142402482D01*
X145837072Y-142278000D01*
X145837072Y-142270785D01*
X145906298Y-142291097D01*
X146719395Y-141478000D01*
X145906298Y-140664903D01*
X145837072Y-140685215D01*
X145837072Y-140678000D01*
X145824812Y-140553518D01*
X145788502Y-140433820D01*
X145729537Y-140323506D01*
X145650185Y-140226815D01*
X145553494Y-140147463D01*
X145443180Y-140088498D01*
X145323482Y-140052188D01*
X145199000Y-140039928D01*
X143599000Y-140039928D01*
X143474518Y-140052188D01*
X143354820Y-140088498D01*
X143244506Y-140147463D01*
X143147815Y-140226815D01*
X143068463Y-140323506D01*
X143009498Y-140433820D01*
X142973188Y-140553518D01*
X142960928Y-140678000D01*
X141630000Y-140678000D01*
X141630000Y-137127581D01*
X141627112Y-137098254D01*
X141627222Y-137082451D01*
X141626322Y-137073280D01*
X141574505Y-136580273D01*
X141562490Y-136521742D01*
X141551269Y-136462917D01*
X141548605Y-136454095D01*
X141402016Y-135980542D01*
X141378847Y-135925427D01*
X141356427Y-135869934D01*
X141352100Y-135861798D01*
X141116323Y-135425738D01*
X141082890Y-135376171D01*
X141050119Y-135326092D01*
X141044294Y-135318951D01*
X140728310Y-134936991D01*
X140685874Y-134894850D01*
X140644011Y-134852101D01*
X140636911Y-134846227D01*
X140624372Y-134836000D01*
X142960928Y-134836000D01*
X142960928Y-136436000D01*
X142973188Y-136560482D01*
X143009498Y-136680180D01*
X143068463Y-136790494D01*
X143147815Y-136887185D01*
X143244506Y-136966537D01*
X143354820Y-137025502D01*
X143474518Y-137061812D01*
X143599000Y-137074072D01*
X145199000Y-137074072D01*
X145323482Y-137061812D01*
X145443180Y-137025502D01*
X145553494Y-136966537D01*
X145650185Y-136887185D01*
X145729537Y-136790494D01*
X145788502Y-136680180D01*
X145824812Y-136560482D01*
X145837072Y-136436000D01*
X145837072Y-136428785D01*
X145906298Y-136449097D01*
X146719395Y-135636000D01*
X145906298Y-134822903D01*
X145837072Y-134843215D01*
X145837072Y-134836000D01*
X145824812Y-134711518D01*
X145788502Y-134591820D01*
X145729537Y-134481506D01*
X145650185Y-134384815D01*
X145553494Y-134305463D01*
X145443180Y-134246498D01*
X145323482Y-134210188D01*
X145199000Y-134197928D01*
X143599000Y-134197928D01*
X143474518Y-134210188D01*
X143354820Y-134246498D01*
X143244506Y-134305463D01*
X143147815Y-134384815D01*
X143068463Y-134481506D01*
X143009498Y-134591820D01*
X142973188Y-134711518D01*
X142960928Y-134836000D01*
X140624372Y-134836000D01*
X140252754Y-134532917D01*
X140202946Y-134499824D01*
X140153572Y-134466017D01*
X140145466Y-134461634D01*
X139707770Y-134228908D01*
X139652488Y-134206122D01*
X139597483Y-134182547D01*
X139588680Y-134179822D01*
X139114116Y-134036543D01*
X139055428Y-134024923D01*
X138996925Y-134012487D01*
X138987760Y-134011524D01*
X138494405Y-133963150D01*
X138494402Y-133963150D01*
X138462419Y-133960000D01*
X132587895Y-133960000D01*
X132656434Y-133794534D01*
X132715000Y-133500101D01*
X132715000Y-133199899D01*
X132656434Y-132905466D01*
X132541551Y-132628115D01*
X132374768Y-132378507D01*
X132162493Y-132166232D01*
X131912885Y-131999449D01*
X131635534Y-131884566D01*
X131341101Y-131826000D01*
X131040899Y-131826000D01*
X130746466Y-131884566D01*
X130469115Y-131999449D01*
X130219507Y-132166232D01*
X130007232Y-132378507D01*
X129901583Y-132536622D01*
X129707231Y-132473374D01*
X128830605Y-133350000D01*
X128844748Y-133364143D01*
X128665143Y-133543748D01*
X128651000Y-133529605D01*
X128636858Y-133543748D01*
X128457253Y-133364143D01*
X128471395Y-133350000D01*
X127594769Y-132473374D01*
X127400417Y-132536622D01*
X127294768Y-132378507D01*
X127210030Y-132293769D01*
X127774374Y-132293769D01*
X128651000Y-133170395D01*
X129527626Y-132293769D01*
X129445273Y-132040711D01*
X129174582Y-131910914D01*
X128883770Y-131836420D01*
X128584012Y-131820092D01*
X128286829Y-131862557D01*
X128003641Y-131962184D01*
X127856727Y-132040711D01*
X127774374Y-132293769D01*
X127210030Y-132293769D01*
X127082493Y-132166232D01*
X126832885Y-131999449D01*
X126555534Y-131884566D01*
X126261101Y-131826000D01*
X125960899Y-131826000D01*
X125666466Y-131884566D01*
X125389115Y-131999449D01*
X125139507Y-132166232D01*
X124927232Y-132378507D01*
X124841000Y-132507562D01*
X124754768Y-132378507D01*
X124542493Y-132166232D01*
X124292885Y-131999449D01*
X124015534Y-131884566D01*
X123721101Y-131826000D01*
X123420899Y-131826000D01*
X123126466Y-131884566D01*
X122849115Y-131999449D01*
X122599507Y-132166232D01*
X122387232Y-132378507D01*
X122301000Y-132507562D01*
X122214768Y-132378507D01*
X122002493Y-132166232D01*
X121752885Y-131999449D01*
X121475534Y-131884566D01*
X121181101Y-131826000D01*
X120880899Y-131826000D01*
X120586466Y-131884566D01*
X120309115Y-131999449D01*
X120059507Y-132166232D01*
X119847232Y-132378507D01*
X119761000Y-132507562D01*
X119674768Y-132378507D01*
X119462493Y-132166232D01*
X119212885Y-131999449D01*
X118935534Y-131884566D01*
X118641101Y-131826000D01*
X118340899Y-131826000D01*
X118046466Y-131884566D01*
X117769115Y-131999449D01*
X117519507Y-132166232D01*
X117307232Y-132378507D01*
X117221000Y-132507562D01*
X117134768Y-132378507D01*
X116922493Y-132166232D01*
X116711000Y-132024917D01*
X116711000Y-128942325D01*
X116714676Y-128905000D01*
X116711000Y-128867675D01*
X116711000Y-128867667D01*
X116700003Y-128756014D01*
X116656546Y-128612753D01*
X116585974Y-128480724D01*
X116491001Y-128364999D01*
X116462003Y-128341201D01*
X112577804Y-124457003D01*
X112554001Y-124427999D01*
X112438276Y-124333026D01*
X112306247Y-124262454D01*
X112162986Y-124218997D01*
X112051333Y-124208000D01*
X112051322Y-124208000D01*
X112014000Y-124204324D01*
X111976678Y-124208000D01*
X105597802Y-124208000D01*
X104032000Y-122642199D01*
X104032000Y-122580061D01*
X103992226Y-122380102D01*
X103914205Y-122191744D01*
X103800937Y-122022226D01*
X103656774Y-121878063D01*
X103487256Y-121764795D01*
X103298898Y-121686774D01*
X103098939Y-121647000D01*
X102895061Y-121647000D01*
X102695102Y-121686774D01*
X102506744Y-121764795D01*
X102337226Y-121878063D01*
X102193063Y-122022226D01*
X102079795Y-122191744D01*
X102001774Y-122380102D01*
X101962000Y-122580061D01*
X101962000Y-122783939D01*
X102001774Y-122983898D01*
X102079795Y-123172256D01*
X102193063Y-123341774D01*
X102337226Y-123485937D01*
X102506744Y-123599205D01*
X102695102Y-123677226D01*
X102895061Y-123717000D01*
X102957199Y-123717000D01*
X104719200Y-125479002D01*
X104742999Y-125508001D01*
X104858724Y-125602974D01*
X104990753Y-125673546D01*
X105134014Y-125717003D01*
X105245667Y-125728000D01*
X105245676Y-125728000D01*
X105282999Y-125731676D01*
X105320322Y-125728000D01*
X111699199Y-125728000D01*
X115191001Y-129219803D01*
X115191000Y-132024916D01*
X114979507Y-132166232D01*
X114767232Y-132378507D01*
X114681000Y-132507562D01*
X114594768Y-132378507D01*
X114382493Y-132166232D01*
X114132885Y-131999449D01*
X113855534Y-131884566D01*
X113561101Y-131826000D01*
X113260899Y-131826000D01*
X112966466Y-131884566D01*
X112689115Y-131999449D01*
X112439507Y-132166232D01*
X112227232Y-132378507D01*
X112060449Y-132628115D01*
X111945566Y-132905466D01*
X111887000Y-133199899D01*
X111887000Y-133500101D01*
X111945566Y-133794534D01*
X112014105Y-133960000D01*
X107917581Y-133960000D01*
X107888254Y-133962888D01*
X107872451Y-133962778D01*
X107863280Y-133963678D01*
X107370273Y-134015495D01*
X107311742Y-134027510D01*
X107252917Y-134038731D01*
X107244095Y-134041395D01*
X106770542Y-134187984D01*
X106715427Y-134211153D01*
X106659934Y-134233573D01*
X106651798Y-134237900D01*
X106215738Y-134473677D01*
X106166171Y-134507110D01*
X106116092Y-134539881D01*
X106108951Y-134545706D01*
X105726991Y-134861690D01*
X105684850Y-134904126D01*
X105642101Y-134945989D01*
X105636227Y-134953089D01*
X105322917Y-135337246D01*
X105289824Y-135387054D01*
X105256017Y-135436428D01*
X105251634Y-135444534D01*
X105018908Y-135882230D01*
X104996122Y-135937512D01*
X104972547Y-135992517D01*
X104969822Y-136001320D01*
X104826543Y-136475884D01*
X104814923Y-136534572D01*
X104802487Y-136593075D01*
X104801524Y-136602240D01*
X104753150Y-137095595D01*
X104750000Y-137127582D01*
X104750001Y-154972419D01*
X104752888Y-155001737D01*
X104752778Y-155017550D01*
X104753678Y-155026721D01*
X104805495Y-155519727D01*
X104817522Y-155578320D01*
X104828732Y-155637084D01*
X104831395Y-155645906D01*
X104977984Y-156119458D01*
X105001158Y-156174584D01*
X105023573Y-156230066D01*
X105027900Y-156238202D01*
X105263677Y-156674262D01*
X105297110Y-156723829D01*
X105329881Y-156773908D01*
X105335706Y-156781049D01*
X105651690Y-157163009D01*
X105694107Y-157205131D01*
X105735989Y-157247900D01*
X105743090Y-157253773D01*
X106127246Y-157567084D01*
X106177073Y-157600188D01*
X106226428Y-157633983D01*
X106234531Y-157638364D01*
X106234539Y-157638368D01*
X106672230Y-157871092D01*
X106727536Y-157893888D01*
X106782517Y-157917453D01*
X106791320Y-157920178D01*
X107265885Y-158063457D01*
X107324558Y-158075074D01*
X107383075Y-158087513D01*
X107392240Y-158088476D01*
X107885595Y-158136850D01*
X107885598Y-158136850D01*
X107917581Y-158140000D01*
X120605318Y-158140000D01*
X120532068Y-158316842D01*
X120475000Y-158603740D01*
X120475000Y-158896260D01*
X120532068Y-159183158D01*
X120644010Y-159453411D01*
X120806525Y-159696632D01*
X120859893Y-159750000D01*
X120806525Y-159803368D01*
X120644010Y-160046589D01*
X120532068Y-160316842D01*
X120475000Y-160603740D01*
X120475000Y-160896260D01*
X120532068Y-161183158D01*
X120644010Y-161453411D01*
X120806525Y-161696632D01*
X121013368Y-161903475D01*
X121256589Y-162065990D01*
X121526842Y-162177932D01*
X121813740Y-162235000D01*
X122106260Y-162235000D01*
X122326408Y-162191209D01*
X127016201Y-166881003D01*
X127039999Y-166910001D01*
X127155724Y-167004974D01*
X127287753Y-167075546D01*
X127431014Y-167119003D01*
X127542667Y-167130000D01*
X127542676Y-167130000D01*
X127579999Y-167133676D01*
X127617322Y-167130000D01*
X134711088Y-167130000D01*
X134748410Y-167133676D01*
X134785732Y-167130000D01*
X134785743Y-167130000D01*
X134897396Y-167119003D01*
X135040657Y-167075546D01*
X135172686Y-167004974D01*
X135288411Y-166910001D01*
X135312214Y-166880997D01*
X142007211Y-160186000D01*
X142529928Y-160186000D01*
X142529928Y-161886000D01*
X142542188Y-162010482D01*
X142578498Y-162130180D01*
X142637463Y-162240494D01*
X142716815Y-162337185D01*
X142813506Y-162416537D01*
X142923820Y-162475502D01*
X142996380Y-162497513D01*
X142864525Y-162629368D01*
X142702010Y-162872589D01*
X142590068Y-163142842D01*
X142533000Y-163429740D01*
X142533000Y-163722260D01*
X142590068Y-164009158D01*
X142702010Y-164279411D01*
X142864525Y-164522632D01*
X143071368Y-164729475D01*
X143245760Y-164846000D01*
X143071368Y-164962525D01*
X142864525Y-165169368D01*
X142702010Y-165412589D01*
X142590068Y-165682842D01*
X142533000Y-165969740D01*
X142533000Y-166262260D01*
X142590068Y-166549158D01*
X142702010Y-166819411D01*
X142864525Y-167062632D01*
X143071368Y-167269475D01*
X143314589Y-167431990D01*
X143584842Y-167543932D01*
X143871740Y-167601000D01*
X144164260Y-167601000D01*
X144451158Y-167543932D01*
X144721411Y-167431990D01*
X144964632Y-167269475D01*
X145171475Y-167062632D01*
X145289100Y-166886594D01*
X145460412Y-167116269D01*
X145676645Y-167311178D01*
X145926748Y-167460157D01*
X146201109Y-167557481D01*
X146431000Y-167436814D01*
X146431000Y-166243000D01*
X146685000Y-166243000D01*
X146685000Y-167436814D01*
X146914891Y-167557481D01*
X147189252Y-167460157D01*
X147439355Y-167311178D01*
X147655588Y-167116269D01*
X147829641Y-166882920D01*
X147954825Y-166620099D01*
X147999476Y-166472890D01*
X147878155Y-166243000D01*
X146685000Y-166243000D01*
X146431000Y-166243000D01*
X146411000Y-166243000D01*
X146411000Y-165989000D01*
X146431000Y-165989000D01*
X146431000Y-165969000D01*
X146685000Y-165969000D01*
X146685000Y-165989000D01*
X147878155Y-165989000D01*
X147999476Y-165759110D01*
X147954825Y-165611901D01*
X147829641Y-165349080D01*
X147655588Y-165115731D01*
X147439355Y-164920822D01*
X147322466Y-164851195D01*
X147504632Y-164729475D01*
X147711475Y-164522632D01*
X147873990Y-164279411D01*
X147985932Y-164009158D01*
X148043000Y-163722260D01*
X148043000Y-163429740D01*
X147985932Y-163142842D01*
X147873990Y-162872589D01*
X147711475Y-162629368D01*
X147504632Y-162422525D01*
X147330240Y-162306000D01*
X147504632Y-162189475D01*
X147711475Y-161982632D01*
X147873990Y-161739411D01*
X147985932Y-161469158D01*
X148043000Y-161182260D01*
X148043000Y-160889740D01*
X147985932Y-160602842D01*
X147873990Y-160332589D01*
X147711475Y-160089368D01*
X147504632Y-159882525D01*
X147261411Y-159720010D01*
X146991158Y-159608068D01*
X146704260Y-159551000D01*
X146411740Y-159551000D01*
X146124842Y-159608068D01*
X145854589Y-159720010D01*
X145611368Y-159882525D01*
X145479513Y-160014380D01*
X145457502Y-159941820D01*
X145398537Y-159831506D01*
X145319185Y-159734815D01*
X145222494Y-159655463D01*
X145112180Y-159596498D01*
X144992482Y-159560188D01*
X144868000Y-159547928D01*
X143168000Y-159547928D01*
X143043518Y-159560188D01*
X142923820Y-159596498D01*
X142813506Y-159655463D01*
X142716815Y-159734815D01*
X142637463Y-159831506D01*
X142578498Y-159941820D01*
X142542188Y-160061518D01*
X142529928Y-160186000D01*
X142007211Y-160186000D01*
X147323003Y-154870209D01*
X147352001Y-154846411D01*
X147446974Y-154730686D01*
X147517546Y-154598657D01*
X147561003Y-154455396D01*
X147572000Y-154343743D01*
X147575677Y-154306410D01*
X147572000Y-154269077D01*
X147572000Y-151524362D01*
X147652192Y-151481498D01*
X147733691Y-151427042D01*
X147830382Y-151347690D01*
X147899690Y-151278382D01*
X147979042Y-151181691D01*
X148033498Y-151100192D01*
X148092464Y-150989875D01*
X148129973Y-150899319D01*
X148166282Y-150779623D01*
X148185404Y-150683490D01*
X148197664Y-150559009D01*
X148197664Y-150534450D01*
X148200072Y-150510000D01*
X148200072Y-150010000D01*
X148187812Y-149885518D01*
X148180071Y-149860000D01*
X148187812Y-149834482D01*
X148200072Y-149710000D01*
X148200072Y-149210000D01*
X148197664Y-149185550D01*
X148197664Y-149160991D01*
X148185404Y-149036510D01*
X148166282Y-148940377D01*
X148163988Y-148932814D01*
X149551014Y-147545788D01*
X149580011Y-147521991D01*
X149606342Y-147489907D01*
X149674984Y-147406267D01*
X149745556Y-147274237D01*
X149745556Y-147274236D01*
X149789013Y-147130976D01*
X149800010Y-147019323D01*
X149800010Y-147019313D01*
X149803686Y-146981990D01*
X149800010Y-146944667D01*
X149800010Y-131930925D01*
X149803686Y-131893600D01*
X149800010Y-131856275D01*
X149800010Y-131856267D01*
X149789013Y-131744614D01*
X149745556Y-131601353D01*
X149674984Y-131469324D01*
X149580011Y-131353599D01*
X149551013Y-131329801D01*
X143531212Y-125310000D01*
X145831928Y-125310000D01*
X145844188Y-125434482D01*
X145880498Y-125554180D01*
X145939463Y-125664494D01*
X146018815Y-125761185D01*
X146115506Y-125840537D01*
X146225820Y-125899502D01*
X146345518Y-125935812D01*
X146470000Y-125948072D01*
X147034250Y-125945000D01*
X147193000Y-125786250D01*
X147193000Y-124587000D01*
X147447000Y-124587000D01*
X147447000Y-125786250D01*
X147605750Y-125945000D01*
X148170000Y-125948072D01*
X148294482Y-125935812D01*
X148414180Y-125899502D01*
X148524494Y-125840537D01*
X148621185Y-125761185D01*
X148700537Y-125664494D01*
X148759502Y-125554180D01*
X148795812Y-125434482D01*
X148808072Y-125310000D01*
X148805000Y-124745750D01*
X148646250Y-124587000D01*
X147447000Y-124587000D01*
X147193000Y-124587000D01*
X145993750Y-124587000D01*
X145835000Y-124745750D01*
X145831928Y-125310000D01*
X143531212Y-125310000D01*
X143440214Y-125219003D01*
X143416411Y-125189999D01*
X143300686Y-125095026D01*
X143168657Y-125024454D01*
X143025396Y-124980997D01*
X142913743Y-124970000D01*
X142913732Y-124970000D01*
X142876410Y-124966324D01*
X142839088Y-124970000D01*
X127062212Y-124970000D01*
X125702212Y-123610000D01*
X145831928Y-123610000D01*
X145835000Y-124174250D01*
X145993750Y-124333000D01*
X147193000Y-124333000D01*
X147193000Y-124313000D01*
X147447000Y-124313000D01*
X147447000Y-124333000D01*
X148646250Y-124333000D01*
X148805000Y-124174250D01*
X148808072Y-123610000D01*
X148795812Y-123485518D01*
X148759502Y-123365820D01*
X148700537Y-123255506D01*
X148621185Y-123158815D01*
X148524494Y-123079463D01*
X148414180Y-123020498D01*
X148341620Y-122998487D01*
X148473475Y-122866632D01*
X148635990Y-122623411D01*
X148747932Y-122353158D01*
X148805000Y-122066260D01*
X148805000Y-121773740D01*
X148747932Y-121486842D01*
X148635990Y-121216589D01*
X148473475Y-120973368D01*
X148266632Y-120766525D01*
X148023411Y-120604010D01*
X147753158Y-120492068D01*
X147466260Y-120435000D01*
X147173740Y-120435000D01*
X146886842Y-120492068D01*
X146616589Y-120604010D01*
X146373368Y-120766525D01*
X146166525Y-120973368D01*
X146004010Y-121216589D01*
X145892068Y-121486842D01*
X145835000Y-121773740D01*
X145835000Y-122066260D01*
X145892068Y-122353158D01*
X146004010Y-122623411D01*
X146166525Y-122866632D01*
X146298380Y-122998487D01*
X146225820Y-123020498D01*
X146115506Y-123079463D01*
X146018815Y-123158815D01*
X145939463Y-123255506D01*
X145880498Y-123365820D01*
X145844188Y-123485518D01*
X145831928Y-123610000D01*
X125702212Y-123610000D01*
X119251000Y-117158789D01*
X119251000Y-116895083D01*
X119462493Y-116753768D01*
X119674768Y-116541493D01*
X119761000Y-116412438D01*
X119847232Y-116541493D01*
X120059507Y-116753768D01*
X120309115Y-116920551D01*
X120586466Y-117035434D01*
X120880899Y-117094000D01*
X121181101Y-117094000D01*
X121475534Y-117035434D01*
X121752885Y-116920551D01*
X122002493Y-116753768D01*
X122214768Y-116541493D01*
X122301000Y-116412438D01*
X122387232Y-116541493D01*
X122599507Y-116753768D01*
X122849115Y-116920551D01*
X123126466Y-117035434D01*
X123420899Y-117094000D01*
X123721101Y-117094000D01*
X124015534Y-117035434D01*
X124292885Y-116920551D01*
X124542493Y-116753768D01*
X124754768Y-116541493D01*
X124841000Y-116412438D01*
X124927232Y-116541493D01*
X125139507Y-116753768D01*
X125389115Y-116920551D01*
X125666466Y-117035434D01*
X125960899Y-117094000D01*
X126261101Y-117094000D01*
X126555534Y-117035434D01*
X126832885Y-116920551D01*
X127082493Y-116753768D01*
X127210030Y-116626231D01*
X127774374Y-116626231D01*
X127856727Y-116879289D01*
X128127418Y-117009086D01*
X128418230Y-117083580D01*
X128717988Y-117099908D01*
X129015171Y-117057443D01*
X129298359Y-116957816D01*
X129445273Y-116879289D01*
X129527626Y-116626231D01*
X128651000Y-115749605D01*
X127774374Y-116626231D01*
X127210030Y-116626231D01*
X127294768Y-116541493D01*
X127400417Y-116383378D01*
X127594769Y-116446626D01*
X128471395Y-115570000D01*
X128457253Y-115555858D01*
X128636858Y-115376253D01*
X128651000Y-115390395D01*
X128665143Y-115376253D01*
X128844748Y-115555858D01*
X128830605Y-115570000D01*
X129707231Y-116446626D01*
X129901583Y-116383378D01*
X130007232Y-116541493D01*
X130219507Y-116753768D01*
X130469115Y-116920551D01*
X130746466Y-117035434D01*
X131040899Y-117094000D01*
X131341101Y-117094000D01*
X131635534Y-117035434D01*
X131912885Y-116920551D01*
X132162493Y-116753768D01*
X132374768Y-116541493D01*
X132541551Y-116291885D01*
X132656434Y-116014534D01*
X132715000Y-115720101D01*
X132715000Y-115419899D01*
X132656434Y-115125466D01*
X132587895Y-114960000D01*
X146020608Y-114960000D01*
X146832249Y-115032437D01*
G37*
X146832249Y-115032437D02*
X147589774Y-115239672D01*
X148298625Y-115577777D01*
X148936404Y-116036067D01*
X149482946Y-116600055D01*
X149920977Y-117251913D01*
X150236651Y-117971038D01*
X150421206Y-118739768D01*
X150470000Y-119404207D01*
X150470001Y-165070597D01*
X150397563Y-165882249D01*
X150190328Y-166639774D01*
X149852221Y-167348627D01*
X149393928Y-167986410D01*
X148829945Y-168532946D01*
X148178085Y-168970978D01*
X147458963Y-169286651D01*
X146690232Y-169471206D01*
X146025792Y-169520000D01*
X100359392Y-169520000D01*
X99547751Y-169447563D01*
X98790226Y-169240328D01*
X98081373Y-168902221D01*
X97443590Y-168443928D01*
X97002774Y-167989039D01*
X97668096Y-167989039D01*
X97708754Y-168123087D01*
X97828963Y-168377420D01*
X97996481Y-168603414D01*
X98204869Y-168792385D01*
X98446119Y-168937070D01*
X98710960Y-169031909D01*
X98933000Y-168910624D01*
X98933000Y-167767000D01*
X99187000Y-167767000D01*
X99187000Y-168910624D01*
X99409040Y-169031909D01*
X99673881Y-168937070D01*
X99915131Y-168792385D01*
X100123519Y-168603414D01*
X100291037Y-168377420D01*
X100411246Y-168123087D01*
X100451904Y-167989039D01*
X100329915Y-167767000D01*
X99187000Y-167767000D01*
X98933000Y-167767000D01*
X97790085Y-167767000D01*
X97668096Y-167989039D01*
X97002774Y-167989039D01*
X96897054Y-167879945D01*
X96459022Y-167228085D01*
X96143349Y-166508963D01*
X95958794Y-165740232D01*
X95910000Y-165075792D01*
X95910000Y-119409392D01*
X95982437Y-118597751D01*
X96189672Y-117840226D01*
X96527777Y-117131375D01*
X96986067Y-116493596D01*
X97550055Y-115947054D01*
X98201913Y-115509023D01*
X98921038Y-115193349D01*
X99689768Y-115008794D01*
X100091811Y-114979269D01*
X100029997Y-115029999D01*
X100006199Y-115058997D01*
X96193994Y-118871203D01*
X96164990Y-118895006D01*
X96140705Y-118924598D01*
X96070017Y-119010731D01*
X96030454Y-119084748D01*
X95999445Y-119142761D01*
X95955988Y-119286022D01*
X95944991Y-119397675D01*
X95944991Y-119397685D01*
X95941315Y-119435007D01*
X95944991Y-119472329D01*
X95944992Y-162707658D01*
X95941315Y-162744991D01*
X95944992Y-162782324D01*
X95953883Y-162872589D01*
X95955989Y-162893976D01*
X95999445Y-163037237D01*
X96070017Y-163169267D01*
X96127843Y-163239727D01*
X96164991Y-163284992D01*
X96193989Y-163308790D01*
X97661312Y-164776114D01*
X97625000Y-164958665D01*
X97625000Y-165241335D01*
X97680147Y-165518574D01*
X97788320Y-165779727D01*
X97945363Y-166014759D01*
X98145241Y-166214637D01*
X98380273Y-166371680D01*
X98390865Y-166376067D01*
X98204869Y-166487615D01*
X97996481Y-166676586D01*
X97828963Y-166902580D01*
X97708754Y-167156913D01*
X97668096Y-167290961D01*
X97790085Y-167513000D01*
X98933000Y-167513000D01*
X98933000Y-167493000D01*
X99187000Y-167493000D01*
X99187000Y-167513000D01*
X100329915Y-167513000D01*
X100451904Y-167290961D01*
X100411246Y-167156913D01*
X100291037Y-166902580D01*
X100123519Y-166676586D01*
X99915131Y-166487615D01*
X99729135Y-166376067D01*
X99739727Y-166371680D01*
X99974759Y-166214637D01*
X100174637Y-166014759D01*
X100331680Y-165779727D01*
X100439853Y-165518574D01*
X100495000Y-165241335D01*
X100495000Y-164958665D01*
X100439853Y-164681426D01*
X100331680Y-164420273D01*
X100174637Y-164185241D01*
X99974759Y-163985363D01*
X99742241Y-163830000D01*
X99974759Y-163674637D01*
X100174637Y-163474759D01*
X100331680Y-163239727D01*
X100439853Y-162978574D01*
X100495000Y-162701335D01*
X100495000Y-162418665D01*
X100439853Y-162141426D01*
X100331680Y-161880273D01*
X100174637Y-161645241D01*
X99976039Y-161446643D01*
X99984482Y-161445812D01*
X100104180Y-161409502D01*
X100214494Y-161350537D01*
X100311185Y-161271185D01*
X100390537Y-161174494D01*
X100449502Y-161064180D01*
X100485812Y-160944482D01*
X100498072Y-160820000D01*
X100498072Y-159220000D01*
X100485812Y-159095518D01*
X100449502Y-158975820D01*
X100390537Y-158865506D01*
X100311185Y-158768815D01*
X100214494Y-158689463D01*
X100104180Y-158630498D01*
X99984482Y-158594188D01*
X99860000Y-158581928D01*
X98260000Y-158581928D01*
X98135518Y-158594188D01*
X98015820Y-158630498D01*
X97914999Y-158684389D01*
X97914999Y-154871211D01*
X101161603Y-158117815D01*
X101185206Y-158146617D01*
X101214391Y-158170603D01*
X101214586Y-158170798D01*
X101222454Y-158177255D01*
X104327496Y-161282299D01*
X104327507Y-161282308D01*
X105281312Y-162236114D01*
X105245000Y-162418665D01*
X105245000Y-162701335D01*
X105300147Y-162978574D01*
X105408320Y-163239727D01*
X105565363Y-163474759D01*
X105765241Y-163674637D01*
X105997759Y-163830000D01*
X105765241Y-163985363D01*
X105565363Y-164185241D01*
X105408320Y-164420273D01*
X105300147Y-164681426D01*
X105245000Y-164958665D01*
X105245000Y-165241335D01*
X105300147Y-165518574D01*
X105408320Y-165779727D01*
X105565363Y-166014759D01*
X105765241Y-166214637D01*
X105997759Y-166370000D01*
X105765241Y-166525363D01*
X105565363Y-166725241D01*
X105408320Y-166960273D01*
X105300147Y-167221426D01*
X105245000Y-167498665D01*
X105245000Y-167781335D01*
X105300147Y-168058574D01*
X105408320Y-168319727D01*
X105565363Y-168554759D01*
X105765241Y-168754637D01*
X106000273Y-168911680D01*
X106261426Y-169019853D01*
X106538665Y-169075000D01*
X106821335Y-169075000D01*
X107098574Y-169019853D01*
X107359727Y-168911680D01*
X107594759Y-168754637D01*
X107794637Y-168554759D01*
X107951680Y-168319727D01*
X108059853Y-168058574D01*
X108115000Y-167781335D01*
X108115000Y-167498665D01*
X108078688Y-167316114D01*
X108588004Y-166806798D01*
X108617001Y-166783001D01*
X108711974Y-166667276D01*
X108782546Y-166535247D01*
X108826003Y-166391986D01*
X108837000Y-166280333D01*
X108837000Y-166280324D01*
X108840676Y-166243001D01*
X108837000Y-166205678D01*
X108837000Y-165129609D01*
X115699997Y-165129609D01*
X115886073Y-165470766D01*
X116303409Y-165686513D01*
X116754815Y-165816696D01*
X117222946Y-165856313D01*
X117689811Y-165803842D01*
X118137468Y-165661297D01*
X118493927Y-165470766D01*
X118680003Y-165129609D01*
X117190000Y-163639605D01*
X115699997Y-165129609D01*
X108837000Y-165129609D01*
X108837000Y-163492946D01*
X114793687Y-163492946D01*
X114846158Y-163959811D01*
X114988703Y-164407468D01*
X115179234Y-164763927D01*
X115520391Y-164950003D01*
X117010395Y-163460000D01*
X117369605Y-163460000D01*
X118859609Y-164950003D01*
X119200766Y-164763927D01*
X119416513Y-164346591D01*
X119546696Y-163895185D01*
X119586313Y-163427054D01*
X119533842Y-162960189D01*
X119391297Y-162512532D01*
X119200766Y-162156073D01*
X118859609Y-161969997D01*
X117369605Y-163460000D01*
X117010395Y-163460000D01*
X115520391Y-161969997D01*
X115179234Y-162156073D01*
X114963487Y-162573409D01*
X114833304Y-163024815D01*
X114793687Y-163492946D01*
X108837000Y-163492946D01*
X108837000Y-162329331D01*
X108840677Y-162291998D01*
X108826003Y-162143012D01*
X108782546Y-161999751D01*
X108711974Y-161867722D01*
X108648511Y-161790391D01*
X115699997Y-161790391D01*
X117190000Y-163280395D01*
X118680003Y-161790391D01*
X118493927Y-161449234D01*
X118076591Y-161233487D01*
X117625185Y-161103304D01*
X117157054Y-161063687D01*
X116690189Y-161116158D01*
X116242532Y-161258703D01*
X115886073Y-161449234D01*
X115699997Y-161790391D01*
X108648511Y-161790391D01*
X108640799Y-161780995D01*
X108617001Y-161751997D01*
X108588003Y-161728199D01*
X107794600Y-160934796D01*
X107794637Y-160934759D01*
X107951680Y-160699727D01*
X108059853Y-160438574D01*
X108115000Y-160161335D01*
X108115000Y-159878665D01*
X108059853Y-159601426D01*
X107951680Y-159340273D01*
X107794637Y-159105241D01*
X107594759Y-158905363D01*
X107359727Y-158748320D01*
X107098574Y-158640147D01*
X106821335Y-158585000D01*
X106538665Y-158585000D01*
X106261426Y-158640147D01*
X106000273Y-158748320D01*
X105765241Y-158905363D01*
X105565363Y-159105241D01*
X105408320Y-159340273D01*
X105338953Y-159507741D01*
X102477204Y-156645993D01*
X102453401Y-156616989D01*
X102416540Y-156586738D01*
X98815020Y-152985219D01*
X98815020Y-145972781D01*
X99921070Y-144866731D01*
X100178816Y-144918000D01*
X100481184Y-144918000D01*
X100777743Y-144859011D01*
X101057095Y-144743299D01*
X101308505Y-144575312D01*
X101522312Y-144361505D01*
X101690299Y-144110095D01*
X101806011Y-143830743D01*
X101865000Y-143534184D01*
X101865000Y-143231816D01*
X101806011Y-142935257D01*
X101690299Y-142655905D01*
X101522312Y-142404495D01*
X101455873Y-142338056D01*
X101474180Y-142332502D01*
X101584494Y-142273537D01*
X101681185Y-142194185D01*
X101760537Y-142097494D01*
X101819502Y-141987180D01*
X101855812Y-141867482D01*
X101868072Y-141743000D01*
X101868072Y-139943000D01*
X101855812Y-139818518D01*
X101819502Y-139698820D01*
X101760537Y-139588506D01*
X101681185Y-139491815D01*
X101584494Y-139412463D01*
X101474180Y-139353498D01*
X101354482Y-139317188D01*
X101230000Y-139304928D01*
X99866730Y-139304928D01*
X98815020Y-138253219D01*
X98815020Y-133145781D01*
X100078812Y-131881990D01*
X103155688Y-131881990D01*
X103193010Y-131885666D01*
X103230332Y-131881990D01*
X103230343Y-131881990D01*
X103341996Y-131870993D01*
X103485257Y-131827536D01*
X103617286Y-131756964D01*
X103733011Y-131661991D01*
X103756814Y-131632987D01*
X105721114Y-129668688D01*
X105903665Y-129705000D01*
X106186335Y-129705000D01*
X106463574Y-129649853D01*
X106724727Y-129541680D01*
X106959759Y-129384637D01*
X107159637Y-129184759D01*
X107316680Y-128949727D01*
X107424853Y-128688574D01*
X107480000Y-128411335D01*
X107480000Y-128128665D01*
X107785000Y-128128665D01*
X107785000Y-128411335D01*
X107840147Y-128688574D01*
X107948320Y-128949727D01*
X108105363Y-129184759D01*
X108305241Y-129384637D01*
X108540273Y-129541680D01*
X108801426Y-129649853D01*
X109078665Y-129705000D01*
X109361335Y-129705000D01*
X109638574Y-129649853D01*
X109899727Y-129541680D01*
X110134759Y-129384637D01*
X110334637Y-129184759D01*
X110491680Y-128949727D01*
X110599853Y-128688574D01*
X110655000Y-128411335D01*
X110655000Y-128128665D01*
X110599853Y-127851426D01*
X110491680Y-127590273D01*
X110334637Y-127355241D01*
X110134759Y-127155363D01*
X109899727Y-126998320D01*
X109638574Y-126890147D01*
X109361335Y-126835000D01*
X109078665Y-126835000D01*
X108801426Y-126890147D01*
X108540273Y-126998320D01*
X108305241Y-127155363D01*
X108105363Y-127355241D01*
X107948320Y-127590273D01*
X107840147Y-127851426D01*
X107785000Y-128128665D01*
X107480000Y-128128665D01*
X107424853Y-127851426D01*
X107316680Y-127590273D01*
X107159637Y-127355241D01*
X106959759Y-127155363D01*
X106724727Y-126998320D01*
X106463574Y-126890147D01*
X106186335Y-126835000D01*
X105903665Y-126835000D01*
X105626426Y-126890147D01*
X105365273Y-126998320D01*
X105130241Y-127155363D01*
X104930363Y-127355241D01*
X104773320Y-127590273D01*
X104665147Y-127851426D01*
X104610000Y-128128665D01*
X104610000Y-128411335D01*
X104646312Y-128593886D01*
X102878209Y-130361990D01*
X101852811Y-130361990D01*
X102546114Y-129668688D01*
X102728665Y-129705000D01*
X103011335Y-129705000D01*
X103288574Y-129649853D01*
X103549727Y-129541680D01*
X103784759Y-129384637D01*
X103984637Y-129184759D01*
X104141680Y-128949727D01*
X104249853Y-128688574D01*
X104305000Y-128411335D01*
X104305000Y-128128665D01*
X104249853Y-127851426D01*
X104141680Y-127590273D01*
X103984637Y-127355241D01*
X103784759Y-127155363D01*
X103549727Y-126998320D01*
X103288574Y-126890147D01*
X103011335Y-126835000D01*
X102728665Y-126835000D01*
X102451426Y-126890147D01*
X102190273Y-126998320D01*
X101955241Y-127155363D01*
X101755363Y-127355241D01*
X101598320Y-127590273D01*
X101490147Y-127851426D01*
X101435000Y-128128665D01*
X101435000Y-128411335D01*
X101471312Y-128593886D01*
X100455000Y-129610199D01*
X100455000Y-129488043D01*
X100609759Y-129384637D01*
X100809637Y-129184759D01*
X100966680Y-128949727D01*
X101074853Y-128688574D01*
X101130000Y-128411335D01*
X101130000Y-128128665D01*
X101074853Y-127851426D01*
X100966680Y-127590273D01*
X100809637Y-127355241D01*
X100609759Y-127155363D01*
X100374727Y-126998320D01*
X100113574Y-126890147D01*
X99836335Y-126835000D01*
X99553665Y-126835000D01*
X99276426Y-126890147D01*
X99015273Y-126998320D01*
X98780241Y-127155363D01*
X98580363Y-127355241D01*
X98423320Y-127590273D01*
X98315147Y-127851426D01*
X98260000Y-128128665D01*
X98260000Y-128411335D01*
X98315147Y-128688574D01*
X98423320Y-128949727D01*
X98580363Y-129184759D01*
X98780241Y-129384637D01*
X98928852Y-129483936D01*
X97464991Y-130947798D01*
X97464991Y-119749808D01*
X98424022Y-118790777D01*
X98580363Y-119024759D01*
X98780241Y-119224637D01*
X99015273Y-119381680D01*
X99276426Y-119489853D01*
X99553665Y-119545000D01*
X99836335Y-119545000D01*
X100113574Y-119489853D01*
X100374727Y-119381680D01*
X100609759Y-119224637D01*
X100809637Y-119024759D01*
X100966680Y-118789727D01*
X101074853Y-118528574D01*
X101130000Y-118251335D01*
X101130000Y-117968665D01*
X101093688Y-117786114D01*
X102099792Y-116780010D01*
X102331046Y-116780010D01*
X102190273Y-116838320D01*
X101955241Y-116995363D01*
X101755363Y-117195241D01*
X101598320Y-117430273D01*
X101490147Y-117691426D01*
X101435000Y-117968665D01*
X101435000Y-118251335D01*
X101490147Y-118528574D01*
X101598320Y-118789727D01*
X101755363Y-119024759D01*
X101955241Y-119224637D01*
X102190273Y-119381680D01*
X102451426Y-119489853D01*
X102728665Y-119545000D01*
X103011335Y-119545000D01*
X103288574Y-119489853D01*
X103549727Y-119381680D01*
X103784759Y-119224637D01*
X103906694Y-119102702D01*
X105231903Y-119102702D01*
X105303486Y-119346671D01*
X105558996Y-119467571D01*
X105833184Y-119536300D01*
X106115512Y-119550217D01*
X106395130Y-119508787D01*
X106661292Y-119413603D01*
X106786514Y-119346671D01*
X106858097Y-119102702D01*
X106045000Y-118289605D01*
X105231903Y-119102702D01*
X103906694Y-119102702D01*
X103984637Y-119024759D01*
X104141680Y-118789727D01*
X104249853Y-118528574D01*
X104305000Y-118251335D01*
X104305000Y-118180512D01*
X104604783Y-118180512D01*
X104646213Y-118460130D01*
X104741397Y-118726292D01*
X104808329Y-118851514D01*
X105052298Y-118923097D01*
X105865395Y-118110000D01*
X106224605Y-118110000D01*
X107037702Y-118923097D01*
X107281671Y-118851514D01*
X107402571Y-118596004D01*
X107471300Y-118321816D01*
X107485217Y-118039488D01*
X107443787Y-117759870D01*
X107348603Y-117493708D01*
X107281671Y-117368486D01*
X107037702Y-117296903D01*
X106224605Y-118110000D01*
X105865395Y-118110000D01*
X105052298Y-117296903D01*
X104808329Y-117368486D01*
X104687429Y-117623996D01*
X104618700Y-117898184D01*
X104604783Y-118180512D01*
X104305000Y-118180512D01*
X104305000Y-117968665D01*
X104249853Y-117691426D01*
X104141680Y-117430273D01*
X103984637Y-117195241D01*
X103784759Y-116995363D01*
X103549727Y-116838320D01*
X103408954Y-116780010D01*
X105502494Y-116780010D01*
X105428708Y-116806397D01*
X105303486Y-116873329D01*
X105231903Y-117117298D01*
X106045000Y-117930395D01*
X106858097Y-117117298D01*
X106786514Y-116873329D01*
X106589294Y-116780010D01*
X106815209Y-116780010D01*
X107821312Y-117786114D01*
X107785000Y-117968665D01*
X107785000Y-118251335D01*
X107840147Y-118528574D01*
X107948320Y-118789727D01*
X108105363Y-119024759D01*
X108305241Y-119224637D01*
X108540273Y-119381680D01*
X108801426Y-119489853D01*
X109078665Y-119545000D01*
X109361335Y-119545000D01*
X109638574Y-119489853D01*
X109899727Y-119381680D01*
X110134759Y-119224637D01*
X110334637Y-119024759D01*
X110491680Y-118789727D01*
X110599853Y-118528574D01*
X110655000Y-118251335D01*
X110655000Y-117968665D01*
X110599853Y-117691426D01*
X110491680Y-117430273D01*
X110334637Y-117195241D01*
X110134759Y-116995363D01*
X109899727Y-116838320D01*
X109638574Y-116730147D01*
X109361335Y-116675000D01*
X109078665Y-116675000D01*
X108896114Y-116711312D01*
X108514801Y-116330000D01*
X112085917Y-116330000D01*
X112227232Y-116541493D01*
X112439507Y-116753768D01*
X112689115Y-116920551D01*
X112966466Y-117035434D01*
X113260899Y-117094000D01*
X113561101Y-117094000D01*
X113855534Y-117035434D01*
X114132885Y-116920551D01*
X114382493Y-116753768D01*
X114594768Y-116541493D01*
X114681000Y-116412438D01*
X114767232Y-116541493D01*
X114979507Y-116753768D01*
X115229115Y-116920551D01*
X115506466Y-117035434D01*
X115800899Y-117094000D01*
X116101101Y-117094000D01*
X116350576Y-117044377D01*
X125997210Y-126691012D01*
X126021008Y-126720010D01*
X126050006Y-126743808D01*
X126136733Y-126814983D01*
X126268762Y-126885555D01*
X126412023Y-126929012D01*
X126561009Y-126943686D01*
X126598342Y-126940009D01*
X129698667Y-126940009D01*
X129698677Y-126940010D01*
X142375209Y-126940010D01*
X147830000Y-132394802D01*
X147830000Y-134528653D01*
X147828370Y-134527023D01*
X147712097Y-134643296D01*
X147640514Y-134399329D01*
X147385004Y-134278429D01*
X147110816Y-134209700D01*
X146828488Y-134195783D01*
X146548870Y-134237213D01*
X146282708Y-134332397D01*
X146157486Y-134399329D01*
X146085903Y-134643298D01*
X146899000Y-135456395D01*
X146913143Y-135442253D01*
X147092748Y-135621858D01*
X147078605Y-135636000D01*
X147092748Y-135650143D01*
X146913143Y-135829748D01*
X146899000Y-135815605D01*
X146085903Y-136628702D01*
X146157486Y-136872671D01*
X146412996Y-136993571D01*
X146687184Y-137062300D01*
X146969512Y-137076217D01*
X147249130Y-137034787D01*
X147515292Y-136939603D01*
X147640514Y-136872671D01*
X147712097Y-136628704D01*
X147828370Y-136744977D01*
X147830000Y-136743347D01*
X147830001Y-140370654D01*
X147828370Y-140369023D01*
X147712097Y-140485296D01*
X147640514Y-140241329D01*
X147385004Y-140120429D01*
X147110816Y-140051700D01*
X146828488Y-140037783D01*
X146548870Y-140079213D01*
X146282708Y-140174397D01*
X146157486Y-140241329D01*
X146085903Y-140485298D01*
X146899000Y-141298395D01*
X146913143Y-141284253D01*
X147092748Y-141463858D01*
X147078605Y-141478000D01*
X147092748Y-141492143D01*
X146913143Y-141671748D01*
X146899000Y-141657605D01*
X146085903Y-142470702D01*
X146157486Y-142714671D01*
X146412996Y-142835571D01*
X146687184Y-142904300D01*
X146969512Y-142918217D01*
X147249130Y-142876787D01*
X147515292Y-142781603D01*
X147640514Y-142714671D01*
X147712097Y-142470704D01*
X147828370Y-142586977D01*
X147830001Y-142585346D01*
X147830001Y-144562197D01*
X144335271Y-148056928D01*
X144022000Y-148056928D01*
X143997550Y-148059336D01*
X143972991Y-148059336D01*
X143848510Y-148071596D01*
X143752377Y-148090718D01*
X143632681Y-148127027D01*
X143542125Y-148164536D01*
X143431808Y-148223502D01*
X143350309Y-148277958D01*
X143253618Y-148357310D01*
X143184310Y-148426618D01*
X143104958Y-148523309D01*
X143050502Y-148604808D01*
X142991536Y-148715125D01*
X142954027Y-148805681D01*
X142917718Y-148925377D01*
X142898596Y-149021510D01*
X142886336Y-149145991D01*
X142886336Y-149170550D01*
X142883928Y-149195000D01*
X142883928Y-149695000D01*
X142896188Y-149819482D01*
X142903929Y-149845000D01*
X142896188Y-149870518D01*
X142883928Y-149995000D01*
X142883928Y-150495000D01*
X142886336Y-150519450D01*
X142886336Y-150544009D01*
X142898596Y-150668490D01*
X142917718Y-150764623D01*
X142954027Y-150884319D01*
X142991536Y-150974875D01*
X143050502Y-151085192D01*
X143104958Y-151166691D01*
X143184310Y-151263382D01*
X143253618Y-151332690D01*
X143350309Y-151412042D01*
X143431808Y-151466498D01*
X143512000Y-151509362D01*
X143512001Y-155895197D01*
X134247209Y-165159990D01*
X130703432Y-165159990D01*
X130720003Y-165129609D01*
X129230000Y-163639605D01*
X129215858Y-163653748D01*
X129036252Y-163474142D01*
X129050395Y-163460000D01*
X129409605Y-163460000D01*
X130899609Y-164950003D01*
X131240766Y-164763927D01*
X131456513Y-164346591D01*
X131586696Y-163895185D01*
X131626313Y-163427054D01*
X131573842Y-162960189D01*
X131431297Y-162512532D01*
X131240766Y-162156073D01*
X130899609Y-161969997D01*
X129409605Y-163460000D01*
X129050395Y-163460000D01*
X127560391Y-161969997D01*
X127219234Y-162156073D01*
X127003487Y-162573409D01*
X126873304Y-163024815D01*
X126833687Y-163492946D01*
X126886158Y-163959811D01*
X126888557Y-163967345D01*
X125040865Y-162119653D01*
X125093747Y-162100919D01*
X125231157Y-162027472D01*
X125305053Y-161790391D01*
X127739997Y-161790391D01*
X129230000Y-163280395D01*
X130720003Y-161790391D01*
X130533927Y-161449234D01*
X130116591Y-161233487D01*
X129665185Y-161103304D01*
X129197054Y-161063687D01*
X128730189Y-161116158D01*
X128282532Y-161258703D01*
X127926073Y-161449234D01*
X127739997Y-161790391D01*
X125305053Y-161790391D01*
X125308792Y-161778397D01*
X124460000Y-160929605D01*
X124445858Y-160943748D01*
X124266253Y-160764143D01*
X124280395Y-160750000D01*
X124266253Y-160735858D01*
X124445858Y-160556253D01*
X124460000Y-160570395D01*
X124474143Y-160556253D01*
X124653748Y-160735858D01*
X124639605Y-160750000D01*
X125488397Y-161598792D01*
X125737472Y-161521157D01*
X125863371Y-161257117D01*
X125935339Y-160973589D01*
X125950611Y-160681469D01*
X125908599Y-160391981D01*
X125810919Y-160116253D01*
X125770241Y-160040150D01*
X125840537Y-159954494D01*
X125899502Y-159844180D01*
X125935812Y-159724482D01*
X125948072Y-159600000D01*
X125948072Y-158140000D01*
X138462419Y-158140000D01*
X138491746Y-158137112D01*
X138507550Y-158137222D01*
X138516721Y-158136322D01*
X139009727Y-158084505D01*
X139068320Y-158072478D01*
X139127084Y-158061268D01*
X139135906Y-158058605D01*
X139609458Y-157912016D01*
X139664584Y-157888842D01*
X139720066Y-157866427D01*
X139728202Y-157862100D01*
X140164262Y-157626323D01*
X140213829Y-157592890D01*
X140263908Y-157560119D01*
X140271049Y-157554294D01*
X140653009Y-157238310D01*
X140695131Y-157195893D01*
X140737900Y-157154011D01*
X140743773Y-157146910D01*
X141057084Y-156762754D01*
X141090188Y-156712927D01*
X141123983Y-156663572D01*
X141128364Y-156655469D01*
X141128368Y-156655461D01*
X141361092Y-156217770D01*
X141383888Y-156162464D01*
X141407453Y-156107483D01*
X141410178Y-156098680D01*
X141553457Y-155624115D01*
X141565074Y-155565442D01*
X141577513Y-155506925D01*
X141578476Y-155497760D01*
X141626850Y-155004405D01*
X141626850Y-155004402D01*
X141630000Y-154972419D01*
X141630000Y-140678000D01*
X142960928Y-140678000D01*
X142960928Y-142278000D01*
X142973188Y-142402482D01*
X143009498Y-142522180D01*
X143068463Y-142632494D01*
X143147815Y-142729185D01*
X143244506Y-142808537D01*
X143354820Y-142867502D01*
X143474518Y-142903812D01*
X143599000Y-142916072D01*
X145199000Y-142916072D01*
X145323482Y-142903812D01*
X145443180Y-142867502D01*
X145553494Y-142808537D01*
X145650185Y-142729185D01*
X145729537Y-142632494D01*
X145788502Y-142522180D01*
X145824812Y-142402482D01*
X145837072Y-142278000D01*
X145837072Y-142270785D01*
X145906298Y-142291097D01*
X146719395Y-141478000D01*
X145906298Y-140664903D01*
X145837072Y-140685215D01*
X145837072Y-140678000D01*
X145824812Y-140553518D01*
X145788502Y-140433820D01*
X145729537Y-140323506D01*
X145650185Y-140226815D01*
X145553494Y-140147463D01*
X145443180Y-140088498D01*
X145323482Y-140052188D01*
X145199000Y-140039928D01*
X143599000Y-140039928D01*
X143474518Y-140052188D01*
X143354820Y-140088498D01*
X143244506Y-140147463D01*
X143147815Y-140226815D01*
X143068463Y-140323506D01*
X143009498Y-140433820D01*
X142973188Y-140553518D01*
X142960928Y-140678000D01*
X141630000Y-140678000D01*
X141630000Y-137127581D01*
X141627112Y-137098254D01*
X141627222Y-137082451D01*
X141626322Y-137073280D01*
X141574505Y-136580273D01*
X141562490Y-136521742D01*
X141551269Y-136462917D01*
X141548605Y-136454095D01*
X141402016Y-135980542D01*
X141378847Y-135925427D01*
X141356427Y-135869934D01*
X141352100Y-135861798D01*
X141116323Y-135425738D01*
X141082890Y-135376171D01*
X141050119Y-135326092D01*
X141044294Y-135318951D01*
X140728310Y-134936991D01*
X140685874Y-134894850D01*
X140644011Y-134852101D01*
X140636911Y-134846227D01*
X140624372Y-134836000D01*
X142960928Y-134836000D01*
X142960928Y-136436000D01*
X142973188Y-136560482D01*
X143009498Y-136680180D01*
X143068463Y-136790494D01*
X143147815Y-136887185D01*
X143244506Y-136966537D01*
X143354820Y-137025502D01*
X143474518Y-137061812D01*
X143599000Y-137074072D01*
X145199000Y-137074072D01*
X145323482Y-137061812D01*
X145443180Y-137025502D01*
X145553494Y-136966537D01*
X145650185Y-136887185D01*
X145729537Y-136790494D01*
X145788502Y-136680180D01*
X145824812Y-136560482D01*
X145837072Y-136436000D01*
X145837072Y-136428785D01*
X145906298Y-136449097D01*
X146719395Y-135636000D01*
X145906298Y-134822903D01*
X145837072Y-134843215D01*
X145837072Y-134836000D01*
X145824812Y-134711518D01*
X145788502Y-134591820D01*
X145729537Y-134481506D01*
X145650185Y-134384815D01*
X145553494Y-134305463D01*
X145443180Y-134246498D01*
X145323482Y-134210188D01*
X145199000Y-134197928D01*
X143599000Y-134197928D01*
X143474518Y-134210188D01*
X143354820Y-134246498D01*
X143244506Y-134305463D01*
X143147815Y-134384815D01*
X143068463Y-134481506D01*
X143009498Y-134591820D01*
X142973188Y-134711518D01*
X142960928Y-134836000D01*
X140624372Y-134836000D01*
X140252754Y-134532917D01*
X140202946Y-134499824D01*
X140153572Y-134466017D01*
X140145466Y-134461634D01*
X139707770Y-134228908D01*
X139652488Y-134206122D01*
X139597483Y-134182547D01*
X139588680Y-134179822D01*
X139114116Y-134036543D01*
X139055428Y-134024923D01*
X138996925Y-134012487D01*
X138987760Y-134011524D01*
X138494405Y-133963150D01*
X138494402Y-133963150D01*
X138462419Y-133960000D01*
X132587895Y-133960000D01*
X132656434Y-133794534D01*
X132715000Y-133500101D01*
X132715000Y-133199899D01*
X132656434Y-132905466D01*
X132541551Y-132628115D01*
X132374768Y-132378507D01*
X132162493Y-132166232D01*
X131912885Y-131999449D01*
X131635534Y-131884566D01*
X131341101Y-131826000D01*
X131040899Y-131826000D01*
X130746466Y-131884566D01*
X130469115Y-131999449D01*
X130219507Y-132166232D01*
X130007232Y-132378507D01*
X129901583Y-132536622D01*
X129707231Y-132473374D01*
X128830605Y-133350000D01*
X128844748Y-133364143D01*
X128665143Y-133543748D01*
X128651000Y-133529605D01*
X128636858Y-133543748D01*
X128457253Y-133364143D01*
X128471395Y-133350000D01*
X127594769Y-132473374D01*
X127400417Y-132536622D01*
X127294768Y-132378507D01*
X127210030Y-132293769D01*
X127774374Y-132293769D01*
X128651000Y-133170395D01*
X129527626Y-132293769D01*
X129445273Y-132040711D01*
X129174582Y-131910914D01*
X128883770Y-131836420D01*
X128584012Y-131820092D01*
X128286829Y-131862557D01*
X128003641Y-131962184D01*
X127856727Y-132040711D01*
X127774374Y-132293769D01*
X127210030Y-132293769D01*
X127082493Y-132166232D01*
X126832885Y-131999449D01*
X126555534Y-131884566D01*
X126261101Y-131826000D01*
X125960899Y-131826000D01*
X125666466Y-131884566D01*
X125389115Y-131999449D01*
X125139507Y-132166232D01*
X124927232Y-132378507D01*
X124841000Y-132507562D01*
X124754768Y-132378507D01*
X124542493Y-132166232D01*
X124292885Y-131999449D01*
X124015534Y-131884566D01*
X123721101Y-131826000D01*
X123420899Y-131826000D01*
X123126466Y-131884566D01*
X122849115Y-131999449D01*
X122599507Y-132166232D01*
X122387232Y-132378507D01*
X122301000Y-132507562D01*
X122214768Y-132378507D01*
X122002493Y-132166232D01*
X121752885Y-131999449D01*
X121475534Y-131884566D01*
X121181101Y-131826000D01*
X120880899Y-131826000D01*
X120586466Y-131884566D01*
X120309115Y-131999449D01*
X120059507Y-132166232D01*
X119847232Y-132378507D01*
X119761000Y-132507562D01*
X119674768Y-132378507D01*
X119462493Y-132166232D01*
X119212885Y-131999449D01*
X118935534Y-131884566D01*
X118641101Y-131826000D01*
X118340899Y-131826000D01*
X118046466Y-131884566D01*
X117769115Y-131999449D01*
X117519507Y-132166232D01*
X117307232Y-132378507D01*
X117221000Y-132507562D01*
X117134768Y-132378507D01*
X116922493Y-132166232D01*
X116711000Y-132024917D01*
X116711000Y-128942325D01*
X116714676Y-128905000D01*
X116711000Y-128867675D01*
X116711000Y-128867667D01*
X116700003Y-128756014D01*
X116656546Y-128612753D01*
X116585974Y-128480724D01*
X116491001Y-128364999D01*
X116462003Y-128341201D01*
X112577804Y-124457003D01*
X112554001Y-124427999D01*
X112438276Y-124333026D01*
X112306247Y-124262454D01*
X112162986Y-124218997D01*
X112051333Y-124208000D01*
X112051322Y-124208000D01*
X112014000Y-124204324D01*
X111976678Y-124208000D01*
X105597802Y-124208000D01*
X104032000Y-122642199D01*
X104032000Y-122580061D01*
X103992226Y-122380102D01*
X103914205Y-122191744D01*
X103800937Y-122022226D01*
X103656774Y-121878063D01*
X103487256Y-121764795D01*
X103298898Y-121686774D01*
X103098939Y-121647000D01*
X102895061Y-121647000D01*
X102695102Y-121686774D01*
X102506744Y-121764795D01*
X102337226Y-121878063D01*
X102193063Y-122022226D01*
X102079795Y-122191744D01*
X102001774Y-122380102D01*
X101962000Y-122580061D01*
X101962000Y-122783939D01*
X102001774Y-122983898D01*
X102079795Y-123172256D01*
X102193063Y-123341774D01*
X102337226Y-123485937D01*
X102506744Y-123599205D01*
X102695102Y-123677226D01*
X102895061Y-123717000D01*
X102957199Y-123717000D01*
X104719200Y-125479002D01*
X104742999Y-125508001D01*
X104858724Y-125602974D01*
X104990753Y-125673546D01*
X105134014Y-125717003D01*
X105245667Y-125728000D01*
X105245676Y-125728000D01*
X105282999Y-125731676D01*
X105320322Y-125728000D01*
X111699199Y-125728000D01*
X115191001Y-129219803D01*
X115191000Y-132024916D01*
X114979507Y-132166232D01*
X114767232Y-132378507D01*
X114681000Y-132507562D01*
X114594768Y-132378507D01*
X114382493Y-132166232D01*
X114132885Y-131999449D01*
X113855534Y-131884566D01*
X113561101Y-131826000D01*
X113260899Y-131826000D01*
X112966466Y-131884566D01*
X112689115Y-131999449D01*
X112439507Y-132166232D01*
X112227232Y-132378507D01*
X112060449Y-132628115D01*
X111945566Y-132905466D01*
X111887000Y-133199899D01*
X111887000Y-133500101D01*
X111945566Y-133794534D01*
X112014105Y-133960000D01*
X107917581Y-133960000D01*
X107888254Y-133962888D01*
X107872451Y-133962778D01*
X107863280Y-133963678D01*
X107370273Y-134015495D01*
X107311742Y-134027510D01*
X107252917Y-134038731D01*
X107244095Y-134041395D01*
X106770542Y-134187984D01*
X106715427Y-134211153D01*
X106659934Y-134233573D01*
X106651798Y-134237900D01*
X106215738Y-134473677D01*
X106166171Y-134507110D01*
X106116092Y-134539881D01*
X106108951Y-134545706D01*
X105726991Y-134861690D01*
X105684850Y-134904126D01*
X105642101Y-134945989D01*
X105636227Y-134953089D01*
X105322917Y-135337246D01*
X105289824Y-135387054D01*
X105256017Y-135436428D01*
X105251634Y-135444534D01*
X105018908Y-135882230D01*
X104996122Y-135937512D01*
X104972547Y-135992517D01*
X104969822Y-136001320D01*
X104826543Y-136475884D01*
X104814923Y-136534572D01*
X104802487Y-136593075D01*
X104801524Y-136602240D01*
X104753150Y-137095595D01*
X104750000Y-137127582D01*
X104750001Y-154972419D01*
X104752888Y-155001737D01*
X104752778Y-155017550D01*
X104753678Y-155026721D01*
X104805495Y-155519727D01*
X104817522Y-155578320D01*
X104828732Y-155637084D01*
X104831395Y-155645906D01*
X104977984Y-156119458D01*
X105001158Y-156174584D01*
X105023573Y-156230066D01*
X105027900Y-156238202D01*
X105263677Y-156674262D01*
X105297110Y-156723829D01*
X105329881Y-156773908D01*
X105335706Y-156781049D01*
X105651690Y-157163009D01*
X105694107Y-157205131D01*
X105735989Y-157247900D01*
X105743090Y-157253773D01*
X106127246Y-157567084D01*
X106177073Y-157600188D01*
X106226428Y-157633983D01*
X106234531Y-157638364D01*
X106234539Y-157638368D01*
X106672230Y-157871092D01*
X106727536Y-157893888D01*
X106782517Y-157917453D01*
X106791320Y-157920178D01*
X107265885Y-158063457D01*
X107324558Y-158075074D01*
X107383075Y-158087513D01*
X107392240Y-158088476D01*
X107885595Y-158136850D01*
X107885598Y-158136850D01*
X107917581Y-158140000D01*
X120605318Y-158140000D01*
X120532068Y-158316842D01*
X120475000Y-158603740D01*
X120475000Y-158896260D01*
X120532068Y-159183158D01*
X120644010Y-159453411D01*
X120806525Y-159696632D01*
X120859893Y-159750000D01*
X120806525Y-159803368D01*
X120644010Y-160046589D01*
X120532068Y-160316842D01*
X120475000Y-160603740D01*
X120475000Y-160896260D01*
X120532068Y-161183158D01*
X120644010Y-161453411D01*
X120806525Y-161696632D01*
X121013368Y-161903475D01*
X121256589Y-162065990D01*
X121526842Y-162177932D01*
X121813740Y-162235000D01*
X122106260Y-162235000D01*
X122326408Y-162191209D01*
X127016201Y-166881003D01*
X127039999Y-166910001D01*
X127155724Y-167004974D01*
X127287753Y-167075546D01*
X127431014Y-167119003D01*
X127542667Y-167130000D01*
X127542676Y-167130000D01*
X127579999Y-167133676D01*
X127617322Y-167130000D01*
X134711088Y-167130000D01*
X134748410Y-167133676D01*
X134785732Y-167130000D01*
X134785743Y-167130000D01*
X134897396Y-167119003D01*
X135040657Y-167075546D01*
X135172686Y-167004974D01*
X135288411Y-166910001D01*
X135312214Y-166880997D01*
X142007211Y-160186000D01*
X142529928Y-160186000D01*
X142529928Y-161886000D01*
X142542188Y-162010482D01*
X142578498Y-162130180D01*
X142637463Y-162240494D01*
X142716815Y-162337185D01*
X142813506Y-162416537D01*
X142923820Y-162475502D01*
X142996380Y-162497513D01*
X142864525Y-162629368D01*
X142702010Y-162872589D01*
X142590068Y-163142842D01*
X142533000Y-163429740D01*
X142533000Y-163722260D01*
X142590068Y-164009158D01*
X142702010Y-164279411D01*
X142864525Y-164522632D01*
X143071368Y-164729475D01*
X143245760Y-164846000D01*
X143071368Y-164962525D01*
X142864525Y-165169368D01*
X142702010Y-165412589D01*
X142590068Y-165682842D01*
X142533000Y-165969740D01*
X142533000Y-166262260D01*
X142590068Y-166549158D01*
X142702010Y-166819411D01*
X142864525Y-167062632D01*
X143071368Y-167269475D01*
X143314589Y-167431990D01*
X143584842Y-167543932D01*
X143871740Y-167601000D01*
X144164260Y-167601000D01*
X144451158Y-167543932D01*
X144721411Y-167431990D01*
X144964632Y-167269475D01*
X145171475Y-167062632D01*
X145289100Y-166886594D01*
X145460412Y-167116269D01*
X145676645Y-167311178D01*
X145926748Y-167460157D01*
X146201109Y-167557481D01*
X146431000Y-167436814D01*
X146431000Y-166243000D01*
X146685000Y-166243000D01*
X146685000Y-167436814D01*
X146914891Y-167557481D01*
X147189252Y-167460157D01*
X147439355Y-167311178D01*
X147655588Y-167116269D01*
X147829641Y-166882920D01*
X147954825Y-166620099D01*
X147999476Y-166472890D01*
X147878155Y-166243000D01*
X146685000Y-166243000D01*
X146431000Y-166243000D01*
X146411000Y-166243000D01*
X146411000Y-165989000D01*
X146431000Y-165989000D01*
X146431000Y-165969000D01*
X146685000Y-165969000D01*
X146685000Y-165989000D01*
X147878155Y-165989000D01*
X147999476Y-165759110D01*
X147954825Y-165611901D01*
X147829641Y-165349080D01*
X147655588Y-165115731D01*
X147439355Y-164920822D01*
X147322466Y-164851195D01*
X147504632Y-164729475D01*
X147711475Y-164522632D01*
X147873990Y-164279411D01*
X147985932Y-164009158D01*
X148043000Y-163722260D01*
X148043000Y-163429740D01*
X147985932Y-163142842D01*
X147873990Y-162872589D01*
X147711475Y-162629368D01*
X147504632Y-162422525D01*
X147330240Y-162306000D01*
X147504632Y-162189475D01*
X147711475Y-161982632D01*
X147873990Y-161739411D01*
X147985932Y-161469158D01*
X148043000Y-161182260D01*
X148043000Y-160889740D01*
X147985932Y-160602842D01*
X147873990Y-160332589D01*
X147711475Y-160089368D01*
X147504632Y-159882525D01*
X147261411Y-159720010D01*
X146991158Y-159608068D01*
X146704260Y-159551000D01*
X146411740Y-159551000D01*
X146124842Y-159608068D01*
X145854589Y-159720010D01*
X145611368Y-159882525D01*
X145479513Y-160014380D01*
X145457502Y-159941820D01*
X145398537Y-159831506D01*
X145319185Y-159734815D01*
X145222494Y-159655463D01*
X145112180Y-159596498D01*
X144992482Y-159560188D01*
X144868000Y-159547928D01*
X143168000Y-159547928D01*
X143043518Y-159560188D01*
X142923820Y-159596498D01*
X142813506Y-159655463D01*
X142716815Y-159734815D01*
X142637463Y-159831506D01*
X142578498Y-159941820D01*
X142542188Y-160061518D01*
X142529928Y-160186000D01*
X142007211Y-160186000D01*
X147323003Y-154870209D01*
X147352001Y-154846411D01*
X147446974Y-154730686D01*
X147517546Y-154598657D01*
X147561003Y-154455396D01*
X147572000Y-154343743D01*
X147575677Y-154306410D01*
X147572000Y-154269077D01*
X147572000Y-151524362D01*
X147652192Y-151481498D01*
X147733691Y-151427042D01*
X147830382Y-151347690D01*
X147899690Y-151278382D01*
X147979042Y-151181691D01*
X148033498Y-151100192D01*
X148092464Y-150989875D01*
X148129973Y-150899319D01*
X148166282Y-150779623D01*
X148185404Y-150683490D01*
X148197664Y-150559009D01*
X148197664Y-150534450D01*
X148200072Y-150510000D01*
X148200072Y-150010000D01*
X148187812Y-149885518D01*
X148180071Y-149860000D01*
X148187812Y-149834482D01*
X148200072Y-149710000D01*
X148200072Y-149210000D01*
X148197664Y-149185550D01*
X148197664Y-149160991D01*
X148185404Y-149036510D01*
X148166282Y-148940377D01*
X148163988Y-148932814D01*
X149551014Y-147545788D01*
X149580011Y-147521991D01*
X149606342Y-147489907D01*
X149674984Y-147406267D01*
X149745556Y-147274237D01*
X149745556Y-147274236D01*
X149789013Y-147130976D01*
X149800010Y-147019323D01*
X149800010Y-147019313D01*
X149803686Y-146981990D01*
X149800010Y-146944667D01*
X149800010Y-131930925D01*
X149803686Y-131893600D01*
X149800010Y-131856275D01*
X149800010Y-131856267D01*
X149789013Y-131744614D01*
X149745556Y-131601353D01*
X149674984Y-131469324D01*
X149580011Y-131353599D01*
X149551013Y-131329801D01*
X143531212Y-125310000D01*
X145831928Y-125310000D01*
X145844188Y-125434482D01*
X145880498Y-125554180D01*
X145939463Y-125664494D01*
X146018815Y-125761185D01*
X146115506Y-125840537D01*
X146225820Y-125899502D01*
X146345518Y-125935812D01*
X146470000Y-125948072D01*
X147034250Y-125945000D01*
X147193000Y-125786250D01*
X147193000Y-124587000D01*
X147447000Y-124587000D01*
X147447000Y-125786250D01*
X147605750Y-125945000D01*
X148170000Y-125948072D01*
X148294482Y-125935812D01*
X148414180Y-125899502D01*
X148524494Y-125840537D01*
X148621185Y-125761185D01*
X148700537Y-125664494D01*
X148759502Y-125554180D01*
X148795812Y-125434482D01*
X148808072Y-125310000D01*
X148805000Y-124745750D01*
X148646250Y-124587000D01*
X147447000Y-124587000D01*
X147193000Y-124587000D01*
X145993750Y-124587000D01*
X145835000Y-124745750D01*
X145831928Y-125310000D01*
X143531212Y-125310000D01*
X143440214Y-125219003D01*
X143416411Y-125189999D01*
X143300686Y-125095026D01*
X143168657Y-125024454D01*
X143025396Y-124980997D01*
X142913743Y-124970000D01*
X142913732Y-124970000D01*
X142876410Y-124966324D01*
X142839088Y-124970000D01*
X127062212Y-124970000D01*
X125702212Y-123610000D01*
X145831928Y-123610000D01*
X145835000Y-124174250D01*
X145993750Y-124333000D01*
X147193000Y-124333000D01*
X147193000Y-124313000D01*
X147447000Y-124313000D01*
X147447000Y-124333000D01*
X148646250Y-124333000D01*
X148805000Y-124174250D01*
X148808072Y-123610000D01*
X148795812Y-123485518D01*
X148759502Y-123365820D01*
X148700537Y-123255506D01*
X148621185Y-123158815D01*
X148524494Y-123079463D01*
X148414180Y-123020498D01*
X148341620Y-122998487D01*
X148473475Y-122866632D01*
X148635990Y-122623411D01*
X148747932Y-122353158D01*
X148805000Y-122066260D01*
X148805000Y-121773740D01*
X148747932Y-121486842D01*
X148635990Y-121216589D01*
X148473475Y-120973368D01*
X148266632Y-120766525D01*
X148023411Y-120604010D01*
X147753158Y-120492068D01*
X147466260Y-120435000D01*
X147173740Y-120435000D01*
X146886842Y-120492068D01*
X146616589Y-120604010D01*
X146373368Y-120766525D01*
X146166525Y-120973368D01*
X146004010Y-121216589D01*
X145892068Y-121486842D01*
X145835000Y-121773740D01*
X145835000Y-122066260D01*
X145892068Y-122353158D01*
X146004010Y-122623411D01*
X146166525Y-122866632D01*
X146298380Y-122998487D01*
X146225820Y-123020498D01*
X146115506Y-123079463D01*
X146018815Y-123158815D01*
X145939463Y-123255506D01*
X145880498Y-123365820D01*
X145844188Y-123485518D01*
X145831928Y-123610000D01*
X125702212Y-123610000D01*
X119251000Y-117158789D01*
X119251000Y-116895083D01*
X119462493Y-116753768D01*
X119674768Y-116541493D01*
X119761000Y-116412438D01*
X119847232Y-116541493D01*
X120059507Y-116753768D01*
X120309115Y-116920551D01*
X120586466Y-117035434D01*
X120880899Y-117094000D01*
X121181101Y-117094000D01*
X121475534Y-117035434D01*
X121752885Y-116920551D01*
X122002493Y-116753768D01*
X122214768Y-116541493D01*
X122301000Y-116412438D01*
X122387232Y-116541493D01*
X122599507Y-116753768D01*
X122849115Y-116920551D01*
X123126466Y-117035434D01*
X123420899Y-117094000D01*
X123721101Y-117094000D01*
X124015534Y-117035434D01*
X124292885Y-116920551D01*
X124542493Y-116753768D01*
X124754768Y-116541493D01*
X124841000Y-116412438D01*
X124927232Y-116541493D01*
X125139507Y-116753768D01*
X125389115Y-116920551D01*
X125666466Y-117035434D01*
X125960899Y-117094000D01*
X126261101Y-117094000D01*
X126555534Y-117035434D01*
X126832885Y-116920551D01*
X127082493Y-116753768D01*
X127210030Y-116626231D01*
X127774374Y-116626231D01*
X127856727Y-116879289D01*
X128127418Y-117009086D01*
X128418230Y-117083580D01*
X128717988Y-117099908D01*
X129015171Y-117057443D01*
X129298359Y-116957816D01*
X129445273Y-116879289D01*
X129527626Y-116626231D01*
X128651000Y-115749605D01*
X127774374Y-116626231D01*
X127210030Y-116626231D01*
X127294768Y-116541493D01*
X127400417Y-116383378D01*
X127594769Y-116446626D01*
X128471395Y-115570000D01*
X128457253Y-115555858D01*
X128636858Y-115376253D01*
X128651000Y-115390395D01*
X128665143Y-115376253D01*
X128844748Y-115555858D01*
X128830605Y-115570000D01*
X129707231Y-116446626D01*
X129901583Y-116383378D01*
X130007232Y-116541493D01*
X130219507Y-116753768D01*
X130469115Y-116920551D01*
X130746466Y-117035434D01*
X131040899Y-117094000D01*
X131341101Y-117094000D01*
X131635534Y-117035434D01*
X131912885Y-116920551D01*
X132162493Y-116753768D01*
X132374768Y-116541493D01*
X132541551Y-116291885D01*
X132656434Y-116014534D01*
X132715000Y-115720101D01*
X132715000Y-115419899D01*
X132656434Y-115125466D01*
X132587895Y-114960000D01*
X146020608Y-114960000D01*
X146832249Y-115032437D01*
M02*
